<svg width="79" height="79" viewBox="0 0 79 79" fill="none" xmlns="http://www.w3.org/2000/svg">
<path d="M50.6378 54.484C52.347 50.4441 50.0163 48.5795 47.6855 48.5795L24.6888 48.2687C24.0672 48.2687 24.0672 47.3364 24.8442 47.181L48.1517 46.8703C50.7932 46.7149 53.9008 44.5395 54.8331 41.7426C54.8331 41.7426 56.387 38.4796 56.2316 38.0134C55.5589 34.7679 53.8352 31.8346 51.3272 29.6676C48.8193 27.5005 45.6669 26.2207 42.3581 26.026C39.0493 25.8314 35.7687 26.7329 33.0239 28.5909C30.2792 30.4489 28.2234 33.1599 27.1749 36.3042C21.2703 32.4196 15.055 37.7026 16.4534 43.4518C8.99505 43.918 6.35353 50.5995 7.13045 54.6394C7.13045 54.7948 7.28583 54.9502 7.5966 54.9502H50.1716C50.327 54.9502 50.6378 54.7948 50.6378 54.484Z" fill="#F38020"/>
<path d="M58.407 38.635C57.7855 38.635 57.4747 38.4797 57.3193 38.7904L56.5424 42.0535C55.7655 44.5396 57.0085 46.715 59.6501 46.8704L64.6223 47.1811C65.2439 47.1811 65.2439 48.1134 64.4669 48.2688L59.3393 48.4242C53.7455 49.0457 52.1917 54.4841 52.1917 54.4841C52.1917 54.7949 52.1917 54.9503 52.5024 54.9503H70.0607L70.5269 54.6395C71.0552 52.7674 71.1424 50.7983 70.7817 48.8868C70.4209 46.9754 69.622 45.1735 68.4476 43.6228C67.2733 42.072 65.7555 40.8146 64.0133 39.9492C62.2712 39.0838 60.3522 38.634 58.407 38.635Z" fill="#FAAE40"/>
</svg>
