<svg width="79" height="79" viewBox="0 0 79 79" fill="none" xmlns="http://www.w3.org/2000/svg">
<path d="M69.9599 35.7549C68.3909 34.6987 64.2679 34.2477 61.2704 35.055C61.1087 32.0694 59.5694 29.5534 56.753 27.3582L55.7104 26.6583L55.0156 27.7077C53.6497 29.781 53.0742 32.5433 53.2782 35.0542C53.439 36.6012 53.9772 38.3403 55.0156 39.6021C51.1142 41.865 47.5184 41.3513 31.5932 41.3513H7.00552C6.93359 44.9471 7.51159 51.8646 11.9105 57.4957C12.3963 58.1177 12.9294 58.7194 13.5075 59.2991C17.0838 62.8806 22.4873 65.5066 30.5675 65.5142C42.8944 65.5252 53.4559 58.8624 59.8799 42.7519C61.9939 42.7866 67.5743 43.131 70.3052 37.8537C70.3721 37.7648 71 36.4539 71 36.4539L69.9591 35.7541L69.9599 35.7549ZM23.0517 32.4663H16.1377V39.3803H23.0517V32.4663ZM31.9842 32.4663H25.0701V39.3803H31.9842V32.4663ZM40.9166 32.4663H34.0025V39.3803H40.9166V32.4663ZM49.849 32.4663H42.935V39.3803H49.849V32.4663ZM14.1193 32.4663H7.20524V39.3803H14.1193V32.4663ZM23.0517 23.7336H16.1377V30.6476H23.0517V23.7336ZM31.9842 23.7336H25.0701V30.6476H31.9842V23.7336ZM40.9166 23.7336H34.0025V30.6476H40.9166V23.7336ZM40.9166 15H34.0025V21.9141H40.9166V15Z" fill="#1D63ED"/>
</svg>
