<svg width="79" height="79" viewBox="0 0 79 79" fill="none" xmlns="http://www.w3.org/2000/svg">
<path d="M69.7942 37.1492L41.8508 9.20723C40.2419 7.59759 37.6321 7.59759 36.0217 9.20723L30.2198 15.0106L37.5798 22.3706C39.2904 21.7925 41.2518 22.1805 42.6149 23.5442C43.9863 24.9163 44.3708 26.8944 43.7781 28.6113L50.8727 35.7053C52.5896 35.1133 54.5691 35.4964 55.9399 36.8692C57.8553 38.7846 57.8553 41.8882 55.9399 43.805C54.0231 45.7211 50.9194 45.7211 49.0019 43.805C47.5615 42.3633 47.2049 40.2459 47.9355 38.4712L41.3187 31.855V49.2657C41.7853 49.4969 42.2262 49.8048 42.6149 50.1934C44.5303 52.1089 44.5303 55.2125 42.6149 57.13C40.6995 59.0447 37.5937 59.0447 35.6797 57.13C33.7643 55.2118 33.7643 52.1082 35.6797 50.1934C36.1534 49.7205 36.7015 49.3625 37.2866 49.1229V31.5499C36.7015 31.3103 36.1548 30.9558 35.6797 30.4794C34.2289 29.0292 33.8799 26.8993 34.6238 25.1176L27.3683 17.8607L8.20723 37.0196C6.59759 38.6307 6.59759 41.2405 8.20723 42.8501L36.152 70.7928C37.7609 72.4024 40.37 72.4024 41.9811 70.7928L69.7942 42.9797C71.4038 41.37 71.4038 38.7588 69.7942 37.1492Z" fill="#F05133"/>
</svg>
