<svg width="79" height="79" viewBox="0 0 79 79" fill="none" xmlns="http://www.w3.org/2000/svg">
<path fill-rule="evenodd" clip-rule="evenodd" d="M39 9C21.32 9 7 23.32 7 41C7 55.16 16.16 67.12 28.88 71.36C30.48 71.64 31.08 70.68 31.08 69.84C31.08 69.08 31.04 66.56 31.04 63.88C23 65.36 20.92 61.92 20.28 60.12C19.92 59.2 18.36 56.36 17 55.6C15.88 55 14.28 53.52 16.96 53.48C19.48 53.44 21.28 55.8 21.88 56.76C24.76 61.6 29.36 60.24 31.2 59.4C31.48 57.32 32.32 55.92 33.24 55.12C26.12 54.32 18.68 51.56 18.68 39.32C18.68 35.84 19.92 32.96 21.96 30.72C21.64 29.92 20.52 26.64 22.28 22.24C22.28 22.24 24.96 21.4 31.08 25.52C33.64 24.8 36.36 24.44 39.08 24.44C41.8 24.44 44.52 24.8 47.08 25.52C53.2 21.36 55.88 22.24 55.88 22.24C57.64 26.64 56.52 29.92 56.2 30.72C58.24 32.96 59.48 35.8 59.48 39.32C59.48 51.6 52 54.32 44.88 55.12C46.04 56.12 47.04 58.04 47.04 61.04C47.04 65.32 47 68.76 47 69.84C47 70.68 47.6 71.68 49.2 71.36C61.84 67.12 71 55.12 71 41C71 23.32 56.68 9 39 9Z" fill="#1B1F23"/>
</svg>
