<svg width="79" height="79" viewBox="0 0 79 79" fill="none" xmlns="http://www.w3.org/2000/svg">
<g clip-path="url(#clip0_243_463)">
<path d="M39.0188 69.0187L50.7948 32.7762H27.2426L39.0188 69.0187Z" fill="#E24329"/>
<path d="M39.0188 69.0185L27.2425 32.776H10.739L39.0188 69.0185Z" fill="#FC6D26"/>
<path d="M10.739 32.776L7.16049 43.79C7.00138 44.2796 7.00135 44.8071 7.16042 45.2967C7.31949 45.7864 7.62949 46.2131 8.04599 46.5158L39.0187 69.0188L10.7387 32.7763L10.739 32.776Z" fill="#FCA326"/>
<path d="M10.739 32.7762H27.2425L20.1503 10.9474C19.7853 9.8242 18.1963 9.82445 17.8315 10.9474L10.739 32.7762Z" fill="#E24329"/>
<path d="M39.0188 69.0185L50.7948 32.776H67.2986L39.0188 69.0185Z" fill="#FC6D26"/>
<path d="M67.2985 32.776L70.877 43.79C71.0361 44.2797 71.0361 44.8071 70.877 45.2968C70.7179 45.7864 70.4078 46.2131 69.9913 46.5158L39.0188 69.0188L67.2985 32.7763V32.776Z" fill="#FCA326"/>
<path d="M67.2985 32.7762H50.7948L57.8873 10.9474C58.2523 9.8242 59.8413 9.82445 60.2061 10.9474L67.2985 32.7762Z" fill="#E24329"/>
</g>
<defs>
<clipPath id="clip0_243_463">
<rect width="64" height="59.008" fill="white" transform="translate(7 10)"/>
</clipPath>
</defs>
</svg>
