<svg width="79" height="79" viewBox="0 0 79 79" fill="none" xmlns="http://www.w3.org/2000/svg">
<rect width="79" height="79" fill="#5865F2"/>
<path d="M61.2141 19.1492C57.0713 17.2108 52.6415 15.8021 48.0104 15C47.4416 16.0283 46.7772 17.4114 46.319 18.5116C41.396 17.7712 36.5182 17.7712 31.6858 18.5116C31.2277 17.4114 30.5481 16.0283 29.9743 15C25.3382 15.8021 20.9033 17.216 16.7605 19.1594C8.40438 31.7866 6.13917 44.1002 7.27178 56.2389C12.814 60.3777 18.1851 62.8919 23.4655 64.5371C24.7693 62.7428 25.9321 60.8353 26.9338 58.8251C25.026 58.1001 23.1987 57.2056 21.4722 56.167C21.9302 55.8276 22.3783 55.4729 22.8111 55.1078C33.3419 60.0333 44.7837 60.0333 55.1886 55.1078C55.6266 55.4729 56.0745 55.8276 56.5276 56.167C54.7959 57.2106 52.9637 58.1052 51.0559 58.8302C52.0576 60.8353 53.2154 62.748 54.5242 64.5422C59.8097 62.897 65.1858 60.3829 70.728 56.2389C72.0569 42.167 68.4578 29.9666 61.2141 19.1492ZM28.3685 48.7737C25.2073 48.7737 22.6148 45.8225 22.6148 42.2287C22.6148 38.6349 25.1519 35.6786 28.3685 35.6786C31.5851 35.6786 34.1775 38.6297 34.1221 42.2287C34.1271 45.8225 31.5851 48.7737 28.3685 48.7737ZM49.6313 48.7737C46.4701 48.7737 43.8776 45.8225 43.8776 42.2287C43.8776 38.6349 46.4147 35.6786 49.6313 35.6786C52.8479 35.6786 55.4403 38.6297 55.385 42.2287C55.385 45.8225 52.8479 48.7737 49.6313 48.7737Z" fill="white"/>
</svg>
