<svg width="79" height="79" viewBox="0 0 79 79" fill="none" xmlns="http://www.w3.org/2000/svg">
<g clip-path="url(#clip0_244_559)">
<path d="M28.6709 72.0001C34.5589 72.0001 39.3376 67.2214 39.3376 61.3334V50.6667H28.6709C22.7829 50.6667 18.0043 55.4454 18.0043 61.3334C18.0043 67.2214 22.7829 72.0001 28.6709 72.0001Z" fill="#0ACF83"/>
<path d="M18.0043 39.9999C18.0043 34.1119 22.7829 29.3333 28.6709 29.3333H39.3376V50.6666H28.6709C22.7829 50.6666 18.0043 45.8879 18.0043 39.9999Z" fill="#A259FF"/>
<path d="M18.0043 18.6667C18.0043 12.7787 22.7829 8 28.6709 8H39.3376V29.3333H28.6709C22.7829 29.3333 18.0043 24.5547 18.0043 18.6667Z" fill="#F24E1E"/>
<path d="M39.3376 8H50.0043C55.8923 8 60.671 12.7787 60.671 18.6667C60.671 24.5547 55.8923 29.3333 50.0043 29.3333H39.3376V8Z" fill="#FF7262"/>
<path d="M60.671 39.9999C60.671 45.8879 55.8923 50.6666 50.0043 50.6666C44.1163 50.6666 39.3376 45.8879 39.3376 39.9999C39.3376 34.1119 44.1163 29.3333 50.0043 29.3333C55.8923 29.3333 60.671 34.1119 60.671 39.9999Z" fill="#1ABCFE"/>
</g>
<defs>
<clipPath id="clip0_244_559">
<rect width="42.6752" height="64" fill="white" transform="translate(18 8)"/>
</clipPath>
</defs>
</svg>
