<svg width="79" height="79" viewBox="0 0 79 79" fill="none" xmlns="http://www.w3.org/2000/svg">
<path d="M68.3263 8H37.5072C37.5072 11.6898 38.973 15.2284 41.582 17.8375C44.1911 20.4465 47.7297 21.9123 51.4195 21.9123H57.0967V27.3934C57.1016 35.07 63.3235 41.2918 71 41.2968V10.6737C71 9.19707 69.803 8 68.3263 8Z" fill="#2684FF"/>
<path d="M53.0772 23.356H22.2581C22.263 31.0325 28.4848 37.2544 36.1614 37.2593H41.8386V42.7583C41.8485 50.4348 48.0743 56.6527 55.7509 56.6527V26.0297C55.7509 24.553 54.5538 23.356 53.0772 23.356Z" fill="url(#paint0_linear_244_603)"/>
<path d="M37.8191 38.7031H7C7 46.3867 13.2287 52.6154 20.9123 52.6154H26.6073V58.0965C26.6122 65.7661 32.8232 71.9851 40.4928 71.9999V41.3768C40.4928 39.9002 39.2958 38.7031 37.8191 38.7031Z" fill="url(#paint1_linear_244_603)"/>
<defs>
<linearGradient id="paint0_linear_244_603" x1="3305.59" y1="28.7036" x2="2002.55" y2="1388.36" gradientUnits="userSpaceOnUse">
<stop offset="0.18" stop-color="#0052CC"/>
<stop offset="1" stop-color="#2684FF"/>
</linearGradient>
<linearGradient id="paint1_linear_244_603" x1="3378.56" y1="53.854" x2="1871.27" y2="1536.81" gradientUnits="userSpaceOnUse">
<stop offset="0.18" stop-color="#0052CC"/>
<stop offset="1" stop-color="#2684FF"/>
</linearGradient>
</defs>
</svg>
