<svg width="79" height="79" viewBox="0 0 79 79" fill="none" xmlns="http://www.w3.org/2000/svg">
<path d="M65.9834 34.1895C66.699 32.0345 66.9465 29.7516 66.7094 27.4933C66.4722 25.235 65.7559 23.0534 64.6083 21.094C62.9068 18.1325 60.3089 15.7878 57.189 14.3979C54.0691 13.0081 50.5885 12.6449 47.2488 13.3607C45.3515 11.2502 42.9323 9.67612 40.2341 8.7965C37.5359 7.91688 34.6537 7.76271 31.8771 8.34948C29.1005 8.93625 26.5271 10.2433 24.4155 12.1393C22.3038 14.0354 20.7283 16.4537 19.847 19.1514C17.6222 19.6076 15.5203 20.5335 13.6819 21.8671C11.8435 23.2007 10.3109 24.9113 9.18655 26.8847C7.46664 29.8413 6.73157 33.2682 7.0876 36.6701C7.44362 40.072 8.8723 43.2725 11.1671 45.8089C10.4488 47.9628 10.1989 50.2453 10.4339 52.5037C10.6689 54.762 11.3834 56.9441 12.5297 58.9041C14.2333 61.8667 16.8335 64.2119 19.9556 65.6018C23.0777 66.9916 26.5605 67.3543 29.902 66.6376C31.4093 68.3351 33.2615 69.6914 35.3348 70.6161C37.408 71.5408 39.6547 72.0125 41.9249 71.9997C45.3479 72.0029 48.6833 70.9183 51.4498 68.9024C54.2163 66.8865 56.2706 64.0437 57.3163 60.7843C59.5409 60.3273 61.6425 59.4011 63.4808 58.0675C65.3191 56.7339 66.8518 55.0236 67.9768 53.0507C69.6763 50.0985 70.3988 46.6844 70.0408 43.2968C69.6827 39.9091 68.2626 36.7212 65.9834 34.1895ZM41.9249 67.811C39.1214 67.8154 36.4059 66.8328 34.2545 65.0355L34.6329 64.8211L47.375 57.4659C47.6921 57.2799 47.9554 57.0146 48.139 56.6961C48.3226 56.3776 48.4202 56.0168 48.4222 55.6491V37.6841L53.8088 40.8004C53.8354 40.8139 53.8585 40.8335 53.8761 40.8576C53.8937 40.8817 53.9054 40.9096 53.9102 40.939V55.8259C53.9034 59.0025 52.6385 62.0471 50.3923 64.2932C48.146 66.5394 45.1014 67.8043 41.9249 67.811ZM16.1631 56.8099C14.7571 54.3823 14.2523 51.5365 14.7375 48.7734L15.1161 49.0006L27.8708 56.3558C28.1864 56.541 28.5456 56.6386 28.9116 56.6386C29.2775 56.6386 29.6368 56.541 29.9524 56.3558L45.5331 47.3732V53.5929C45.5316 53.6251 45.5229 53.6566 45.5076 53.685C45.4923 53.7134 45.4707 53.738 45.4446 53.7569L32.5385 61.2003C29.7842 62.787 26.5128 63.2159 23.4425 62.3927C20.3723 61.5695 17.7542 59.5617 16.1631 56.8099ZM12.8073 29.0548C14.223 26.6115 16.4575 24.748 19.1153 23.794V38.9332C19.1105 39.2989 19.204 39.6593 19.3859 39.9766C19.5679 40.2939 19.8316 40.5566 20.1497 40.7372L35.6547 49.6819L30.2678 52.7979C30.2387 52.8134 30.2062 52.8215 30.1732 52.8215C30.1401 52.8215 30.1076 52.8134 30.0785 52.7979L17.1977 45.3673C14.4486 43.7737 12.4429 41.1557 11.62 38.0865C10.7972 35.0172 11.2241 31.747 12.8073 28.9919V29.0548ZM57.064 39.3369L41.5086 30.3039L46.883 27.1999C46.9121 27.1844 46.9446 27.1763 46.9776 27.1763C47.0106 27.1763 47.0432 27.1844 47.0723 27.1999L59.9531 34.6433C61.9225 35.7797 63.5281 37.4529 64.5823 39.4676C65.6365 41.4823 66.0958 43.7552 65.9067 46.0212C65.7175 48.2871 64.8877 50.4525 63.5141 52.2645C62.1404 54.0765 60.2797 55.4603 58.1491 56.2545V41.1153C58.1379 40.7502 58.032 40.3942 57.8417 40.0824C57.6514 39.7706 57.3836 39.5138 57.064 39.3369ZM62.4259 31.2753L62.0472 31.0481L49.3179 23.63C49.0004 23.4437 48.6389 23.3454 48.2707 23.3454C47.9025 23.3454 47.541 23.4437 47.2235 23.63L31.6558 32.6124V26.3929C31.6525 26.3613 31.6578 26.3294 31.6711 26.3005C31.6844 26.2717 31.7053 26.2469 31.7315 26.2289L44.6123 18.798C46.5865 17.6608 48.8436 17.1091 51.1198 17.2075C53.396 17.306 55.5971 18.0505 57.4657 19.354C59.3343 20.6575 60.7931 22.4661 61.6715 24.5682C62.55 26.6704 62.8117 28.9792 62.4261 31.2247L62.4259 31.2753ZM28.7158 42.3012L23.3292 39.1977C23.3022 39.1815 23.2792 39.1595 23.2617 39.1334C23.2442 39.1073 23.2326 39.0776 23.2278 39.0465V24.1978C23.2308 21.9198 23.8822 19.6898 25.1058 17.7684C26.3295 15.8471 28.0748 14.3137 30.1378 13.3478C32.2008 12.3818 34.4961 12.023 36.7554 12.3135C39.0148 12.6039 41.1448 13.5315 42.8963 14.9879L42.5176 15.2026L29.7758 22.5572C29.4587 22.7432 29.1954 23.0085 29.0118 23.327C28.8282 23.6456 28.7306 24.0064 28.7286 24.374L28.7158 42.3012ZM31.6428 35.9935L38.5814 31.994L45.5331 35.9935V43.9918L38.6067 47.991L31.6555 43.9918L31.6428 35.9935Z" fill="black"/>
</svg>
