<svg width="79" height="79" viewBox="0 0 79 79" fill="none" xmlns="http://www.w3.org/2000/svg">
<path d="M64.3266 20.4412C60.458 15.4317 55.1908 11.682 49.191 9.66624C43.1912 7.65047 36.7284 7.45923 30.62 9.1167C24.5115 10.7742 19.0317 14.2059 14.8738 18.9779C10.7158 23.7498 8.0663 29.6477 7.26045 35.9255C6.4546 42.2034 7.52855 48.5792 10.3465 54.2466C13.1644 59.914 17.5998 64.6185 23.0916 67.7651C28.5834 70.9116 34.885 72.3588 41.1994 71.9238C47.5137 71.4887 53.5573 69.1909 58.5656 65.3209C72.5455 54.5169 75.1265 34.4261 64.3266 20.4412Z" fill="#FF6C37"/>
<path d="M49.7927 28.3891L36.2998 41.989L32.4868 38.069C45.7667 24.7891 47.0987 25.9891 49.7927 28.3891Z" fill="white"/>
<path d="M36.2999 42.361C36.1804 42.358 36.0663 42.3106 35.9799 42.228L32.1399 38.388C32.0534 38.2985 32.0051 38.1789 32.0051 38.0545C32.0051 37.9301 32.0534 37.8105 32.1399 37.721C45.2328 24.6281 47.0198 25.2411 50.1128 28.0411C50.1645 28.0825 50.206 28.1354 50.2337 28.1957C50.2615 28.2559 50.2749 28.3218 50.2728 28.3881C50.2928 28.5181 50.2428 28.6511 50.1398 28.7351L36.6469 42.229C36.5523 42.3157 36.4282 42.3622 36.2999 42.361ZM33.1529 38.068L36.2999 41.215L49.0998 28.4151C48.6578 27.8612 48.0272 27.4897 47.3285 27.3717C46.6299 27.2536 45.9122 27.3972 45.3128 27.7751C42.9928 28.8151 39.2598 31.988 33.1529 38.068Z" fill="#FF6C37"/>
<path d="M40.1668 45.7491L36.4868 41.9892L49.9797 28.6553C53.6067 32.2022 48.2197 38.1232 40.1668 45.7491Z" fill="white"/>
<path d="M40.1668 46.2291C40.0488 46.2197 39.9367 46.1731 39.8468 46.0961L36.0869 42.4161C36.0305 42.2793 36.0305 42.1258 36.0869 41.9891C36.0469 41.8769 36.0469 41.7543 36.0869 41.6421L49.5797 28.1492C49.6736 28.061 49.7975 28.012 49.9262 28.012C50.055 28.012 50.1789 28.061 50.2727 28.1492C50.7097 28.5514 51.0549 29.043 51.2849 29.5905C51.5149 30.138 51.6244 30.7286 51.6057 31.3222C51.6057 34.9222 47.4988 39.4551 40.5128 46.0691C40.4195 46.1614 40.2977 46.2181 40.1668 46.2291ZM37.1798 41.9891L40.1928 45.0011C45.5258 39.9611 50.6197 34.7612 50.6457 31.2412C50.6747 30.495 50.4281 29.7642 49.9527 29.1882L37.1798 41.9891Z" fill="#FF6C37"/>
<path d="M32.5928 38.1492L35.2598 40.8162C35.2768 40.8312 35.2905 40.8497 35.2998 40.8703C35.3092 40.891 35.314 40.9135 35.314 40.9362C35.314 40.9589 35.3092 40.9813 35.2998 41.002C35.2905 41.0227 35.2768 41.0412 35.2598 41.0562L29.6329 42.2562C29.5193 42.2807 29.4008 42.2674 29.2955 42.2183C29.1901 42.1693 29.1037 42.0872 29.0493 41.9845C28.995 41.8818 28.9757 41.7641 28.9944 41.6494C29.0131 41.5347 29.0687 41.4293 29.1529 41.3492L32.4328 38.0962C32.4328 38.0962 32.5398 38.0962 32.5928 38.1492Z" fill="white"/>
<path d="M29.4998 42.7889C29.322 42.7867 29.1478 42.7389 28.9937 42.6502C28.8397 42.5614 28.7109 42.4346 28.6198 42.2819C28.5173 42.0885 28.4801 41.8671 28.5138 41.6509C28.5475 41.4346 28.6503 41.235 28.8068 41.082L32.0598 37.802C32.1771 37.6971 32.3289 37.6392 32.4863 37.6392C32.6436 37.6392 32.7955 37.6971 32.9128 37.802L35.5798 40.469C35.7378 40.619 35.7998 40.846 35.7398 41.056C35.6798 41.266 35.5038 41.433 35.2868 41.483L29.6598 42.6829L29.4998 42.7889ZM32.4868 38.736L29.4738 41.749L34.4608 40.682L32.4868 38.736Z" fill="#FF6C37"/>
<path d="M56.9666 20.8952C55.0366 19.0332 52.0046 18.9552 49.9807 20.7122C47.9567 22.4692 47.6107 25.4852 49.1867 27.6551C50.7627 29.8251 53.7336 30.4331 56.0336 29.0551L52.4066 25.4282L56.9666 20.8952Z" fill="white"/>
<path d="M53.3667 30.2811C52.2579 30.2669 51.1777 29.9267 50.2609 29.3029C49.3441 28.6791 48.6311 27.7993 48.2107 26.7731C47.7907 25.7477 47.6805 24.6217 47.8938 23.5343C48.1071 22.4469 48.6345 21.446 49.4107 20.6552C50.4784 19.6072 51.9146 19.02 53.4107 19.02C54.9067 19.02 56.343 19.6072 57.4107 20.6552C57.5127 20.7412 57.5707 20.8682 57.5707 21.0022C57.5704 21.0681 57.556 21.1332 57.5284 21.1931C57.5008 21.253 57.4606 21.3062 57.4107 21.3492L53.0907 25.4292L56.3707 28.6561C56.4238 28.7069 56.4637 28.7699 56.4869 28.8396C56.5101 28.9093 56.5158 28.9837 56.5037 29.0561C56.4958 29.126 56.4726 29.1934 56.4358 29.2533C56.399 29.3133 56.3494 29.3644 56.2907 29.4031C55.4095 29.9539 54.3965 30.2578 53.3577 30.2831L53.3667 30.2811ZM53.3667 19.9342C51.4667 19.9442 49.7667 21.0872 49.0537 22.8342C48.3407 24.5812 48.7287 26.5921 50.0607 27.9341C50.7233 28.6005 51.5716 29.0513 52.4946 29.2274C53.4176 29.4035 54.3723 29.2968 55.2337 28.9211L52.0867 25.7741C52.0367 25.7341 51.9963 25.6834 51.9685 25.6257C51.9408 25.5679 51.9264 25.5047 51.9264 25.4407C51.9264 25.3766 51.9408 25.3134 51.9685 25.2556C51.9963 25.1979 52.0367 25.1472 52.0867 25.1072L56.2467 20.9202C55.4197 20.2864 54.4085 19.9409 53.3667 19.9342Z" fill="#FF6C37"/>
<path d="M57.0467 20.9753L52.4867 25.5083L56.1137 29.1353C56.4787 28.9257 56.8186 28.6751 57.1267 28.3883C58.0772 27.3835 58.6003 26.0487 58.5853 24.6656C58.5704 23.2825 58.0187 21.9594 57.0467 20.9753Z" fill="white"/>
<path d="M56.0326 29.5353C55.9727 29.5385 55.9128 29.5282 55.8574 29.5052C55.8021 29.4822 55.7526 29.447 55.7126 29.4023L52.0856 25.7753C52.0356 25.7353 51.9952 25.6846 51.9675 25.6268C51.9397 25.5691 51.9253 25.5059 51.9253 25.4418C51.9253 25.3777 51.9397 25.3145 51.9675 25.2568C51.9952 25.1991 52.0356 25.1483 52.0856 25.1083L56.6186 20.6553C56.6624 20.5893 56.7218 20.5352 56.7916 20.4977C56.8614 20.4603 56.9394 20.4407 57.0186 20.4407C57.0978 20.4407 57.1758 20.4603 57.2456 20.4977C57.3154 20.5352 57.3748 20.5893 57.4186 20.6553C57.9507 21.1767 58.3735 21.7991 58.6621 22.4859C58.9507 23.1728 59.0994 23.9103 59.0994 24.6553C59.0994 25.4003 58.9507 26.1378 58.6621 26.8247C58.3735 27.5115 57.9507 28.1339 57.4186 28.6553C57.1047 28.9882 56.7455 29.2754 56.3516 29.5083C56.2524 29.5583 56.1387 29.5679 56.0326 29.5353ZM53.0996 25.4293L56.1126 28.4423C56.3199 28.297 56.5161 28.1366 56.6996 27.9623C57.5853 27.079 58.0842 25.8802 58.0866 24.6293C58.0886 23.5099 57.6806 22.4284 56.9396 21.5893L53.0996 25.4293Z" fill="#FF6C37"/>
<path d="M50.3527 28.9491C49.9915 28.6099 49.5147 28.4211 49.0192 28.4211C48.5237 28.4211 48.0469 28.6099 47.6857 28.9491L35.6068 41.001L37.6068 43.028L50.3797 31.8281C50.5745 31.6414 50.729 31.4168 50.8337 31.1682C50.9384 30.9195 50.9912 30.6521 50.9886 30.3823C50.9861 30.1125 50.9284 29.846 50.819 29.5994C50.7096 29.3528 50.5509 29.1321 50.3527 28.9491Z" fill="white"/>
<path d="M37.4998 43.5091C37.3803 43.5062 37.2662 43.4587 37.1798 43.3761L35.1528 41.3491C35.0664 41.2596 35.0181 41.14 35.0181 41.0156C35.0181 40.8912 35.0664 40.7716 35.1528 40.6821L47.2327 28.6552C47.5807 28.3077 48.025 28.0727 48.5081 27.9808C48.9912 27.8888 49.4908 27.9441 49.942 28.1396C50.3933 28.335 50.7755 28.6614 51.0389 29.0767C51.3024 29.4919 51.4351 29.9767 51.4197 30.4682C51.4059 30.8018 51.3256 31.1293 51.1836 31.4315C51.0416 31.7337 50.8407 32.0046 50.5927 32.2282L37.8198 43.4281C37.7269 43.4938 37.6127 43.5234 37.4998 43.5091ZM36.0868 41.0011L37.4198 42.3611L49.9527 31.4542C50.2627 31.1842 50.4477 30.7982 50.4597 30.3872C50.4717 29.9762 50.3097 29.5742 50.0067 29.2942C49.7269 29.0156 49.3481 28.8591 48.9532 28.8591C48.5583 28.8591 48.1795 29.0156 47.8997 29.2942L36.0868 41.0011Z" fill="#FF6C37"/>
<path d="M26.2469 54.7349C26.2128 54.7812 26.1944 54.8373 26.1944 54.8949C26.1944 54.9524 26.2128 55.0085 26.2469 55.0549L26.7799 57.3749C26.8013 57.5114 26.781 57.6512 26.7218 57.776C26.6626 57.9009 26.5672 58.005 26.4479 58.0749C26.3291 58.1443 26.1913 58.1743 26.0544 58.1605C25.9174 58.1467 25.7884 58.0897 25.6859 57.9979L22.033 54.4779L33.4199 43.001H37.3668L40.0338 45.668C35.8735 49.3053 31.2348 52.356 26.2469 54.7349Z" fill="white"/>
<path d="M26.0069 58.6549C25.7049 58.6489 25.4069 58.5249 25.2069 58.3079L21.7139 54.815C21.6639 54.775 21.6235 54.7242 21.5958 54.6665C21.568 54.6088 21.5536 54.5455 21.5536 54.4815C21.5536 54.4174 21.568 54.3542 21.5958 54.2965C21.6235 54.2387 21.6639 54.188 21.7139 54.148L33.1798 42.6551C33.244 42.5868 33.3279 42.5403 33.4198 42.5221H37.3928C37.4963 42.4855 37.6093 42.4855 37.7128 42.5221L40.3798 45.1891C40.4305 45.2358 40.4691 45.2942 40.4922 45.3592C40.5154 45.4241 40.5225 45.4938 40.5128 45.5621C40.5147 45.6283 40.5012 45.6941 40.4734 45.7543C40.4457 45.8145 40.4044 45.8675 40.3528 45.9091L40.1398 46.0961C35.9627 49.5783 31.3672 52.5254 26.4599 54.869L26.9669 57.029C27.0061 57.1956 27.0076 57.3689 26.9713 57.5361C26.935 57.7034 26.8618 57.8605 26.7571 57.9959C26.6523 58.1313 26.5187 58.2416 26.3659 58.3187C26.2131 58.3959 26.045 58.438 25.8739 58.4419L26.0069 58.6549ZM22.7539 54.468L25.8999 57.641C25.9292 57.6671 25.9671 57.6815 26.0064 57.6815C26.0457 57.6815 26.0836 57.6671 26.1129 57.641C26.1325 57.6137 26.1431 57.581 26.1431 57.5475C26.1431 57.5139 26.1325 57.4812 26.1129 57.454L25.5799 55.134C25.5379 54.9675 25.5548 54.7916 25.6277 54.6361C25.7006 54.4806 25.825 54.3552 25.9799 54.281C30.7553 51.9687 35.2323 49.0853 39.3128 45.6941L37.1258 43.5071H33.5528L22.7539 54.468Z" fill="#FF6C37"/>
<path d="M19.2869 57.2148L21.9539 54.5479L26.0609 58.6548L19.5279 58.2018C19.4157 58.193 19.3092 58.149 19.2235 58.0761C19.1379 58.0032 19.0774 57.9051 19.0508 57.7957C19.0242 57.6864 19.0328 57.5715 19.0754 57.4674C19.1179 57.3632 19.1923 57.2752 19.2879 57.2158L19.2869 57.2148Z" fill="white"/>
<path d="M26.1398 59.055L19.6329 58.602C19.2469 58.566 18.9149 58.302 18.7789 57.949C18.6429 57.596 18.7259 57.177 18.9929 56.895L21.6599 54.228C21.7494 54.1416 21.8689 54.0933 21.9934 54.0933C22.1178 54.0933 22.2374 54.1416 22.3269 54.228L26.4068 58.308C26.4633 58.3854 26.4938 58.4787 26.4938 58.5745C26.4938 58.6703 26.4633 58.7636 26.4068 58.841C26.3452 58.9407 26.2508 59.017 26.1398 59.055ZM19.6329 57.562L24.9659 57.909L22.0329 55.162L19.6329 57.562Z" fill="#FF6C37"/>
<path d="M37.7397 43.3231L32.3528 44.1501L35.4728 41.0571L37.7397 43.3231Z" fill="white"/>
<path d="M32.3529 44.6551C32.2634 44.6575 32.1751 44.6334 32.0992 44.5859C32.0233 44.5384 31.963 44.4696 31.9259 44.3881C31.8691 44.3109 31.8385 44.2175 31.8385 44.1216C31.8385 44.0257 31.8691 43.9324 31.9259 43.8551L35.0189 40.7352C35.1127 40.647 35.2366 40.5979 35.3654 40.5979C35.4941 40.5979 35.618 40.647 35.7119 40.7352L37.9798 43.0011C38.0252 43.073 38.0492 43.1562 38.0492 43.2411C38.0492 43.3261 38.0252 43.4093 37.9798 43.4811C37.9576 43.5687 37.9106 43.648 37.8444 43.7095C37.7783 43.7711 37.6958 43.8123 37.6069 43.8281L32.2739 44.6551H32.3529ZM35.4729 41.7481L33.7399 43.4811L36.7269 43.0281L35.4729 41.7481Z" fill="#FF6C37"/>
<path d="M37.7398 43.3209L33.9798 43.8009C33.8792 43.8238 33.7739 43.8136 33.6795 43.7719C33.5851 43.7301 33.5067 43.6591 33.4559 43.5694C33.405 43.4796 33.3845 43.3758 33.3972 43.2734C33.41 43.171 33.4555 43.0755 33.5268 43.0009L35.4738 41.054L37.7398 43.3209Z" fill="white"/>
<path d="M33.8728 44.309C33.6985 44.3073 33.5278 44.2595 33.378 44.1704C33.2282 44.0814 33.1046 43.9543 33.0198 43.802C32.918 43.6194 32.8785 43.4086 32.9074 43.2016C32.9363 42.9946 33.0319 42.8027 33.1798 42.655L35.1268 40.708C35.2206 40.6198 35.3446 40.5707 35.4733 40.5707C35.6021 40.5707 35.726 40.6198 35.8198 40.708L38.0868 42.975C38.1542 43.0388 38.2016 43.1209 38.2234 43.2112C38.2451 43.3015 38.2401 43.3962 38.2091 43.4837C38.1781 43.5712 38.1223 43.6479 38.0486 43.7044C37.9749 43.7609 37.8864 43.7948 37.7938 43.802L34.0608 44.282L33.8728 44.309ZM33.8728 43.322L36.6998 42.975L35.4468 41.722L33.8468 43.322H33.8728ZM57.0726 24.0421C57.0224 23.958 56.943 23.8952 56.8496 23.8657C56.7561 23.8362 56.6551 23.8421 56.5656 23.8821C56.5215 23.9045 56.4823 23.9355 56.4503 23.9733C56.4184 24.0111 56.3944 24.0549 56.3796 24.1021C56.35 24.1975 56.3593 24.3007 56.4056 24.3891C56.5926 24.7821 56.5406 25.2471 56.2726 25.5891C56.2393 25.6221 56.2133 25.6616 56.1961 25.7051C56.1788 25.7487 56.1709 25.7953 56.1726 25.8421C56.1736 25.9359 56.2092 26.026 56.2726 26.0951C56.3411 26.1221 56.4172 26.1221 56.4856 26.0951C56.5477 26.1107 56.6129 26.109 56.6741 26.0901C56.7353 26.0713 56.7901 26.036 56.8326 25.9881C57.0522 25.7193 57.1913 25.3938 57.2337 25.0493C57.2762 24.7048 57.2204 24.3563 57.0726 24.0421Z" fill="#FF6C37"/>
</svg>
