<svg width="79" height="79" viewBox="0 0 79 79" fill="none" xmlns="http://www.w3.org/2000/svg">
<path d="M64.75 8H13.25C9.79822 8 7 10.7982 7 14.25V65.75C7 69.2018 9.79822 72 13.25 72H64.75C68.2018 72 71 69.2018 71 65.75V14.25C71 10.7982 68.2018 8 64.75 8Z" fill="url(#paint0_linear_244_589)"/>
<path d="M59.68 16.3201H46.16C44.5032 16.3201 43.16 17.6632 43.16 19.3201V41.3201C43.16 42.9769 44.5032 44.3201 46.16 44.3201H59.68C61.3369 44.3201 62.68 42.9769 62.68 41.3201V19.3201C62.68 17.6632 61.3369 16.3201 59.68 16.3201Z" fill="white"/>
<path d="M31.8399 16.3201H18.3199C16.6631 16.3201 15.3199 17.6632 15.3199 19.3201V57.3201C15.3199 58.9769 16.6631 60.3201 18.3199 60.3201H31.8399C33.4968 60.3201 34.8399 58.9769 34.8399 57.3201V19.3201C34.8399 17.6632 33.4968 16.3201 31.8399 16.3201Z" fill="white"/>
<defs>
<linearGradient id="paint0_linear_244_589" x1="3207" y1="8" x2="3207" y2="6408" gradientUnits="userSpaceOnUse">
<stop stop-color="#0091E6"/>
<stop offset="1" stop-color="#0079BF"/>
</linearGradient>
</defs>
</svg>
