<svg width="79" height="79" viewBox="0 0 79 79" fill="none" xmlns="http://www.w3.org/2000/svg">
<path d="M17.0025 47.8702C17.0025 47.8702 17.6125 50.3802 17.5175 50.7326C17.4225 51.0852 15.6875 51.3652 14.6775 51.8826C14.015 52.2226 12.9475 52.9802 13.5975 53.5926C13.95 53.9252 14.935 53.0852 17.8925 52.9152C20.895 52.7426 21.425 52.9876 21.27 52.3526C21.1175 51.7202 20.32 51.6476 19.65 51.3676C19.4275 51.2752 19.17 51.1276 19.0625 50.9676C18.96 50.8152 19.11 48.2226 19.11 48.2226L17.0025 47.8702Z" fill="#FEBA02"/>
<path d="M22.54 49.6298C22.54 49.6298 22.61 52.1674 22.61 52.3298C22.61 52.5674 22.03 52.8524 21.1675 53.0448C20.305 53.2374 18.5975 53.5574 18.575 54.6498C18.56 55.3224 21.855 54.4124 23.7375 54.4398C25.62 54.4674 26.8275 54.7148 26.74 53.9248C26.67 53.2924 25.69 53.0048 25.1625 52.8898C24.635 52.7748 24.395 52.5174 24.38 52.2024C24.37 51.9974 24.415 49.6848 24.415 49.6848L22.54 49.6298Z" fill="#FEBA02"/>
<path d="M17.4725 26.0026L19.7375 25.8501C19.7375 25.8501 20.9975 26.2576 22.195 27.9926C23.785 30.3001 23.575 34.5201 23.575 34.5201L27.94 46.1576L28.4676 50.005C28.4676 50.005 24.5625 50.62 20.7375 50.1226C16.2325 49.535 11.5875 45.4526 11.6575 39.3526C11.7275 33.2526 16.5625 27.3626 16.5625 27.3626L17.4725 26.0026Z" fill="url(#paint0_linear_237_339)"/>
<path d="M12.2876 28.2326C12.2876 28.2326 10.5501 28.7726 10.0576 30.7201C9.56505 32.6676 10.3876 34.4801 10.7501 34.6026C10.8901 34.6501 11.3251 33.7701 11.3251 33.7701C11.3251 33.7701 11.9351 34.4751 12.2401 34.6376C12.5451 34.8026 12.6976 34.9251 12.9676 34.9076C13.4951 34.8726 14.2701 33.3351 14.2476 32.3026L14.5176 27.2451L12.2876 28.2326Z" fill="#FFD51D"/>
<path d="M14.4625 31.0226C14.4625 31.0226 16.58 30.6701 17.425 29.9426C18.27 29.2151 19.255 28.5576 19.5825 27.2451C19.7825 26.4451 19.7925 25.8851 19.7925 25.8851C19.7925 25.8851 16.84 24.1726 14.165 25.5801C11.49 26.9876 12.1225 28.9001 12.1225 28.9001L14.4625 31.0226Z" fill="#FF2B23"/>
<path d="M14.3749 31.3052C14.3749 31.3052 12.6624 32.3152 12.4749 32.4552C12.2874 32.5952 11.6749 32.9002 11.3949 33.1352C10.9499 33.5102 10.5499 34.3552 10.7149 34.5677C10.8799 34.7777 11.1149 34.1227 11.7699 33.7227C12.4249 33.3227 13.5524 32.6902 13.8574 32.5252C14.1624 32.3602 14.2574 32.2677 14.2574 32.2677L14.3749 31.3052Z" fill="#FF600D"/>
<path d="M14.9575 30.865C15.075 30.6175 15.1275 30.05 14.33 29.0525C13.3925 27.88 12.0775 27.8325 12.0775 27.8325L11.9375 28.3025L13.3925 29.7575L14.2 31.5C14.2 31.5 14.715 31.375 14.9575 30.865Z" fill="#A02A1B"/>
<path d="M10.9725 29.1001C10.9725 29.1001 12.0525 29.1701 12.8025 29.8276C13.2475 30.2176 13.92 31.0526 14.085 31.4301C14.25 31.8076 14.8125 30.7626 14.3675 30.0576C13.9225 29.3526 13.39 28.6451 12.405 28.3026C11.695 28.0576 11.02 28.6551 10.9725 29.1001Z" fill="#EC80AF"/>
<path d="M19.3724 30.485C19.3724 30.485 18.5049 28.28 16.7199 28.3725C14.9199 28.4675 14.6424 29.805 14.7249 30.6025C14.8199 31.525 15.4299 32.035 16.8374 31.9875C18.2474 31.9375 19.3724 30.485 19.3724 30.485Z" fill="#FBD3B3"/>
<path d="M18.06 30.2023C18.06 30.7723 17.44 31.2823 16.875 31.2823C16.3125 31.2823 15.855 30.8198 15.855 30.2498C15.855 29.6798 16.1825 29.0523 16.98 29.0073C17.8225 28.9548 18.06 29.6323 18.06 30.2023Z" fill="#312F2A"/>
<path d="M28.595 44.1876C28.595 44.1876 29.1574 45.455 31.3174 46.8624C33.15 48.0574 34.04 48.7876 35.3076 49.2326C36.575 49.6776 36.6226 49.795 36.575 50.03C36.5276 50.265 34.5574 51.79 32.3974 51.6026C30.24 51.415 29.2074 50.57 28.55 50.125C27.8924 49.68 26.65 46.535 26.65 46.535L28.595 44.1876Z" fill="#01AB46"/>
<path d="M23.585 34.46C23.585 34.46 20.5925 35.34 19.28 37.335C18.18 39.005 18.2775 41.845 19.3975 43.9525C20.7825 46.5574 23.645 48.41 25.17 49.115C26.695 49.82 28.7824 50.17 29.6974 50.0774C30.6124 49.985 28.8774 43.6725 27.21 40.2925C25.585 36.995 23.585 34.46 23.585 34.46Z" fill="#B7D019"/>
<path d="M44.9776 50.005C43.3526 48.3474 43.3526 45.7024 44.9776 44.045L49.6626 39.3599C50.1726 38.8499 50.8426 38.4674 51.5426 38.2774C52.2426 38.0874 52.9776 38.0874 53.6452 38.2449C54.3452 38.4349 55.0152 38.7874 55.5576 39.2974C55.5902 39.3299 55.5902 39.3299 55.6202 39.3599C57.2776 41.0174 57.2776 43.6624 55.6202 45.32L50.9352 50.005C49.2802 51.6624 46.6026 51.6624 44.9776 50.005ZM58.2352 36.7474C55.1452 33.6574 50.0776 33.6574 46.9852 36.7474L42.3326 41.4324C39.2426 44.5224 39.2426 49.59 42.3326 52.6824C45.4226 55.775 50.4902 55.7724 53.5826 52.6824L58.2676 47.9974C61.3252 44.905 61.3252 39.8399 58.2352 36.7474Z" fill="#84B0C1"/>
<path d="M55.715 36.12C56.555 35.6975 57.3576 35.9925 57.3576 35.9925C55.6226 34.71 53.73 34.345 52.1 34.4475C52.09 34.46 52.0826 34.4725 52.0726 34.4875C51.3576 35.585 51.1976 37.035 51.6426 38.255C52.3126 38.09 53.0076 38.095 53.6426 38.2475C53.9026 38.3175 54.1 38.385 54.49 38.5675C54.4926 38.565 54.355 36.805 55.715 36.12Z" fill="#2F7889"/>
<path d="M50.6903 38.615C50.7227 38.3725 50.7377 38.1275 50.7527 37.8825C50.8227 36.8275 51.0027 35.7775 51.2877 34.76C51.3077 34.6875 51.3277 34.61 51.3477 34.5325C50.5753 34.655 49.8177 34.89 49.1053 35.24C47.9953 36.6725 48.3603 38.5275 49.6627 39.3625C49.9603 39.065 50.3103 38.8125 50.6903 38.615Z" fill="#2F7889"/>
<path d="M65.0226 29.995C66.6476 31.6525 66.6476 34.2975 65.0226 35.955L60.3376 40.64C59.8276 41.15 59.1576 41.5325 58.4576 41.7225C57.7576 41.9125 57.0226 41.9125 56.3552 41.755C55.6552 41.565 54.9852 41.2125 54.4426 40.7025C54.4102 40.67 54.4102 40.67 54.3802 40.64C52.7226 38.9825 52.7226 36.3375 54.3802 34.68L59.0652 29.995C60.7202 28.3375 63.3976 28.3375 65.0226 29.995ZM51.7652 43.2525C54.8552 46.3424 59.9226 46.3424 63.0152 43.2525L67.6676 38.5675C70.7576 35.4775 70.7576 30.41 67.6676 27.3175C64.5776 24.225 59.5102 24.2275 56.4176 27.3175L51.7352 32.0025C48.6752 35.095 48.6752 40.16 51.7652 43.2525Z" fill="#84B0C1"/>
<path d="M51.6124 33.8549C51.6224 33.8474 51.6324 33.8374 51.6424 33.8299C51.7748 33.7149 51.9224 33.6049 52.0948 33.5749C52.2674 33.5449 52.4698 33.6224 52.5298 33.7874C52.5748 33.9099 52.5348 34.0449 52.4924 34.1674C51.8348 36.1549 51.3074 38.6774 51.9474 40.7349C52.0098 40.9349 52.0698 41.1924 51.9024 41.3174C51.8048 41.3924 51.6598 41.3799 51.5524 41.3224C50.3774 40.6874 50.1724 38.9674 50.1174 37.7874C50.0524 36.2974 50.4648 34.8624 51.6124 33.8549Z" fill="#A8E3F0"/>
<path d="M56.8303 41.835C56.6703 41.815 56.5004 41.7825 56.5004 41.7825C56.5004 41.7825 56.4754 42.85 55.6228 43.735C54.6778 44.715 53.7354 44.69 53.7354 44.69C54.2328 44.9774 55.2254 45.275 55.5854 45.36L55.6228 45.3224C56.5804 44.3624 56.9803 43.0725 56.8303 41.835Z" fill="#2F7889"/>
<path d="M61.69 39.2874L60.3574 40.6199C60.69 42.1049 60.6 43.6649 60.085 45.1048C60.7324 44.8748 61.355 44.5574 61.935 44.1548C62.8924 42.5149 62.6824 40.5774 61.69 39.2874Z" fill="#2F7889"/>
<path d="M58.9726 41.5025C58.8152 41.105 58.5076 40.7025 58.1226 40.74C57.8826 40.7625 57.5102 40.9875 57.5352 41.675C57.5526 42.2075 57.7552 42.7275 57.4652 43.425C57.0402 44.445 57.1376 44.72 57.2402 44.8824C57.3526 45.06 57.5602 45.14 57.7526 45.1374C58.2602 45.135 58.6802 44.67 58.9102 44.16C59.2826 43.345 59.3052 42.3375 58.9726 41.5025Z" fill="#A8E3F0"/>
<path d="M51.3126 51.045C51.4726 50.9126 51.8876 50.47 52.08 50.75C52.01 51.52 51.4176 52.1476 50.7676 52.5676C49.9676 53.085 49.02 53.39 48.0676 53.3626C47.2776 53.34 45.9676 53.02 45.5076 52.2876C45.1326 51.6926 45.925 51.59 46.365 51.755C47.9326 52.3526 49.705 52.365 51.3126 51.045Z" fill="#A8E3F0"/>
<defs>
<linearGradient id="paint0_linear_237_339" x1="18.7134" y1="48.2644" x2="23.4643" y2="32.4123" gradientUnits="userSpaceOnUse">
<stop offset="0.1362" stop-color="#79DA88"/>
<stop offset="0.3039" stop-color="#57CD75"/>
<stop offset="0.6343" stop-color="#19B553"/>
<stop offset="0.7914" stop-color="#01AB46"/>
</linearGradient>
</defs>
</svg>
