<svg width="79" height="79" viewBox="0 0 79 79" fill="none" xmlns="http://www.w3.org/2000/svg">
<path fill-rule="evenodd" clip-rule="evenodd" d="M60.4801 58.7657L31.9749 67.264C31.7763 67.3242 31.5655 67.3319 31.3631 67.2863C31.1606 67.2407 30.9734 67.1434 30.8198 67.0038C30.6662 66.8643 30.5515 66.6873 30.4867 66.4901C30.4219 66.2929 30.4094 66.0823 30.4504 65.8789L40.6355 16.7109C40.6786 16.51 40.7835 16.3277 40.9355 16.1896C41.0876 16.0515 41.279 15.9644 41.4831 15.9407C41.6871 15.917 41.8935 15.9578 42.0731 16.0574C42.2528 16.157 42.3967 16.3104 42.4847 16.496L61.3395 56.864C61.4241 57.0435 61.4686 57.2392 61.4702 57.4376C61.4718 57.636 61.4302 57.8324 61.3485 58.0132C61.2668 58.194 61.1469 58.3549 60.9969 58.4848C60.847 58.6147 60.6707 58.7106 60.4801 58.7657ZM65.3692 56.7589L43.5429 10.0183C43.2747 9.44181 42.8544 8.9493 42.3272 8.59371C41.8001 8.23811 41.186 8.03287 40.5509 8.00003C39.9159 7.95635 39.2811 8.08881 38.7164 8.38282C38.1518 8.67682 37.6793 9.12096 37.3509 9.66632L13.6824 48.3383C13.3213 48.9237 13.1335 49.5994 13.1408 50.2871C13.1481 50.9749 13.3501 51.6464 13.7235 52.224L25.2984 70.3018C25.7345 70.9773 26.3778 71.4935 27.1319 71.7728C27.8859 72.0522 28.7102 72.0798 29.4812 71.8515L63.0812 61.8332C63.5887 61.6854 64.0581 61.4293 64.4571 61.0826C64.8561 60.736 65.1752 60.3069 65.3925 59.8251C65.6097 59.3432 65.7199 58.82 65.7155 58.2915C65.7111 57.7629 65.5922 57.2416 65.3669 56.7635L65.3692 56.7589Z" fill="#0C344B"/>
</svg>
