<svg width="772" height="704" viewBox="0 0 772 704" fill="none" xmlns="http://www.w3.org/2000/svg">
<path opacity="0.564" fill-rule="evenodd" clip-rule="evenodd" d="M653.5 1.49999C653.5 1.83299 653.5 2.16699 653.5 2.49999C594.833 2.49999 536.167 2.49999 477.5 2.49999C480.641 1.67899 483.975 1.17899 487.5 0.999993C542.862 0.178993 598.195 0.345993 653.5 1.49999Z" fill="#959595"/>
<path opacity="0.173" fill-rule="evenodd" clip-rule="evenodd" d="M653.5 2.5C653.5 2.167 653.5 1.833 653.5 1.5C663.92 1.189 673.587 3.522 682.5 8.5C673.214 4.763 663.548 2.763 653.5 2.5Z" fill="#959595"/>
<path opacity="0.533" fill-rule="evenodd" clip-rule="evenodd" d="M476.5 2.5C472.837 4.416 468.837 5.416 464.5 5.5C468.239 3.898 472.239 2.898 476.5 2.5Z" fill="#959595"/>
<path fill-rule="evenodd" clip-rule="evenodd" d="M476.5 2.5C476.833 2.5 477.167 2.5 477.5 2.5C536.167 2.5 594.833 2.5 653.5 2.5C663.548 2.763 673.214 4.763 682.5 8.5C683.492 8.328 684.158 8.662 684.5 9.5C685.659 11.25 687.326 12.25 689.5 12.5C689.973 13.906 690.973 14.573 692.5 14.5C697.764 17.099 702.097 20.766 705.5 25.5C705.738 27.404 706.738 28.738 708.5 29.5C709.08 31.749 710.413 33.415 712.5 34.5C712.427 36.027 713.094 37.027 714.5 37.5C715.931 38.78 716.598 40.447 716.5 42.5C716.932 43.71 717.599 44.71 718.5 45.5C719.931 46.78 720.598 48.447 720.5 50.5C720.41 53.152 721.076 55.485 722.5 57.5C723.103 95.828 723.77 134.161 724.5 172.5C726.323 173.747 728.323 174.414 730.5 174.5C733.317 175.095 735.65 176.428 737.5 178.5C737.973 179.906 738.973 180.573 740.5 180.5C740.973 181.906 741.973 182.573 743.5 182.5C747.167 186.833 751.167 190.833 755.5 194.5C756.08 196.749 757.413 198.415 759.5 199.5C759.427 201.027 760.094 202.027 761.5 202.5C762.674 203.514 763.34 204.847 763.5 206.5C763.992 208.819 764.992 210.819 766.5 212.5C766.402 214.553 767.069 216.22 768.5 217.5C769.301 219.042 769.634 220.708 769.5 222.5C769.759 228.167 770.092 233.834 770.5 239.5C769.58 254.491 768.913 269.491 768.5 284.5C762.802 370.665 757.302 456.998 752 543.5C750.084 574.15 748.584 604.816 747.5 635.5C747.5 635.833 747.5 636.167 747.5 636.5C744.783 645.304 741.45 653.971 737.5 662.5C732.233 669.106 726.566 675.439 720.5 681.5C720.5 682.167 720.167 682.5 719.5 682.5C716.802 682.845 714.802 684.178 713.5 686.5C712.101 687.89 710.434 688.89 708.5 689.5C706.181 689.992 704.181 690.992 702.5 692.5C701.486 693.674 700.153 694.34 698.5 694.5C691.946 695.721 685.612 697.387 679.5 699.5C675.548 700.196 671.548 700.696 667.5 701C478.833 701.667 290.167 701.667 101.5 701C97.748 700.76 94.081 700.26 90.5 699.5C88.162 697.96 85.495 697.294 82.5 697.5C80.044 695.132 77.044 694.132 73.5 694.5C70.485 692.326 67.151 690.659 63.5 689.5C61.853 687.674 59.853 686.34 57.5 685.5C57.027 684.094 56.027 683.427 54.5 683.5C53.415 681.413 51.749 680.08 49.5 679.5C48.167 677.5 46.5 675.833 44.5 674.5C43.167 673.833 42.167 672.833 41.5 671.5C41.262 669.596 40.262 668.262 38.5 667.5C37.833 667.5 37.5 667.167 37.5 666.5C37.573 664.973 36.906 663.973 35.5 663.5C31.36 655.398 28.027 647.065 25.5 638.5C19.873 544.512 14.373 450.512 9 356.5C7.727 333.299 5.893 310.299 3.5 287.5C3.5 287.167 3.5 286.833 3.5 286.5C3.277 268.482 2.61 250.482 1.5 232.5C2.493 227.284 3.493 221.951 4.5 216.5C4.263 215.209 4.596 214.209 5.5 213.5C7.625 210.912 8.958 207.912 9.5 204.5C10.906 204.027 11.573 203.027 11.5 201.5C13.262 200.738 14.262 199.404 14.5 197.5C16.587 196.415 17.92 194.749 18.5 192.5C18.328 191.508 18.662 190.842 19.5 190.5C19.833 191.833 20.167 191.833 20.5 190.5C22.5 189.167 24.167 187.5 25.5 185.5C27.404 185.262 28.738 184.262 29.5 182.5C32.161 179.498 35.495 177.498 39.5 176.5C42.241 176.293 44.574 175.293 46.5 173.5C48.5 173.167 50.5 172.833 52.5 172.5C52.5 162.5 52.5 152.5 52.5 142.5C52.194 139.615 52.527 136.948 53.5 134.5C55.04 132.162 55.706 129.495 55.5 126.5C57.182 119.471 60.182 113.138 64.5 107.5C65.906 107.027 66.573 106.027 66.5 104.5C67.906 104.027 68.573 103.027 68.5 101.5C69.833 100.167 71.167 98.833 72.5 97.5C73.833 96.833 74.833 95.833 75.5 94.5C77.167 93.5 78.5 92.167 79.5 90.5C80.167 89.833 80.833 89.167 81.5 88.5C83.404 88.262 84.738 87.262 85.5 85.5C86.659 83.75 88.326 82.75 90.5 82.5C93.485 81.674 96.151 80.341 98.5 78.5C99.78 77.069 101.447 76.402 103.5 76.5C106.495 76.706 109.162 76.04 111.5 74.5C111.833 74.5 112.167 74.5 112.5 74.5C201.157 73.69 289.823 73.19 378.5 73C380.382 72.802 382.048 72.302 383.5 71.5C383.833 71.5 384.167 71.5 384.5 71.5C388.272 71.116 391.272 69.45 393.5 66.5C397.833 64.167 401.167 60.833 403.5 56.5C404.272 55.306 405.272 54.306 406.5 53.5C418.167 42.5 429.5 31.167 440.5 19.5C441.167 19.5 441.5 19.167 441.5 18.5C443.404 18.262 444.738 17.262 445.5 15.5C447.027 15.573 448.027 14.906 448.5 13.5C450.027 13.573 451.027 12.906 451.5 11.5C453.153 11.34 454.486 10.674 455.5 9.5C459.165 9.498 462.165 8.165 464.5 5.5C468.837 5.416 472.837 4.416 476.5 2.5ZM482.5 52.5C540.5 52.5 598.5 52.5 656.5 52.5C658.291 53.391 660.124 54.391 662 55.5C662.399 55.272 662.565 54.938 662.5 54.5C664.808 56.471 667.142 58.471 669.5 60.5C669.427 62.027 670.094 63.027 671.5 63.5C671.491 65.308 671.991 66.975 673 68.5C673.5 100.832 673.667 133.165 673.5 165.5C556.5 165.5 439.5 165.5 322.5 165.5C249.167 165.5 175.833 165.5 102.5 165.5C102.5 160.5 102.5 155.5 102.5 150.5C103.401 146.263 104.401 141.93 105.5 137.5C107.107 133.922 109.44 130.922 112.5 128.5C117.203 126.1 122.203 124.6 127.5 124C215.167 123.667 302.833 123.333 390.5 123C394.868 122.707 398.868 121.54 402.5 119.5C403.492 119.672 404.158 119.338 404.5 118.5C407.241 118.293 409.574 117.293 411.5 115.5C413.027 115.573 414.027 114.906 414.5 113.5C416.027 113.573 417.027 112.906 417.5 111.5C418.5 111.167 419.167 110.5 419.5 109.5C421.749 108.92 423.415 107.587 424.5 105.5C428.167 102.5 431.5 99.167 434.5 95.5C436.167 94.5 437.5 93.167 438.5 91.5C441.243 89.761 443.243 87.427 444.5 84.5C447.833 83.167 450.167 80.833 451.5 77.5C459.186 70.131 466.519 63.131 473.5 56.5C476.686 55.403 479.686 54.07 482.5 52.5ZM696.5 217.5C699.215 219.072 702.215 220.072 705.5 220.5C705.842 221.338 706.508 221.672 707.5 221.5C708.262 223.262 709.596 224.262 711.5 224.5C711.833 225.5 712.5 226.167 713.5 226.5C715.954 230.15 717.787 234.15 719 238.5C719.5 247.494 719.666 256.494 719.5 265.5C719.5 266.167 719.5 266.833 719.5 267.5C718.35 278.318 717.684 289.318 717.5 300.5C713.637 356.109 710.304 411.776 707.5 467.5C706.287 478.315 705.621 489.315 705.5 500.5C704.512 505.64 704.179 510.974 704.5 516.5C703.179 526.974 702.512 537.641 702.5 548.5C701.214 559.978 700.547 571.645 700.5 583.5C700.5 584.167 700.5 584.833 700.5 585.5C699.678 600.748 698.345 616.082 696.5 631.5C695.326 632.514 694.66 633.847 694.5 635.5C693.094 635.973 692.427 636.973 692.5 638.5C690.167 640.167 688.167 642.167 686.5 644.5C684.973 644.427 683.973 645.094 683.5 646.5C682.508 646.328 681.842 646.662 681.5 647.5C676.685 648.704 671.852 649.704 667 650.5C476.964 650.831 286.797 650.497 96.5 649.5C94.491 647.935 92.157 646.935 89.5 646.5C89.027 645.094 88.027 644.427 86.5 644.5C86.5 643.833 86.167 643.5 85.5 643.5C84.167 641.5 82.5 639.833 80.5 638.5C79.833 637.5 79.167 636.5 78.5 635.5C77.342 632.011 76.009 628.678 74.5 625.5C74.16 616.326 73.493 607.326 72.5 598.5C71.673 573.778 70.34 549.112 68.5 524.5C68.406 514.311 67.739 504.311 66.5 494.5C66.5 493.833 66.5 493.167 66.5 492.5C66.355 483.312 65.689 474.312 64.5 465.5C64.674 458.465 64.341 451.465 63.5 444.5C63.443 434.641 62.776 424.974 61.5 415.5C60.567 387.638 58.9 359.971 56.5 332.5C56.238 316.303 55.238 300.303 53.5 284.5C53.736 276.458 53.403 268.458 52.5 260.5C51.86 250.61 52.86 240.943 55.5 231.5C56.401 230.71 57.068 229.71 57.5 228.5C59.833 226.833 61.833 224.833 63.5 222.5C65.027 222.573 66.027 221.906 66.5 220.5C69.843 219.776 73.176 218.943 76.5 218C283.166 217.5 489.833 217.333 696.5 217.5Z" fill="#959595"/>
<path opacity="0.698" fill-rule="evenodd" clip-rule="evenodd" d="M464.5 5.5C462.165 8.165 459.165 9.498 455.5 9.5C458.088 7.375 461.088 6.042 464.5 5.5Z" fill="#959595"/>
<path opacity="0.192" fill-rule="evenodd" clip-rule="evenodd" d="M455.5 9.50001C454.486 10.674 453.153 11.34 451.5 11.5C452.287 9.89601 453.62 9.22901 455.5 9.50001Z" fill="#DCE1E2"/>
<path opacity="0.09" fill-rule="evenodd" clip-rule="evenodd" d="M684.5 9.5C686.674 9.75 688.341 10.75 689.5 12.5C687.326 12.25 685.659 11.25 684.5 9.5Z" fill="#DCDFDE"/>
<path opacity="0.235" fill-rule="evenodd" clip-rule="evenodd" d="M451.5 11.5C451.027 12.906 450.027 13.573 448.5 13.5C448.973 12.094 449.973 11.427 451.5 11.5Z" fill="#959595"/>
<path opacity="0.016" fill-rule="evenodd" clip-rule="evenodd" d="M689.5 12.5C691.027 12.427 692.027 13.094 692.5 14.5C690.973 14.573 689.973 13.906 689.5 12.5Z" fill="#E8E9E8"/>
<path opacity="0.259" fill-rule="evenodd" clip-rule="evenodd" d="M448.5 13.5C448.027 14.906 447.027 15.573 445.5 15.5C445.973 14.094 446.973 13.427 448.5 13.5Z" fill="#959595"/>
<path opacity="0.231" fill-rule="evenodd" clip-rule="evenodd" d="M445.5 15.5C444.738 17.262 443.404 18.262 441.5 18.5C442.262 16.738 443.596 15.738 445.5 15.5Z" fill="#959595"/>
<path opacity="0.263" fill-rule="evenodd" clip-rule="evenodd" d="M705.5 25.5C707.262 26.262 708.262 27.596 708.5 29.5C706.738 28.738 705.738 27.404 705.5 25.5Z" fill="#959595"/>
<path opacity="0.169" fill-rule="evenodd" clip-rule="evenodd" d="M708.5 29.5C710.587 30.585 711.92 32.251 712.5 34.5C710.413 33.415 709.08 31.749 708.5 29.5Z" fill="#959595"/>
<path opacity="0.353" fill-rule="evenodd" clip-rule="evenodd" d="M440.5 19.5C429.5 31.167 418.167 42.5 406.5 53.5C416.577 41.92 427.243 30.753 438.5 20C439.094 19.536 439.761 19.369 440.5 19.5Z" fill="#959595"/>
<path opacity="0.192" fill-rule="evenodd" clip-rule="evenodd" d="M712.5 34.5C713.906 34.973 714.573 35.973 714.5 37.5C713.094 37.027 712.427 36.027 712.5 34.5Z" fill="#DCE0DE"/>
<path opacity="0.024" fill-rule="evenodd" clip-rule="evenodd" d="M716.5 42.5C718.048 42.821 718.715 43.821 718.5 45.5C717.599 44.71 716.932 43.71 716.5 42.5Z" fill="#959595"/>
<path opacity="0.082" fill-rule="evenodd" clip-rule="evenodd" d="M482.5 52.5C479.686 54.07 476.686 55.403 473.5 56.5C475.835 53.835 478.835 52.502 482.5 52.5Z" fill="#E9E9E7"/>
<path opacity="0.016" fill-rule="evenodd" clip-rule="evenodd" d="M656.5 52.5C658.898 52.259 660.898 52.926 662.5 54.5C662.565 54.938 662.399 55.272 662 55.5C660.124 54.391 658.291 53.391 656.5 52.5Z" fill="#E1E4DF"/>
<path opacity="0.071" fill-rule="evenodd" clip-rule="evenodd" d="M720.5 50.5C721.924 52.515 722.59 54.848 722.5 57.5C721.076 55.485 720.41 53.152 720.5 50.5Z" fill="#959595"/>
<path opacity="0.306" fill-rule="evenodd" clip-rule="evenodd" d="M403.5 56.5C401.167 60.833 397.833 64.167 393.5 66.5C396.5 62.833 399.833 59.5 403.5 56.5Z" fill="#959595"/>
<path opacity="0.016" fill-rule="evenodd" clip-rule="evenodd" d="M669.5 60.5C670.906 60.973 671.573 61.973 671.5 63.5C670.094 63.027 669.427 62.027 669.5 60.5Z" fill="#E6E4DF"/>
<path opacity="0.243" fill-rule="evenodd" clip-rule="evenodd" d="M393.5 66.5C391.272 69.45 388.272 71.116 384.5 71.5C387.331 69.583 390.331 67.917 393.5 66.5Z" fill="#959595"/>
<path opacity="0.191" fill-rule="evenodd" clip-rule="evenodd" d="M383.5 71.5C382.048 72.302 380.382 72.802 378.5 73C289.823 73.19 201.157 73.69 112.5 74.5C114.631 73.686 116.964 73.186 119.5 73C207.789 72.809 295.789 72.309 383.5 71.5Z" fill="#959595"/>
<path opacity="0.388" fill-rule="evenodd" clip-rule="evenodd" d="M111.5 74.5C109.162 76.04 106.495 76.706 103.5 76.5C105.905 75.232 108.572 74.565 111.5 74.5Z" fill="#959595"/>
<path opacity="0.325" fill-rule="evenodd" clip-rule="evenodd" d="M497.5 75.5C496.486 76.674 495.153 77.34 493.5 77.5C494.287 75.896 495.62 75.229 497.5 75.5Z" fill="#959595"/>
<path opacity="0.998" fill-rule="evenodd" clip-rule="evenodd" d="M635.5 77.5C636.167 78.833 637.167 79.833 638.5 80.5C639.344 84.099 639.677 87.766 639.5 91.5C638.422 94.908 636.089 96.908 632.5 97.5C587.833 97.5 543.167 97.5 498.5 97.5C498.167 97.5 497.833 97.5 497.5 97.5C496.791 96.596 495.791 96.263 494.5 96.5C493.5 94.833 492.167 93.5 490.5 92.5C489.793 89.214 489.46 85.881 489.5 82.5C489.328 81.508 489.662 80.842 490.5 80.5C491.833 79.833 492.833 78.833 493.5 77.5C495.153 77.34 496.486 76.674 497.5 75.5C541.762 74.339 586.096 74.173 630.5 75C632.653 75.099 634.319 75.933 635.5 77.5Z" fill="#959595"/>
<path opacity="0.01" fill-rule="evenodd" clip-rule="evenodd" d="M635.5 77.5C637.5 77.5 638.5 78.5 638.5 80.5C637.167 79.833 636.167 78.833 635.5 77.5Z" fill="#E4E5E4"/>
<path opacity="0.118" fill-rule="evenodd" clip-rule="evenodd" d="M493.5 77.5C492.833 78.833 491.833 79.833 490.5 80.5C490.5 78.5 491.5 77.5 493.5 77.5Z" fill="#E3E5DA"/>
<path opacity="0.024" fill-rule="evenodd" clip-rule="evenodd" d="M451.5 77.5C450.167 80.833 447.833 83.167 444.5 84.5C446.5 81.833 448.833 79.5 451.5 77.5Z" fill="#E2E6E2"/>
<path opacity="0.09" fill-rule="evenodd" clip-rule="evenodd" d="M98.5 78.5C96.151 80.341 93.485 81.674 90.5 82.5C92.579 80.127 95.246 78.794 98.5 78.5Z" fill="#959595"/>
<path opacity="0.133" fill-rule="evenodd" clip-rule="evenodd" d="M722.5 57.5C723.309 59.292 723.809 61.292 724 63.5C724.333 99.167 724.667 134.833 725 170.5C726.812 171.977 728.645 173.31 730.5 174.5C728.323 174.414 726.323 173.747 724.5 172.5C723.77 134.161 723.103 95.828 722.5 57.5Z" fill="#959595"/>
<path opacity="0.192" fill-rule="evenodd" clip-rule="evenodd" d="M85.5 85.5C84.738 87.262 83.404 88.262 81.5 88.5C82.262 86.738 83.596 85.738 85.5 85.5Z" fill="#959595"/>
<path opacity="0.012" fill-rule="evenodd" clip-rule="evenodd" d="M444.5 84.5C443.243 87.427 441.243 89.761 438.5 91.5C439.757 88.573 441.757 86.239 444.5 84.5Z" fill="#D9DDDC"/>
<path opacity="0.047" fill-rule="evenodd" clip-rule="evenodd" d="M489.5 82.5C489.46 85.881 489.793 89.214 490.5 92.5C489.028 90.883 488.361 88.883 488.5 86.5C488.511 84.955 488.844 83.622 489.5 82.5Z" fill="#E9E5E6"/>
<path fill-rule="evenodd" clip-rule="evenodd" d="M626.5 90.5C584.862 91.65 543.196 91.817 501.5 91C499.579 90.64 497.912 89.806 496.5 88.5C495.177 86.796 495.51 85.463 497.5 84.5C498.386 85.325 498.719 86.325 498.5 87.5C541.167 87.5 583.833 87.5 626.5 87.5C626.5 88.5 626.5 89.5 626.5 90.5Z" fill="#959595"/>
<path opacity="0.063" fill-rule="evenodd" clip-rule="evenodd" d="M638.5 80.5C641.858 83.937 642.191 87.603 639.5 91.5C639.677 87.766 639.344 84.099 638.5 80.5Z" fill="#959595"/>
<path opacity="0.176" fill-rule="evenodd" clip-rule="evenodd" d="M79.5 90.5C78.5 92.167 77.167 93.5 75.5 94.5C75.833 92.167 77.167 90.833 79.5 90.5Z" fill="#959595"/>
<path opacity="0.024" fill-rule="evenodd" clip-rule="evenodd" d="M438.5 91.5C437.5 93.167 436.167 94.5 434.5 95.5C434.833 93.167 436.167 91.833 438.5 91.5Z" fill="#D8DADA"/>
<path opacity="0.024" fill-rule="evenodd" clip-rule="evenodd" d="M490.5 92.5C492.167 93.5 493.5 94.833 494.5 96.5C492.167 96.167 490.833 94.833 490.5 92.5Z" fill="#DDDEDF"/>
<path fill-rule="evenodd" clip-rule="evenodd" d="M626.5 90.5C629.028 89.601 631.528 88.601 634 87.5C636.706 91.454 635.706 93.787 631 94.5C627.917 92.943 626.417 93.61 626.5 96.5C583.832 96.667 541.165 96.5 498.5 96C494.246 95.338 493.58 93.505 496.5 90.5C518.185 91.823 540.019 92.489 562 92.5C583.844 92.5 605.344 91.833 626.5 90.5Z" fill="#959595"/>
<path opacity="0.137" fill-rule="evenodd" clip-rule="evenodd" d="M75.5 94.5C74.833 95.833 73.833 96.833 72.5 97.5C72.5 95.5 73.5 94.5 75.5 94.5Z" fill="#959595"/>
<path opacity="0.11" fill-rule="evenodd" clip-rule="evenodd" d="M494.5 96.5C495.791 96.263 496.791 96.596 497.5 97.5C497.565 97.938 497.399 98.272 497 98.5C496.005 97.934 495.172 97.267 494.5 96.5Z" fill="#D6D5D7"/>
<path opacity="0.222" fill-rule="evenodd" clip-rule="evenodd" d="M498.5 97.5C543.167 97.5 587.833 97.5 632.5 97.5C587.831 100.013 543.165 100.013 498.5 97.5Z" fill="#D9DCDC"/>
<path opacity="0.122" fill-rule="evenodd" clip-rule="evenodd" d="M68.5 101.5C68.573 103.027 67.906 104.027 66.5 104.5C66.427 102.973 67.094 101.973 68.5 101.5Z" fill="#DAE1DD"/>
<path opacity="0.118" fill-rule="evenodd" clip-rule="evenodd" d="M66.5 104.5C66.573 106.027 65.906 107.027 64.5 107.5C64.427 105.973 65.094 104.973 66.5 104.5Z" fill="#959595"/>
<path opacity="0.012" fill-rule="evenodd" clip-rule="evenodd" d="M424.5 105.5C423.415 107.587 421.749 108.92 419.5 109.5C420.585 107.413 422.251 106.08 424.5 105.5Z" fill="#E2E6E6"/>
<path opacity="0.982" fill-rule="evenodd" clip-rule="evenodd" d="M411.5 114.5C411.5 114.833 411.5 115.167 411.5 115.5C409.574 117.293 407.241 118.293 404.5 118.5C405.765 117.521 407.099 116.521 408.5 115.5C407.359 114.575 407.359 113.741 408.5 113C409.788 112.761 410.788 113.261 411.5 114.5Z" fill="#959595"/>
<path opacity="0.01" fill-rule="evenodd" clip-rule="evenodd" d="M417.5 111.5C417.027 112.906 416.027 113.573 414.5 113.5C414.973 112.094 415.973 111.427 417.5 111.5Z" fill="#F4F7F4"/>
<path opacity="0.01" fill-rule="evenodd" clip-rule="evenodd" d="M414.5 113.5C414.027 114.906 413.027 115.573 411.5 115.5C411.5 115.167 411.5 114.833 411.5 114.5C412.391 113.89 413.391 113.557 414.5 113.5Z" fill="#F5F4F1"/>
<path fill-rule="evenodd" clip-rule="evenodd" d="M386.5 122.5C300.167 122.5 213.833 122.5 127.5 122.5C128.263 121.732 129.263 121.232 130.5 121C130.167 120.667 129.833 120.333 129.5 120C133 119.833 136.5 119.667 140 119.5C221.202 119.528 302.369 119.528 383.5 119.5C385.213 119.879 386.213 120.879 386.5 122.5Z" fill="#959595"/>
<path opacity="0.422" fill-rule="evenodd" clip-rule="evenodd" d="M631.5 122.5C630.167 122.5 628.833 122.5 627.5 122.5C565.167 122.5 502.833 122.5 440.5 122.5C440.167 122.5 439.833 122.5 439.5 122.5C456.991 121.433 474.658 120.767 492.5 120.5C529.213 120.752 565.88 120.752 602.5 120.5C610.5 120.667 618.5 120.833 626.5 121C628.382 121.198 630.048 121.698 631.5 122.5Z" fill="#959595"/>
<path fill-rule="evenodd" clip-rule="evenodd" d="M439.5 122.5C439.833 122.5 440.167 122.5 440.5 122.5C440.783 123.289 441.283 123.956 442 124.5C503.931 123.835 565.764 123.168 627.5 122.5C628.833 122.5 630.167 122.5 631.5 122.5C634.378 123.562 636.378 125.562 637.5 128.5C639.037 136.094 636.37 141.427 629.5 144.5C567.335 145.665 505.001 145.832 442.5 145C441.473 144.487 440.473 143.987 439.5 143.5C433.485 139.355 431.818 133.689 434.5 126.5C435.833 125.833 436.833 124.833 437.5 123.5C437.842 122.662 438.508 122.328 439.5 122.5Z" fill="#959595"/>
<path opacity="0.904" fill-rule="evenodd" clip-rule="evenodd" d="M440.5 122.5C502.833 122.5 565.167 122.5 627.5 122.5C565.764 123.168 503.931 123.835 442 124.5C441.283 123.956 440.783 123.289 440.5 122.5Z" fill="#959595"/>
<path opacity="0.165" fill-rule="evenodd" clip-rule="evenodd" d="M437.5 123.5C436.833 124.833 435.833 125.833 434.5 126.5C434.5 124.5 435.5 123.5 437.5 123.5Z" fill="#959595"/>
<path opacity="0.2" fill-rule="evenodd" clip-rule="evenodd" d="M55.5 126.5C55.706 129.495 55.04 132.162 53.5 134.5C53.565 131.572 54.232 128.905 55.5 126.5Z" fill="#959595"/>
<path opacity="0.078" fill-rule="evenodd" clip-rule="evenodd" d="M434.5 126.5C431.818 133.689 433.485 139.355 439.5 143.5C435.856 143.049 433.356 140.716 432 136.5C431.031 132.594 431.864 129.261 434.5 126.5Z" fill="#959595"/>
<path opacity="0.01" fill-rule="evenodd" clip-rule="evenodd" d="M105.5 137.5C104.401 141.93 103.401 146.263 102.5 150.5C102.5 149.833 102.5 149.167 102.5 148.5C102.126 144.353 103.126 140.686 105.5 137.5Z" fill="#E7E9EA"/>
<path opacity="0.071" fill-rule="evenodd" clip-rule="evenodd" d="M637.5 128.5C639.969 133.825 638.969 138.659 634.5 143C632.975 144.009 631.308 144.509 629.5 144.5C636.37 141.427 639.037 136.094 637.5 128.5Z" fill="#D6DADB"/>
<path opacity="0.14" fill-rule="evenodd" clip-rule="evenodd" d="M102.5 148.5C102.5 149.167 102.5 149.833 102.5 150.5C102.5 155.5 102.5 160.5 102.5 165.5C175.833 165.5 249.167 165.5 322.5 165.5C322.5 165.833 322.5 166.167 322.5 166.5C248.665 166.833 174.998 166.499 101.5 165.5C101.178 159.642 101.511 153.975 102.5 148.5Z" fill="#959595"/>
<path opacity="0.011" fill-rule="evenodd" clip-rule="evenodd" d="M671.5 63.5C672.558 64.6 673.392 65.934 674 67.5C674.5 100.498 674.667 133.498 674.5 166.5C557.167 166.5 439.833 166.5 322.5 166.5C322.5 166.167 322.5 165.833 322.5 165.5C439.5 165.5 556.5 165.5 673.5 165.5C673.667 133.165 673.5 100.832 673 68.5C671.991 66.975 671.491 65.308 671.5 63.5Z" fill="#FCFDF8"/>
<path opacity="0.01" fill-rule="evenodd" clip-rule="evenodd" d="M52.5 142.5C52.5 152.5 52.5 162.5 52.5 172.5C50.5 172.833 48.5 173.167 46.5 173.5C47.848 172.399 49.348 171.399 51 170.5C51.17 160.991 51.67 151.658 52.5 142.5Z" fill="#EEEDE7"/>
<path opacity="0.984" fill-rule="evenodd" clip-rule="evenodd" d="M101.5 165.5C174.998 166.499 248.665 166.833 322.5 166.5C439.833 166.5 557.167 166.5 674.5 166.5C674.5 167.167 674.5 167.833 674.5 168.5C556.999 168.167 439.665 168.5 322.5 169.5C281.276 169.68 239.942 169.68 198.5 169.5C185.198 171.508 171.864 171.508 158.5 169.5C147.83 170.807 137.163 170.807 126.5 169.5C124.318 169.697 122.318 170.364 120.5 171.5C119.833 171.333 119.167 171.167 118.5 171C119.5 170.667 120.5 170.333 121.5 170C113.931 169.038 106.265 168.705 98.5 169C99.833 167.667 99.833 166.333 98.5 165C99.577 164.53 100.577 164.697 101.5 165.5Z" fill="#959595"/>
<path fill-rule="evenodd" clip-rule="evenodd" d="M322.5 169.5C439.665 168.5 556.999 168.167 674.5 168.5C674.938 168.435 675.272 168.601 675.5 169C672.706 171.484 669.373 172.651 665.5 172.5C564.516 172.612 463.516 172.445 362.5 172C349.167 171.667 335.833 171.333 322.5 171C323.738 170.31 323.738 169.81 322.5 169.5Z" fill="#959595"/>
<path fill-rule="evenodd" clip-rule="evenodd" d="M326.5 173.5C365.191 173.165 401.191 173.498 434.5 174.5C434.5 175.5 434.5 176.5 434.5 177.5C397.167 177.5 359.833 177.5 322.5 177.5C322.5 176.5 322.5 175.5 322.5 174.5C324.099 174.768 325.432 174.434 326.5 173.5Z" fill="#959595"/>
<path fill-rule="evenodd" clip-rule="evenodd" d="M463.5 174.5C533.694 173.175 604.027 173.175 674.5 174.5C674.5 175.5 674.5 176.5 674.5 177.5C605.309 177.593 535.975 177.593 466.5 177.5C466.5 176.5 466.5 175.5 466.5 174.5C465.5 174.5 464.5 174.5 463.5 174.5Z" fill="#959595"/>
<path opacity="0.098" fill-rule="evenodd" clip-rule="evenodd" d="M46.5 173.5C44.574 175.293 42.241 176.293 39.5 176.5C41.426 174.707 43.759 173.707 46.5 173.5Z" fill="#959595"/>
<path opacity="0.043" fill-rule="evenodd" clip-rule="evenodd" d="M737.5 178.5C739.027 178.427 740.027 179.094 740.5 180.5C738.973 180.573 737.973 179.906 737.5 178.5Z" fill="#D7D5D0"/>
<path opacity="0.09" fill-rule="evenodd" clip-rule="evenodd" d="M740.5 180.5C742.027 180.427 743.027 181.094 743.5 182.5C741.973 182.573 740.973 181.906 740.5 180.5Z" fill="#E2E6E5"/>
<path opacity="0.282" fill-rule="evenodd" clip-rule="evenodd" d="M29.5 182.5C28.738 184.262 27.404 185.262 25.5 185.5C26.262 183.738 27.596 182.738 29.5 182.5Z" fill="#959595"/>
<path opacity="0.027" fill-rule="evenodd" clip-rule="evenodd" d="M743.5 182.5C748.5 185.5 752.5 189.5 755.5 194.5C751.167 190.833 747.167 186.833 743.5 182.5Z" fill="#DBD8DA"/>
<path opacity="0.078" fill-rule="evenodd" clip-rule="evenodd" d="M25.5 185.5C24.167 187.5 22.5 189.167 20.5 190.5C20.167 190.5 19.833 190.5 19.5 190.5C20.911 188.086 22.911 186.419 25.5 185.5Z" fill="#E9E7E4"/>
<path opacity="0.259" fill-rule="evenodd" clip-rule="evenodd" d="M18.5 192.5C17.92 194.749 16.587 196.415 14.5 197.5C15.08 195.251 16.413 193.585 18.5 192.5Z" fill="#959595"/>
<path opacity="0.137" fill-rule="evenodd" clip-rule="evenodd" d="M755.5 194.5C757.587 195.585 758.92 197.251 759.5 199.5C757.413 198.415 756.08 196.749 755.5 194.5Z" fill="#959595"/>
<path opacity="0.212" fill-rule="evenodd" clip-rule="evenodd" d="M14.5 197.5C14.262 199.404 13.262 200.738 11.5 201.5C11.738 199.596 12.738 198.262 14.5 197.5Z" fill="#959595"/>
<path opacity="0.082" fill-rule="evenodd" clip-rule="evenodd" d="M759.5 199.5C760.906 199.973 761.573 200.973 761.5 202.5C760.094 202.027 759.427 201.027 759.5 199.5Z" fill="#E7E7E4"/>
<path opacity="0.212" fill-rule="evenodd" clip-rule="evenodd" d="M11.5 201.5C11.573 203.027 10.906 204.027 9.50003 204.5C9.42703 202.973 10.094 201.973 11.5 201.5Z" fill="#DFDEDB"/>
<path opacity="0.082" fill-rule="evenodd" clip-rule="evenodd" d="M9.5 204.5C8.958 207.912 7.625 210.912 5.5 213.5C6.042 210.088 7.375 207.088 9.5 204.5Z" fill="#D6DCDA"/>
<path opacity="0.102" fill-rule="evenodd" clip-rule="evenodd" d="M763.5 206.5C765.539 207.911 766.539 209.911 766.5 212.5C764.992 210.819 763.992 208.819 763.5 206.5Z" fill="#959595"/>
<path opacity="0.051" fill-rule="evenodd" clip-rule="evenodd" d="M766.5 212.5C767.931 213.78 768.598 215.447 768.5 217.5C767.069 216.22 766.402 214.553 766.5 212.5Z" fill="#E5E4E0"/>
<path opacity="0.01" fill-rule="evenodd" clip-rule="evenodd" d="M696.5 217.5C699.916 217.528 702.916 218.528 705.5 220.5C702.215 220.072 699.215 219.072 696.5 217.5Z" fill="#F1F0EE"/>
<path opacity="0.02" fill-rule="evenodd" clip-rule="evenodd" d="M66.5 220.5C66.027 221.906 65.027 222.573 63.5 222.5C63.973 221.094 64.973 220.427 66.5 220.5Z" fill="#E8EFED"/>
<path opacity="0.125" fill-rule="evenodd" clip-rule="evenodd" d="M707.5 221.5C709.404 221.738 710.738 222.738 711.5 224.5C709.596 224.262 708.262 223.262 707.5 221.5Z" fill="#DEDEE2"/>
<path opacity="0.341" fill-rule="evenodd" clip-rule="evenodd" d="M4.49997 216.5C3.49297 221.951 2.49297 227.284 1.49997 232.5C1.49997 231.833 1.49997 231.167 1.49997 230.5C1.26497 225.454 2.26497 220.787 4.49997 216.5Z" fill="#959595"/>
<path opacity="0.039" fill-rule="evenodd" clip-rule="evenodd" d="M63.5 222.5C61.833 224.833 59.833 226.833 57.5 228.5C58.5 225.5 60.5 223.5 63.5 222.5Z" fill="#DEDFE1"/>
<path opacity="0.152" fill-rule="evenodd" clip-rule="evenodd" d="M769.5 222.5C771.007 228.427 771.674 234.594 771.5 241C771.052 255.692 770.052 270.192 768.5 284.5C768.913 269.491 769.58 254.491 770.5 239.5C770.092 233.834 769.759 228.167 769.5 222.5Z" fill="#959595"/>
<path opacity="0.014" fill-rule="evenodd" clip-rule="evenodd" d="M713.5 226.5C716.621 229.138 718.788 232.472 720 236.5C720.825 246.342 720.658 256.009 719.5 265.5C719.666 256.494 719.5 247.494 719 238.5C717.787 234.15 715.954 230.15 713.5 226.5Z" fill="#959595"/>
<path opacity="0.038" fill-rule="evenodd" clip-rule="evenodd" d="M55.5 231.5C52.86 240.943 51.86 250.61 52.5 260.5C51.345 253.345 51.178 246.012 52 238.5C52.67 235.826 53.837 233.493 55.5 231.5Z" fill="#EBEFF2"/>
<path opacity="0.098" fill-rule="evenodd" clip-rule="evenodd" d="M1.5 230.5C1.5 231.167 1.5 231.833 1.5 232.5C2.61 250.482 3.277 268.482 3.5 286.5C2.09 271.182 1.09 255.682 0.5 240C0.502 236.648 0.835 233.482 1.5 230.5Z" fill="#959595"/>
<path opacity="0.4" fill-rule="evenodd" clip-rule="evenodd" d="M275.5 265.5C270.5 265.5 265.5 265.5 260.5 265.5C265.484 262.992 270.484 262.992 275.5 265.5Z" fill="#959595"/>
<path opacity="0.329" fill-rule="evenodd" clip-rule="evenodd" d="M514.5 266.5C508.545 265.637 502.545 265.303 496.5 265.5C502.57 263.17 508.57 263.504 514.5 266.5Z" fill="#959595"/>
<path fill-rule="evenodd" clip-rule="evenodd" d="M260.5 265.5C265.5 265.5 270.5 265.5 275.5 265.5C284.565 268.374 291.899 273.707 297.5 281.5C298.5 283.167 299.833 284.5 301.5 285.5C302.167 286.833 303.167 287.833 304.5 288.5C305.585 290.587 307.251 291.92 309.5 292.5C310.5 292.833 311.167 293.5 311.5 294.5C312.167 297.167 313.833 298.833 316.5 299.5C325.779 308.113 334.779 317.113 343.5 326.5C344.167 327.833 345.167 328.833 346.5 329.5C347.833 330.167 348.833 331.167 349.5 332.5C350.167 333.833 351.167 334.833 352.5 335.5C352.833 335.5 353.167 335.5 353.5 335.5C354.08 337.749 355.413 339.415 357.5 340.5C367.138 349.637 376.638 358.971 386 368.5C405.545 349.291 425.045 329.958 444.5 310.5C457.448 299.22 469.781 287.22 481.5 274.5C485.231 269.445 490.231 266.445 496.5 265.5C502.545 265.303 508.545 265.637 514.5 266.5C519.88 268.855 524.546 272.188 528.5 276.5C531.167 281.167 534.833 284.833 539.5 287.5C545.167 292.5 550.5 297.833 555.5 303.5C558.5 307.167 561.833 310.5 565.5 313.5C565.427 315.027 566.094 316.027 567.5 316.5C567.66 318.153 568.326 319.486 569.5 320.5C570.164 325.473 570.497 330.473 570.5 335.5C570.737 336.791 570.404 337.791 569.5 338.5C568.326 339.514 567.66 340.847 567.5 342.5C566.094 342.973 565.427 343.973 565.5 345.5C565.167 346.5 564.5 347.167 563.5 347.5C561.856 347.714 560.356 347.38 559 346.5C558.508 347.549 558.674 348.549 559.5 349.5C557.511 349.532 555.511 350.365 553.5 352C554.38 353.356 554.714 354.856 554.5 356.5C554.5 357.167 554.167 357.5 553.5 357.5C547.224 362.107 541.557 367.441 536.5 373.5C534.417 374.029 532.583 375.029 531 376.5C530.586 376.043 530.086 375.709 529.5 375.5C528.459 377.585 526.959 379.252 525 380.5C524.187 382.436 523.687 384.436 523.5 386.5C521.402 385.086 520.402 385.752 520.5 388.5C516.6 387.991 514.267 389.658 513.5 393.5C509.537 395.78 507.204 399.114 506.5 403.5C506.167 404.5 505.5 405.167 504.5 405.5C496.889 411.443 489.889 418.109 483.5 425.5C480.501 429.332 477.001 432.665 473 435.5C472.517 436.448 472.351 437.448 472.5 438.5C473.833 441.833 476.167 444.167 479.5 445.5C485.5 451.5 491.5 457.5 497.5 463.5C497.833 464.5 498.5 465.167 499.5 465.5C499.5 466.167 499.833 466.5 500.5 466.5C500.833 467.5 501.5 468.167 502.5 468.5C503.833 468.5 504.5 469.167 504.5 470.5C505.911 472.914 507.911 474.581 510.5 475.5C511.833 476.167 512.833 477.167 513.5 478.5C513.833 480.833 515.167 482.167 517.5 482.5C524.527 488.86 531.194 495.527 537.5 502.5C541.892 507.894 546.892 512.561 552.5 516.5C556.5 519.833 560.167 523.5 563.5 527.5C564.08 529.749 565.413 531.415 567.5 532.5C568.674 533.514 569.34 534.847 569.5 536.5C571.375 543.834 570.541 550.834 567 557.5C565.745 558.211 564.579 559.044 563.5 560C564.598 560.77 564.598 561.603 563.5 562.5C562.167 563.167 561.167 564.167 560.5 565.5C558.833 566.5 557.5 567.833 556.5 569.5C554.182 573.09 551.182 576.09 547.5 578.5C545.073 578.523 542.74 579.023 540.5 580C541.167 580.333 541.833 580.667 542.5 581C540.981 582.218 539.814 583.718 539 585.5C536.31 583.146 535.81 583.813 537.5 587.5C534.167 590.167 531.167 593.167 528.5 596.5C527.167 597.167 526.167 598.167 525.5 599.5C524.728 600.694 523.728 601.694 522.5 602.5C520.973 602.427 519.973 603.094 519.5 604.5C519.158 605.338 518.492 605.672 517.5 605.5C510.633 607.225 503.633 607.892 496.5 607.5C494.102 607.741 492.102 607.074 490.5 605.5C490.027 604.094 489.027 603.427 487.5 603.5C485.1 600.097 482.1 597.43 478.5 595.5C471.112 587.111 463.112 579.444 454.5 572.5C449.473 568.14 444.806 563.473 440.5 558.5C439.833 557.167 438.833 556.167 437.5 555.5C428.114 545.112 418.114 535.446 407.5 526.5C406.829 525.153 406.829 523.986 407.5 523C405.791 521.084 404.457 518.918 403.5 516.5C400.305 516.222 398.305 514.555 397.5 511.5C396.264 512.246 394.93 512.579 393.5 512.5C391.167 510.833 389.167 508.833 387.5 506.5C386.5 503.833 385.5 503.833 384.5 506.5C382.833 508.167 381.167 509.833 379.5 511.5C375.833 511.833 373.833 513.833 373.5 517.5C373.5 518.167 373.167 518.5 372.5 518.5C370.488 517.986 368.488 517.82 366.5 518C366.167 518.333 365.833 518.667 365.5 519C367.007 519.837 367.507 521.004 367 522.5C365.348 523.217 363.848 523.55 362.5 523.5C363.025 524.192 363.692 524.692 364.5 525C363.748 525.671 363.414 526.504 363.5 527.5C361.5 527.5 360.5 528.5 360.5 530.5C357.833 531.167 356.167 532.833 355.5 535.5C349.892 539.439 344.892 544.106 340.5 549.5C339.833 549.5 339.5 549.833 339.5 550.5C335.5 553.833 331.833 557.5 328.5 561.5C327.883 561.389 327.383 561.056 327 560.5C325.577 562.504 323.744 564.004 321.5 565C322.34 566.666 321.84 566.833 320 565.5C318.54 567.422 316.873 568.089 315 567.5C315 568.833 315 570.167 315 571.5C311.801 570.764 311.635 571.597 314.5 574C313.437 575.188 312.103 575.688 310.5 575.5C310.5 576.833 310.5 578.167 310.5 579.5C306.229 582.101 302.563 585.434 299.5 589.5C298.167 590.167 297.167 591.167 296.5 592.5C296.5 593.167 296.167 593.5 295.5 593.5C291.84 594.193 288.173 595.026 284.5 596C286.936 597.596 287.436 599.429 286 601.5C285.311 600.643 284.478 599.977 283.5 599.5C283.421 601.128 283.088 602.795 282.5 604.5C280.518 605.817 278.518 605.817 276.5 604.5C274.84 605.172 273.507 606.172 272.5 607.5C267.13 607.608 261.797 607.275 256.5 606.5C254.847 606.34 253.514 605.674 252.5 604.5C251.738 602.738 250.404 601.738 248.5 601.5C247.5 601.167 246.833 600.5 246.5 599.5C239.778 591.776 232.445 584.776 224.5 578.5C222.167 576.833 220.167 574.833 218.5 572.5C215.167 568.5 211.5 564.833 207.5 561.5C207.167 560.5 206.5 559.833 205.5 559.5C205.573 557.973 204.906 556.973 203.5 556.5C203.167 554.5 202.833 552.5 202.5 550.5C202.413 545.463 202.746 540.463 203.5 535.5C204.353 531.98 206.353 529.313 209.5 527.5C210.833 526.833 211.833 525.833 212.5 524.5C213.5 522.833 214.833 521.5 216.5 520.5C224.085 514.585 231.085 507.918 237.5 500.5C237.5 499.833 237.833 499.5 238.5 499.5C242.5 496.167 246.167 492.5 249.5 488.5C251.833 486.833 253.833 484.833 255.5 482.5C269.76 467.739 284.26 453.072 299 438.5C299.667 437.833 299.667 437.167 299 436.5C295.601 433.271 292.435 429.938 289.5 426.5C289.167 425.5 288.5 424.833 287.5 424.5C285.167 421.5 282.5 418.833 279.5 416.5C275.441 411.438 270.774 407.105 265.5 403.5C259.86 398.527 254.527 393.194 249.5 387.5C242.112 379.111 234.112 371.444 225.5 364.5C221.473 361.14 217.806 357.473 214.5 353.5C213.833 352.167 212.833 351.167 211.5 350.5C210.833 349.167 209.833 348.167 208.5 347.5C200.259 339.19 198.425 329.524 203 318.5C204.049 316.382 205.549 314.716 207.5 313.5C208.5 313.167 209.167 312.5 209.5 311.5C216.5 305.167 223.167 298.5 229.5 291.5C236.5 285.167 243.167 278.5 249.5 271.5C252.4 268.214 256.067 266.214 260.5 265.5Z" fill="#959595"/>
<path opacity="0.447" fill-rule="evenodd" clip-rule="evenodd" d="M528.5 276.5C532.5 279.833 536.167 283.5 539.5 287.5C534.833 284.833 531.167 281.167 528.5 276.5Z" fill="#959595"/>
<path opacity="0.012" fill-rule="evenodd" clip-rule="evenodd" d="M297.5 281.5C299.833 281.833 301.167 283.167 301.5 285.5C299.833 284.5 298.5 283.167 297.5 281.5Z" fill="#E2E3E3"/>
<path opacity="0.01" fill-rule="evenodd" clip-rule="evenodd" d="M301.5 285.5C303.5 285.5 304.5 286.5 304.5 288.5C303.167 287.833 302.167 286.833 301.5 285.5Z" fill="#DEDDE0"/>
<path opacity="0.365" fill-rule="evenodd" clip-rule="evenodd" d="M719.5 267.5C719.725 278.706 719.058 289.706 717.5 300.5C717.684 289.318 718.35 278.318 719.5 267.5Z" fill="#959595"/>
<path opacity="0.192" fill-rule="evenodd" clip-rule="evenodd" d="M249.5 271.5C243.167 278.5 236.5 285.167 229.5 291.5C229.369 290.761 229.536 290.094 230 289.5C236.09 282.904 242.59 276.904 249.5 271.5Z" fill="#D7DCDB"/>
<path opacity="0.02" fill-rule="evenodd" clip-rule="evenodd" d="M304.5 288.5C306.749 289.08 308.415 290.413 309.5 292.5C307.251 291.92 305.585 290.587 304.5 288.5Z" fill="#959595"/>
<path opacity="0.392" fill-rule="evenodd" clip-rule="evenodd" d="M311.5 294.5C313.5 295.833 315.167 297.5 316.5 299.5C313.833 298.833 312.167 297.167 311.5 294.5Z" fill="#959595"/>
<path opacity="0.38" fill-rule="evenodd" clip-rule="evenodd" d="M481.5 274.5C469.781 287.22 457.448 299.22 444.5 310.5C456.219 297.78 468.552 285.78 481.5 274.5Z" fill="#959595"/>
<path opacity="0.027" fill-rule="evenodd" clip-rule="evenodd" d="M555.5 303.5C559.833 305.833 563.167 309.167 565.5 313.5C561.833 310.5 558.5 307.167 555.5 303.5Z" fill="#E3E7EA"/>
<path opacity="0.071" fill-rule="evenodd" clip-rule="evenodd" d="M53.5 284.5C55.238 300.303 56.238 316.303 56.5 332.5C54.845 316.692 53.845 300.692 53.5 284.5Z" fill="#DFE2E4"/>
<path opacity="0.196" fill-rule="evenodd" clip-rule="evenodd" d="M229.5 291.5C223.167 298.5 216.5 305.167 209.5 311.5C209.369 310.761 209.536 310.094 210 309.5C216.09 302.904 222.59 296.904 229.5 291.5Z" fill="#959595"/>
<path opacity="0.078" fill-rule="evenodd" clip-rule="evenodd" d="M209.5 311.5C209.167 312.5 208.5 313.167 207.5 313.5C207.5 312.167 208.167 311.5 209.5 311.5Z" fill="#DADBDC"/>
<path opacity="0.071" fill-rule="evenodd" clip-rule="evenodd" d="M565.5 313.5C566.906 313.973 567.573 314.973 567.5 316.5C566.094 316.027 565.427 315.027 565.5 313.5Z" fill="#D6D8D7"/>
<path opacity="0.094" fill-rule="evenodd" clip-rule="evenodd" d="M567.5 316.5C569.104 317.287 569.771 318.62 569.5 320.5C568.326 319.486 567.66 318.153 567.5 316.5Z" fill="#D6D7D3"/>
<path opacity="0.01" fill-rule="evenodd" clip-rule="evenodd" d="M343.5 326.5C345.5 326.5 346.5 327.5 346.5 329.5C345.167 328.833 344.167 327.833 343.5 326.5Z" fill="#959595"/>
<path opacity="0.086" fill-rule="evenodd" clip-rule="evenodd" d="M569.5 320.5C570.913 323.382 571.579 326.549 571.5 330C571.494 332.033 571.161 333.866 570.5 335.5C570.497 330.473 570.164 325.473 569.5 320.5Z" fill="#959595"/>
<path opacity="0.01" fill-rule="evenodd" clip-rule="evenodd" d="M349.5 332.5C351.5 332.5 352.5 333.5 352.5 335.5C351.167 334.833 350.167 333.833 349.5 332.5Z" fill="#959595"/>
<path opacity="0.192" fill-rule="evenodd" clip-rule="evenodd" d="M353.5 335.5C355.587 336.585 356.92 338.251 357.5 340.5C355.413 339.415 354.08 337.749 353.5 335.5Z" fill="#959595"/>
<path opacity="0.012" fill-rule="evenodd" clip-rule="evenodd" d="M569.5 338.5C569.771 340.38 569.104 341.713 567.5 342.5C567.66 340.847 568.326 339.514 569.5 338.5Z" fill="#E3E8EA"/>
<path opacity="0.024" fill-rule="evenodd" clip-rule="evenodd" d="M567.5 342.5C567.573 344.027 566.906 345.027 565.5 345.5C565.427 343.973 566.094 342.973 567.5 342.5Z" fill="#E0E4E7"/>
<path opacity="0.01" fill-rule="evenodd" clip-rule="evenodd" d="M208.5 347.5C209.833 348.167 210.833 349.167 211.5 350.5C209.5 350.5 208.5 349.5 208.5 347.5Z" fill="#E0E4DF"/>
<path opacity="0.945" fill-rule="evenodd" clip-rule="evenodd" d="M563.5 347.5C560.833 350.833 557.833 353.833 554.5 356.5C554.714 354.856 554.38 353.356 553.5 352C555.511 350.365 557.511 349.532 559.5 349.5C558.674 348.549 558.508 347.549 559 346.5C560.356 347.38 561.856 347.714 563.5 347.5Z" fill="#959595"/>
<path opacity="0.01" fill-rule="evenodd" clip-rule="evenodd" d="M211.5 350.5C212.833 351.167 213.833 352.167 214.5 353.5C212.5 353.5 211.5 352.5 211.5 350.5Z" fill="#EBEDE6"/>
<path opacity="0.024" fill-rule="evenodd" clip-rule="evenodd" d="M553.5 357.5C548.443 363.559 542.776 368.893 536.5 373.5C541.557 367.441 547.224 362.107 553.5 357.5Z" fill="#DDE1E2"/>
<path opacity="0.961" fill-rule="evenodd" clip-rule="evenodd" d="M536.5 373.5C532.548 378.119 528.215 382.452 523.5 386.5C523.687 384.436 524.187 382.436 525 380.5C526.959 379.252 528.459 377.585 529.5 375.5C530.086 375.709 530.586 376.043 531 376.5C532.583 375.029 534.417 374.029 536.5 373.5Z" fill="#959595"/>
<path opacity="0.973" fill-rule="evenodd" clip-rule="evenodd" d="M523.5 386.5C518.167 392.5 512.5 398.167 506.5 403.5C507.204 399.114 509.537 395.78 513.5 393.5C514.267 389.658 516.6 387.991 520.5 388.5C520.402 385.752 521.402 385.086 523.5 386.5Z" fill="#959595"/>
<path opacity="0.4" fill-rule="evenodd" clip-rule="evenodd" d="M265.5 403.5C270.774 407.105 275.441 411.438 279.5 416.5C274.226 412.895 269.559 408.562 265.5 403.5Z" fill="#959595"/>
<path opacity="0.027" fill-rule="evenodd" clip-rule="evenodd" d="M279.5 416.5C282.5 418.833 285.167 421.5 287.5 424.5C283.833 422.833 281.167 420.167 279.5 416.5Z" fill="#DEE2E1"/>
<path opacity="0.046" fill-rule="evenodd" clip-rule="evenodd" d="M504.5 405.5C498.111 412.891 491.111 419.557 483.5 425.5C489.889 418.109 496.889 411.443 504.5 405.5Z" fill="#E5E9EB"/>
<path opacity="0.102" fill-rule="evenodd" clip-rule="evenodd" d="M3.5 287.5C5.893 310.299 7.727 333.299 9 356.5C14.373 450.512 19.873 544.512 25.5 638.5C17.238 521.715 9.904 404.715 3.5 287.5Z" fill="#959595"/>
<path opacity="0.01" fill-rule="evenodd" clip-rule="evenodd" d="M287.5 424.5C288.5 424.833 289.167 425.5 289.5 426.5C288.167 426.5 287.5 425.833 287.5 424.5Z" fill="#E9ECEF"/>
<path opacity="0.071" fill-rule="evenodd" clip-rule="evenodd" d="M61.5 415.5C62.776 424.974 63.443 434.641 63.5 444.5C61.86 435.05 61.193 425.384 61.5 415.5Z" fill="#959595"/>
<path opacity="0.431" fill-rule="evenodd" clip-rule="evenodd" d="M472.5 438.5C475.167 440.5 477.5 442.833 479.5 445.5C476.167 444.167 473.833 441.833 472.5 438.5Z" fill="#959595"/>
<path opacity="0.059" fill-rule="evenodd" clip-rule="evenodd" d="M768.5 284.5C762.563 401.718 755.563 518.718 747.5 635.5C748.584 604.816 750.084 574.15 752 543.5C757.302 456.998 762.802 370.665 768.5 284.5Z" fill="#D9DBDB"/>
<path opacity="0.01" fill-rule="evenodd" clip-rule="evenodd" d="M497.5 463.5C498.833 463.5 499.5 464.167 499.5 465.5C498.5 465.167 497.833 464.5 497.5 463.5Z" fill="#E1E0E6"/>
<path opacity="0.01" fill-rule="evenodd" clip-rule="evenodd" d="M500.5 466.5C501.833 466.5 502.5 467.167 502.5 468.5C501.5 468.167 500.833 467.5 500.5 466.5Z" fill="#DCDCE1"/>
<path opacity="0.016" fill-rule="evenodd" clip-rule="evenodd" d="M504.5 470.5C507.089 471.419 509.089 473.086 510.5 475.5C507.911 474.581 505.911 472.914 504.5 470.5Z" fill="#959595"/>
<path opacity="0.235" fill-rule="evenodd" clip-rule="evenodd" d="M513.5 478.5C515.167 479.5 516.5 480.833 517.5 482.5C515.167 482.167 513.833 480.833 513.5 478.5Z" fill="#959595"/>
<path opacity="0.2" fill-rule="evenodd" clip-rule="evenodd" d="M255.5 482.5C253.833 484.833 251.833 486.833 249.5 488.5C250.5 485.5 252.5 483.5 255.5 482.5Z" fill="#959595"/>
<path opacity="0.056" fill-rule="evenodd" clip-rule="evenodd" d="M707.5 467.5C707.725 478.706 707.058 489.706 705.5 500.5C705.621 489.315 706.287 478.315 707.5 467.5Z" fill="#DFDEDC"/>
<path opacity="0.165" fill-rule="evenodd" clip-rule="evenodd" d="M64.5 465.5C65.689 474.312 66.355 483.312 66.5 492.5C64.789 483.727 64.123 474.727 64.5 465.5Z" fill="#959595"/>
<path opacity="0.208" fill-rule="evenodd" clip-rule="evenodd" d="M249.5 488.5C246.167 492.5 242.5 496.167 238.5 499.5C241.167 494.833 244.833 491.167 249.5 488.5Z" fill="#959595"/>
<path opacity="0.137" fill-rule="evenodd" clip-rule="evenodd" d="M552.5 516.5C546.892 512.561 541.892 507.894 537.5 502.5C542.832 506.141 547.832 510.808 552.5 516.5Z" fill="#959595"/>
<path opacity="0.027" fill-rule="evenodd" clip-rule="evenodd" d="M387.5 506.5C386.5 506.5 385.5 506.5 384.5 506.5C385.5 503.833 386.5 503.833 387.5 506.5Z" fill="#D7DFE5"/>
<path opacity="0.416" fill-rule="evenodd" clip-rule="evenodd" d="M237.5 500.5C231.085 507.918 224.085 514.585 216.5 520.5C222.862 513.137 229.862 506.471 237.5 500.5Z" fill="#959595"/>
<path opacity="0.024" fill-rule="evenodd" clip-rule="evenodd" d="M66.5 494.5C67.739 504.311 68.406 514.311 68.5 524.5C66.842 514.717 66.175 504.717 66.5 494.5Z" fill="#DADBDB"/>
<path opacity="0.6" fill-rule="evenodd" clip-rule="evenodd" d="M379.5 511.5C377.833 513.833 375.833 515.833 373.5 517.5C373.833 513.833 375.833 511.833 379.5 511.5Z" fill="#959595"/>
<path opacity="0.98" fill-rule="evenodd" clip-rule="evenodd" d="M407.5 526.5C402.5 522.167 397.833 517.5 393.5 512.5C394.93 512.579 396.264 512.246 397.5 511.5C398.305 514.555 400.305 516.222 403.5 516.5C404.457 518.918 405.791 521.084 407.5 523C406.829 523.986 406.829 525.153 407.5 526.5Z" fill="#959595"/>
<path fill-rule="evenodd" clip-rule="evenodd" d="M372.5 518.5C369.833 521.833 366.833 524.833 363.5 527.5C363.414 526.504 363.748 525.671 364.5 525C363.692 524.692 363.025 524.192 362.5 523.5C363.848 523.55 365.348 523.217 367 522.5C367.507 521.004 367.007 519.837 365.5 519C365.833 518.667 366.167 518.333 366.5 518C368.488 517.82 370.488 517.986 372.5 518.5Z" fill="#959595"/>
<path opacity="0.055" fill-rule="evenodd" clip-rule="evenodd" d="M212.5 524.5C211.833 525.833 210.833 526.833 209.5 527.5C209.5 525.5 210.5 524.5 212.5 524.5Z" fill="#E3E6EA"/>
<path opacity="0.396" fill-rule="evenodd" clip-rule="evenodd" d="M407.5 526.5C418.114 535.446 428.114 545.112 437.5 555.5C426.886 546.554 416.886 536.888 407.5 526.5Z" fill="#959595"/>
<path opacity="0.01" fill-rule="evenodd" clip-rule="evenodd" d="M363.5 527.5C362.833 528.833 361.833 529.833 360.5 530.5C360.5 528.5 361.5 527.5 363.5 527.5Z" fill="#DBE0E1"/>
<path opacity="0.502" fill-rule="evenodd" clip-rule="evenodd" d="M563.5 527.5C565.587 528.585 566.92 530.251 567.5 532.5C565.413 531.415 564.08 529.749 563.5 527.5Z" fill="#959595"/>
<path opacity="0.055" fill-rule="evenodd" clip-rule="evenodd" d="M360.5 530.5C359.167 532.5 357.5 534.167 355.5 535.5C356.167 532.833 357.833 531.167 360.5 530.5Z" fill="#959595"/>
<path opacity="0.153" fill-rule="evenodd" clip-rule="evenodd" d="M704.5 516.5C704.758 527.376 704.091 538.042 702.5 548.5C702.512 537.641 703.179 526.974 704.5 516.5Z" fill="#959595"/>
<path opacity="0.068" fill-rule="evenodd" clip-rule="evenodd" d="M569.5 536.5C572.395 543.926 571.895 551.26 568 558.5C566.693 560.192 565.193 561.525 563.5 562.5C564.598 561.603 564.598 560.77 563.5 560C564.579 559.044 565.745 558.211 567 557.5C570.541 550.834 571.375 543.834 569.5 536.5Z" fill="#959595"/>
<path opacity="0.024" fill-rule="evenodd" clip-rule="evenodd" d="M355.5 535.5C350.833 540.833 345.833 545.833 340.5 550.5C340.5 550.167 340.5 549.833 340.5 549.5C344.892 544.106 349.892 539.439 355.5 535.5Z" fill="#E4EBEC"/>
<path opacity="0.616" fill-rule="evenodd" clip-rule="evenodd" d="M203.5 535.5C202.746 540.463 202.413 545.463 202.5 550.5C202.167 550.5 201.833 550.5 201.5 550.5C200.118 545.174 200.785 540.174 203.5 535.5Z" fill="#959595"/>
<path opacity="0.01" fill-rule="evenodd" clip-rule="evenodd" d="M201.5 550.5C201.833 550.5 202.167 550.5 202.5 550.5C202.833 552.5 203.167 554.5 203.5 556.5C201.926 554.898 201.259 552.898 201.5 550.5Z" fill="#E1E0DE"/>
<path opacity="0.016" fill-rule="evenodd" clip-rule="evenodd" d="M203.5 556.5C204.906 556.973 205.573 557.973 205.5 559.5C204.094 559.027 203.427 558.027 203.5 556.5Z" fill="#E3E1DC"/>
<path opacity="0.01" fill-rule="evenodd" clip-rule="evenodd" d="M339.5 550.5C339.833 550.5 340.167 550.5 340.5 550.5C337.105 554.898 333.105 558.564 328.5 561.5C331.833 557.5 335.5 553.833 339.5 550.5Z" fill="#F1F6F7"/>
<path opacity="0.01" fill-rule="evenodd" clip-rule="evenodd" d="M437.5 555.5C438.833 556.167 439.833 557.167 440.5 558.5C438.5 558.5 437.5 557.5 437.5 555.5Z" fill="#EDF2EF"/>
<path opacity="0.065" fill-rule="evenodd" clip-rule="evenodd" d="M205.5 559.5C206.5 559.833 207.167 560.5 207.5 561.5C206.167 561.5 205.5 560.833 205.5 559.5Z" fill="#E3E3E1"/>
<path opacity="0.01" fill-rule="evenodd" clip-rule="evenodd" d="M207.5 561.5C211.5 564.833 215.167 568.5 218.5 572.5C213.833 569.833 210.167 566.167 207.5 561.5Z" fill="#D7D8D9"/>
<path opacity="0.02" fill-rule="evenodd" clip-rule="evenodd" d="M563.5 562.5C563.5 564.5 562.5 565.5 560.5 565.5C561.167 564.167 562.167 563.167 563.5 562.5Z" fill="#E6E8EB"/>
<path opacity="0.041" fill-rule="evenodd" clip-rule="evenodd" d="M560.5 565.5C560.167 567.833 558.833 569.167 556.5 569.5C557.5 567.833 558.833 566.5 560.5 565.5Z" fill="#EBEDEF"/>
<path fill-rule="evenodd" clip-rule="evenodd" d="M328.5 561.5C322.833 567.833 316.833 573.833 310.5 579.5C310.5 578.167 310.5 576.833 310.5 575.5C312.103 575.688 313.437 575.188 314.5 574C311.635 571.597 311.801 570.764 315 571.5C315 570.167 315 568.833 315 567.5C316.873 568.089 318.54 567.422 320 565.5C321.84 566.833 322.34 566.666 321.5 565C323.744 564.004 325.577 562.504 327 560.5C327.383 561.056 327.883 561.389 328.5 561.5Z" fill="#959595"/>
<path opacity="0.522" fill-rule="evenodd" clip-rule="evenodd" d="M224.5 578.5C232.445 584.776 239.778 591.776 246.5 599.5C238.555 593.224 231.222 586.224 224.5 578.5Z" fill="#959595"/>
<path opacity="0.796" fill-rule="evenodd" clip-rule="evenodd" d="M547.5 578.5C544.833 581.833 541.833 584.833 538.5 587.5C538.167 587.5 537.833 587.5 537.5 587.5C535.81 583.813 536.31 583.146 539 585.5C539.814 583.718 540.981 582.218 542.5 581C541.833 580.667 541.167 580.333 540.5 580C542.74 579.023 545.073 578.523 547.5 578.5Z" fill="#959595"/>
<path opacity="0.094" fill-rule="evenodd" clip-rule="evenodd" d="M454.5 572.5C463.112 579.444 471.112 587.111 478.5 595.5C469.888 588.556 461.888 580.889 454.5 572.5Z" fill="#D8DDD7"/>
<path opacity="0.016" fill-rule="evenodd" clip-rule="evenodd" d="M310.5 579.5C307.437 583.566 303.771 586.899 299.5 589.5C302.563 585.434 306.229 582.101 310.5 579.5Z" fill="#E6E9E8"/>
<path opacity="0.01" fill-rule="evenodd" clip-rule="evenodd" d="M299.5 589.5C299.5 591.5 298.5 592.5 296.5 592.5C297.167 591.167 298.167 590.167 299.5 589.5Z" fill="#ECF1EC"/>
<path opacity="0.01" fill-rule="evenodd" clip-rule="evenodd" d="M537.5 587.5C537.833 587.5 538.167 587.5 538.5 587.5C535.769 591.234 532.436 594.234 528.5 596.5C531.167 593.167 534.167 590.167 537.5 587.5Z" fill="#DFE0E3"/>
<path fill-rule="evenodd" clip-rule="evenodd" d="M295.5 593.5C292.097 598.234 287.764 601.901 282.5 604.5C283.088 602.795 283.421 601.128 283.5 599.5C284.478 599.977 285.311 600.643 286 601.5C287.436 599.429 286.936 597.596 284.5 596C288.173 595.026 291.84 594.193 295.5 593.5Z" fill="#959595"/>
<path opacity="0.553" fill-rule="evenodd" clip-rule="evenodd" d="M478.5 595.5C482.1 597.43 485.1 600.097 487.5 603.5C483.9 601.57 480.9 598.903 478.5 595.5Z" fill="#959595"/>
<path opacity="0.012" fill-rule="evenodd" clip-rule="evenodd" d="M528.5 596.5C528.5 598.5 527.5 599.5 525.5 599.5C526.167 598.167 527.167 597.167 528.5 596.5Z" fill="#E6E6E7"/>
<path opacity="0.053" fill-rule="evenodd" clip-rule="evenodd" d="M72.5 598.5C73.493 607.326 74.16 616.326 74.5 625.5C73.698 624.048 73.198 622.382 73 620.5C72.5 613.174 72.334 605.841 72.5 598.5Z" fill="#DDDCD9"/>
<path opacity="0.18" fill-rule="evenodd" clip-rule="evenodd" d="M248.5 601.5C250.404 601.738 251.738 602.738 252.5 604.5C250.596 604.262 249.262 603.262 248.5 601.5Z" fill="#959595"/>
<path opacity="0.01" fill-rule="evenodd" clip-rule="evenodd" d="M522.5 602.5C522.027 603.906 521.027 604.573 519.5 604.5C519.973 603.094 520.973 602.427 522.5 602.5Z" fill="#E4E6E1"/>
<path opacity="0.946" fill-rule="evenodd" clip-rule="evenodd" d="M282.5 604.5C280.68 606.448 278.346 607.448 275.5 607.5C274.5 607.5 273.5 607.5 272.5 607.5C273.507 606.172 274.84 605.172 276.5 604.5C278.518 605.817 280.518 605.817 282.5 604.5Z" fill="#959595"/>
<path opacity="0.027" fill-rule="evenodd" clip-rule="evenodd" d="M487.5 603.5C489.027 603.427 490.027 604.094 490.5 605.5C488.973 605.573 487.973 604.906 487.5 603.5Z" fill="#E7E8E4"/>
<path opacity="0.208" fill-rule="evenodd" clip-rule="evenodd" d="M256.5 606.5C261.797 607.275 267.13 607.608 272.5 607.5C273.5 607.5 274.5 607.5 275.5 607.5C273.022 608.164 270.355 608.497 267.5 608.5C263.531 608.706 259.865 608.039 256.5 606.5Z" fill="#959595"/>
<path opacity="0.278" fill-rule="evenodd" clip-rule="evenodd" d="M517.5 605.5C513.423 607.833 508.923 609.167 504 609.5C501.292 609.133 498.792 608.466 496.5 607.5C503.633 607.892 510.633 607.225 517.5 605.5Z" fill="#959595"/>
<path opacity="0.137" fill-rule="evenodd" clip-rule="evenodd" d="M700.5 585.5C700.626 598.524 700.126 611.524 699 624.5C698.844 627.191 698.011 629.524 696.5 631.5C698.345 616.082 699.678 600.748 700.5 585.5Z" fill="#959595"/>
<path opacity="0.012" fill-rule="evenodd" clip-rule="evenodd" d="M74.5 625.5C76.009 628.678 77.342 632.011 78.5 635.5C75.819 632.808 74.486 629.475 74.5 625.5Z" fill="#959595"/>
<path opacity="0.161" fill-rule="evenodd" clip-rule="evenodd" d="M696.5 631.5C696.771 633.38 696.104 634.713 694.5 635.5C694.66 633.847 695.326 632.514 696.5 631.5Z" fill="#D7DBDD"/>
<path opacity="0.106" fill-rule="evenodd" clip-rule="evenodd" d="M694.5 635.5C694.573 637.027 693.906 638.027 692.5 638.5C692.427 636.973 693.094 635.973 694.5 635.5Z" fill="#D8DCDB"/>
<path opacity="0.275" fill-rule="evenodd" clip-rule="evenodd" d="M80.5 638.5C82.5 639.833 84.167 641.5 85.5 643.5C82.833 642.833 81.167 641.167 80.5 638.5Z" fill="#959595"/>
<path opacity="0.071" fill-rule="evenodd" clip-rule="evenodd" d="M747.5 636.5C746.703 646.236 743.37 654.902 737.5 662.5C741.45 653.971 744.783 645.304 747.5 636.5Z" fill="#DFE1E0"/>
<path opacity="0.361" fill-rule="evenodd" clip-rule="evenodd" d="M692.5 638.5C691.5 641.5 689.5 643.5 686.5 644.5C688.167 642.167 690.167 640.167 692.5 638.5Z" fill="#959595"/>
<path opacity="0.01" fill-rule="evenodd" clip-rule="evenodd" d="M86.5 644.5C88.027 644.427 89.027 645.094 89.5 646.5C87.973 646.573 86.973 645.906 86.5 644.5Z" fill="#E8EAEE"/>
<path opacity="0.286" fill-rule="evenodd" clip-rule="evenodd" d="M686.5 644.5C686.027 645.906 685.027 646.573 683.5 646.5C683.973 645.094 684.973 644.427 686.5 644.5Z" fill="#959595"/>
<path opacity="0.827" fill-rule="evenodd" clip-rule="evenodd" d="M89.5 646.5C92.157 646.935 94.491 647.935 96.5 649.5C94.54 648.862 92.707 648.862 91 649.5C90.487 648.473 89.987 647.473 89.5 646.5Z" fill="#959595"/>
<path opacity="0.163" fill-rule="evenodd" clip-rule="evenodd" d="M681.5 647.5C677.621 649.877 673.287 651.043 668.5 651C479.167 651.667 289.833 651.667 100.5 651C98.942 650.79 97.609 650.29 96.5 649.5C286.797 650.497 476.964 650.831 667 650.5C671.852 649.704 676.685 648.704 681.5 647.5Z" fill="#959595"/>
<path opacity="0.098" fill-rule="evenodd" clip-rule="evenodd" d="M25.5 638.5C28.027 647.065 31.36 655.398 35.5 663.5C29.835 656.184 26.501 647.851 25.5 638.5Z" fill="#D6D5D2"/>
<path opacity="0.012" fill-rule="evenodd" clip-rule="evenodd" d="M35.5 663.5C36.906 663.973 37.573 664.973 37.5 666.5C36.094 666.027 35.427 665.027 35.5 663.5Z" fill="#E2EAE2"/>
<path opacity="0.01" fill-rule="evenodd" clip-rule="evenodd" d="M38.5 667.5C40.262 668.262 41.262 669.596 41.5 671.5C39.738 670.738 38.738 669.404 38.5 667.5Z" fill="#E1E2E1"/>
<path opacity="0.048" fill-rule="evenodd" clip-rule="evenodd" d="M737.5 662.5C733.601 670.4 727.934 676.733 720.5 681.5C726.566 675.439 732.233 669.106 737.5 662.5Z" fill="#E6E8E4"/>
<path opacity="0.114" fill-rule="evenodd" clip-rule="evenodd" d="M44.5 674.5C46.5 675.833 48.167 677.5 49.5 679.5C46.833 678.833 45.167 677.167 44.5 674.5Z" fill="#E9E7E1"/>
<path opacity="0.122" fill-rule="evenodd" clip-rule="evenodd" d="M49.5 679.5C51.749 680.08 53.415 681.413 54.5 683.5C52.251 682.92 50.585 681.587 49.5 679.5Z" fill="#D6D6D6"/>
<path opacity="0.18" fill-rule="evenodd" clip-rule="evenodd" d="M54.5 683.5C56.027 683.427 57.027 684.094 57.5 685.5C55.973 685.573 54.973 684.906 54.5 683.5Z" fill="#959595"/>
<path opacity="0.063" fill-rule="evenodd" clip-rule="evenodd" d="M719.5 682.5C717.853 684.326 715.853 685.66 713.5 686.5C714.802 684.178 716.802 682.845 719.5 682.5Z" fill="#E1E0DB"/>
<path opacity="0.216" fill-rule="evenodd" clip-rule="evenodd" d="M57.5 685.5C59.853 686.34 61.853 687.674 63.5 689.5C60.802 689.155 58.802 687.822 57.5 685.5Z" fill="#959595"/>
<path opacity="0.212" fill-rule="evenodd" clip-rule="evenodd" d="M63.5 689.5C67.151 690.659 70.485 692.326 73.5 694.5C69.58 693.873 66.247 692.207 63.5 689.5Z" fill="#E1E2E2"/>
<path opacity="0.016" fill-rule="evenodd" clip-rule="evenodd" d="M708.5 689.5C707.089 691.539 705.089 692.539 702.5 692.5C704.181 690.992 706.181 689.992 708.5 689.5Z" fill="#959595"/>
<path opacity="0.702" fill-rule="evenodd" clip-rule="evenodd" d="M73.5 694.5C77.044 694.132 80.044 695.132 82.5 697.5C79.145 697.31 76.145 696.31 73.5 694.5Z" fill="#959595"/>
<path fill-rule="evenodd" clip-rule="evenodd" d="M602.5 696.5C458.497 696.765 314.497 696.432 170.5 695.5C169.051 693.836 167.051 693.002 164.5 693C171.826 692.5 179.159 692.334 186.5 692.5C186.5 691.167 186.5 689.833 186.5 688.5C189.167 688.5 191.833 688.5 194.5 688.5C194.5 689.833 194.5 691.167 194.5 692.5C205.146 692.671 205.146 693.171 194.5 694C210.5 694.667 226.5 694.667 242.5 694C237.167 693.667 231.833 693.333 226.5 693C285.171 693.056 343.837 692.889 402.5 692.5C413.112 694.194 429.112 695.194 450.5 695.5C455.853 694.826 461.186 694.159 466.5 693.5C466.5 691.833 466.5 690.167 466.5 688.5C458.432 688.491 450.432 687.824 442.5 686.5C442.5 687.5 442.5 688.5 442.5 689.5C439.833 689.5 437.167 689.5 434.5 689.5C434.5 687.833 434.5 686.167 434.5 684.5C437.167 684.5 439.833 684.5 442.5 684.5C442.5 683.167 442.5 681.833 442.5 680.5C447.833 680.5 453.167 680.5 458.5 680.5C458.5 681.833 458.5 683.167 458.5 684.5C474.5 684.5 490.5 684.5 506.5 684.5C506.5 685.833 506.5 687.167 506.5 688.5C498.5 688.5 490.5 688.5 482.5 688.5C482.5 690.5 482.5 692.5 482.5 694.5C487.814 693.841 493.147 693.174 498.5 692.5C509.136 692.672 509.136 693.172 498.5 694C521.843 694.229 545.176 694.729 568.5 695.5C572.005 695.599 575.338 694.932 578.5 693.5C565.183 692.501 551.85 692.167 538.5 692.5C538.5 691.167 538.5 689.833 538.5 688.5C535.833 688.5 533.167 688.5 530.5 688.5C530.5 687.167 530.5 685.833 530.5 684.5C549.167 684.5 567.833 684.5 586.5 684.5C586.215 686.288 586.548 687.955 587.5 689.5C590.249 688.511 592.249 689.511 593.5 692.5C601.131 691.371 608.798 691.371 616.5 692.5C620.248 692.339 623.582 691.339 626.5 689.5C626.5 690.5 626.5 691.5 626.5 692.5C631.844 692.334 637.177 692.501 642.5 693C631.949 695.818 621.282 696.318 610.5 694.5C607.41 694.522 604.743 695.188 602.5 696.5Z" fill="#959595"/>
<path fill-rule="evenodd" clip-rule="evenodd" d="M170.5 695.5C314.497 696.432 458.497 696.765 602.5 696.5C615.85 696.167 629.183 696.501 642.5 697.5C599.833 697.833 557.167 698.167 514.5 698.5C423.818 697.169 333.151 697.169 242.5 698.5C215.833 698.167 189.167 697.833 162.5 697.5C165.306 696.832 167.972 696.166 170.5 695.5Z" fill="#959595"/>
<path opacity="0.063" fill-rule="evenodd" clip-rule="evenodd" d="M698.5 694.5C692.552 697.238 686.219 698.905 679.5 699.5C685.612 697.387 691.946 695.721 698.5 694.5Z" fill="#959595"/>
<path opacity="0.169" fill-rule="evenodd" clip-rule="evenodd" d="M82.5 697.5C85.495 697.294 88.162 697.96 90.5 699.5C87.572 699.435 84.905 698.768 82.5 697.5Z" fill="#959595"/>
</svg>
