<svg width="79" height="79" viewBox="0 0 79 79" fill="none" xmlns="http://www.w3.org/2000/svg">
<path d="M69.5957 19.0011C68.6066 19.0329 68.9193 19.3179 66.7821 19.8437C64.6239 20.3748 61.9876 20.2118 59.6636 21.1867C52.7258 24.0964 51.3338 34.0408 45.0268 37.6031C40.3124 40.2659 35.5559 40.4782 31.2797 41.8184C28.4694 42.6996 25.3951 44.5068 22.849 46.7011C20.8728 48.4046 20.8212 49.9028 18.7561 52.0398C16.5475 54.3252 9.97759 52.0783 7 55.5765C7.95906 56.5463 8.37974 56.818 10.2698 56.5664C9.87868 57.3081 7.57168 57.9331 8.02316 59.0244C8.49843 60.1725 14.0755 60.9508 19.1455 57.89C21.5066 56.4645 23.3874 54.4096 27.0643 53.9193C31.8228 53.285 37.3047 54.326 42.8134 55.1205C41.9966 57.556 40.3567 59.1756 39.0431 61.1153C38.6361 61.5535 39.8601 61.6026 41.2564 61.3379C43.768 60.7169 45.5779 60.2166 47.4735 59.1133C49.8023 57.7576 50.1554 54.2822 53.0125 53.5299C54.6043 55.9769 58.9344 56.5549 61.621 54.5977C59.2634 53.9303 58.6118 48.9122 59.4076 46.7011C60.1614 44.6077 60.9063 41.2598 61.6656 38.4928C62.4806 35.5214 62.7811 31.7761 63.7675 30.2624C65.2516 27.9852 66.8913 27.2032 68.3149 25.9191C69.7387 24.6348 71.0418 23.385 70.999 20.4464C70.9852 19.4999 70.4957 18.9726 69.5957 19.0011Z" fill="#002B64"/>
<path d="M9.04785 58.8148C12.6582 59.3321 14.8538 58.8148 17.753 57.5577C20.22 56.4878 22.6024 54.2822 25.5156 53.3472C29.7938 51.9744 34.4854 53.3489 39.0589 53.6231C40.1727 53.69 41.2792 53.6907 42.3715 53.5718C44.075 52.5246 44.04 48.608 45.6981 48.2491C45.6493 53.7443 43.3964 57.0369 41.0403 60.2251C46.0059 59.3482 48.9775 56.476 50.9845 52.64C51.5935 51.4769 52.1133 50.2256 52.5731 48.914C53.284 49.4596 52.8811 51.1195 53.2384 52.019C56.6587 50.1136 58.6171 45.7656 59.9142 41.3679C61.4147 36.2784 62.0289 31.1248 62.9967 29.6189C63.9413 28.149 65.4112 27.243 66.7528 26.302C68.2778 25.232 69.6375 24.1169 69.8724 22.0784C68.2646 21.9296 67.8927 21.5575 67.6548 20.7472C66.8498 21.2009 66.1096 21.2981 65.2732 21.3231C64.5475 21.3452 63.7502 21.3129 62.7764 21.4128C54.7233 22.2399 53.6999 31.116 48.5383 36.1477C48.1576 36.5164 47.7532 36.8597 47.3275 37.1754C45.5196 38.5226 43.302 39.4851 41.2627 40.2647C37.9616 41.5259 34.8232 41.6156 31.7262 42.7044C29.4525 43.5034 27.1422 44.6625 25.275 45.9406C24.824 46.2475 24.3864 46.5736 23.9633 46.918C22.8676 47.8144 22.1481 48.8093 21.4525 49.8327C20.7348 50.8869 20.042 51.9719 18.9857 53.0084C17.2745 54.6886 10.8801 53.4984 8.62892 55.0567C8.37801 55.23 8.17869 55.4381 8.04297 55.688C9.27146 56.2461 10.0918 55.9036 11.5048 56.0598C11.6901 57.4007 8.58961 58.1975 9.04785 58.815V58.8148ZM57.8374 49.1556C57.9335 50.6938 58.8265 53.7455 59.6148 54.4875C58.0707 54.8631 55.4112 54.2426 54.7288 53.1536C55.0794 51.581 56.9038 50.1437 57.8374 49.1556Z" fill="white"/>
<path d="M60.0992 24.7431C61.2391 25.7327 63.6312 24.9384 63.2038 22.9692C61.4324 22.8225 60.4062 23.4237 60.0992 24.7431ZM68.0469 22.4416C67.7439 23.0777 67.1632 23.8978 67.1632 25.5166C67.1607 25.7946 66.9521 25.9851 66.9486 25.5567C66.9644 23.9741 67.3831 23.2903 67.828 22.3913C68.0349 22.023 68.1593 22.175 68.0469 22.4416Z" fill="#002B64"/>
<path d="M67.7416 22.2023C67.3838 22.809 66.5226 23.9161 66.3802 25.529C66.3539 25.8054 66.129 25.9767 66.1631 25.5492C66.3183 23.9747 67.0067 22.9891 67.529 22.1324C67.7662 21.7841 67.8776 21.9464 67.7416 22.2023ZM67.4632 21.8848C67.0558 22.4592 65.7299 23.7886 65.4527 25.3842C65.4028 25.6572 65.1644 25.8094 65.2346 25.3862C65.5215 23.8299 66.6644 22.6067 67.2568 21.7976C67.5223 21.4696 67.6194 21.6411 67.4632 21.8848ZM67.2148 21.5307C66.7307 22.042 65.1502 23.7373 64.6519 25.2778C64.5637 25.541 64.3063 25.6584 64.4355 25.2493C64.9381 23.7488 66.3223 22.1324 67.0227 21.415C67.332 21.1278 67.4038 21.3111 67.2148 21.5307Z" fill="#002B64"/>
</svg>
