<svg width="79" height="79" viewBox="0 0 79 79" fill="none" xmlns="http://www.w3.org/2000/svg">
<path d="M39.1731 8.1748L40.881 11.3826C41.265 11.9745 41.6809 12.4985 42.1709 12.9864C43.6074 14.405 44.9463 15.919 46.1786 17.5181C49.0724 21.3178 51.0242 25.5375 52.4181 30.1012C53.2541 32.8889 53.708 35.7487 53.742 38.6405C53.882 47.2859 50.9183 54.7093 44.9427 60.8788C43.9707 61.8572 42.9207 62.7548 41.8029 63.5627C41.211 63.5627 40.931 63.1087 40.687 62.6907C40.2427 61.9157 39.947 61.0645 39.8151 60.1809C39.6051 59.135 39.4671 58.0891 39.5351 57.0091V56.5212C39.4871 56.4172 38.9651 8.42079 39.1731 8.1748Z" fill="#599636"/>
<path d="M39.1731 8.0688C39.1031 7.92881 39.0331 8.0348 38.9631 8.1028C38.9971 8.80275 38.7531 9.4267 38.3712 10.0227C37.9512 10.6146 37.3952 11.0686 36.8373 11.5565C33.7375 14.2403 31.2977 17.4821 29.3438 21.1078C26.744 25.9875 25.4041 31.2171 25.0242 36.7227C24.8502 38.7085 25.6521 45.716 26.2781 47.7378C27.9859 53.1054 31.0537 57.6031 35.0274 61.5068C36.0033 62.4467 37.0473 63.3187 38.1272 64.1566C38.4411 64.1566 38.4751 63.8766 38.5471 63.6686C38.6848 63.2236 38.7897 62.7691 38.8611 62.3087L39.5611 57.0811L39.1731 8.0688Z" fill="#6CAC48"/>
<path d="M40.881 65.6864C40.951 64.8865 41.335 64.2225 41.7529 63.5606C41.333 63.3866 41.021 63.0406 40.777 62.6547C40.5666 62.2892 40.3925 61.9041 40.257 61.5047C39.7691 60.0409 39.6651 58.505 39.5251 57.0091V56.1031C39.3511 56.2431 39.3151 57.4271 39.3151 57.603C39.2133 59.1841 39.0035 60.7563 38.6872 62.3087C38.5832 62.9366 38.5132 63.5626 38.1272 64.1205C38.1272 64.1905 38.1272 64.2605 38.1612 64.3645C38.7891 66.2124 38.9611 68.0942 39.0671 70.0121V70.7121C39.0671 71.548 39.0331 71.372 39.7271 71.652C40.0071 71.756 40.319 71.792 40.599 72C40.809 72 40.843 71.826 40.843 71.686L40.739 70.5361V67.3283C40.705 66.7684 40.809 66.2124 40.879 65.6884L40.881 65.6864Z" fill="#C2BFBF"/>
</svg>
