<svg width="79" height="79" viewBox="0 0 79 79" fill="none" xmlns="http://www.w3.org/2000/svg">
<path d="M65.9507 57.5899C62.4685 57.5031 59.7697 57.8513 57.5063 58.8088C56.8533 59.0697 55.8085 59.07 55.7214 59.8971C56.0697 60.2454 56.1132 60.8113 56.4179 61.2899C56.9408 62.1603 57.8543 63.3357 58.6814 63.9455C59.5953 64.6417 60.5098 65.338 61.467 65.9475C63.1648 66.9923 65.0803 67.6015 66.7343 68.6463C67.6922 69.2552 68.6492 70.0393 69.6069 70.6921C70.0858 71.0398 70.3903 71.6063 71 71.8237V71.6933C70.695 71.3013 70.608 70.7356 70.3035 70.3003C69.8686 69.8649 69.4328 69.4731 68.9975 69.0378C67.7353 67.3405 66.1683 65.8604 64.4708 64.6417C63.078 63.684 60.0307 62.3783 59.465 60.7675C59.465 60.7675 59.4212 60.7243 59.3779 60.6807C60.3354 60.5937 61.467 60.2454 62.3815 59.9842C63.8613 59.5921 65.2106 59.6795 66.7343 59.2877C67.4305 59.1135 68.1271 58.8959 68.8233 58.6782V58.2867C68.0403 57.5031 67.4743 56.4585 66.6472 55.7185C64.4273 53.8027 61.9894 51.9313 59.465 50.3644C58.1155 49.4937 56.3741 48.9278 54.9378 48.188C54.4159 47.9265 53.545 47.7962 53.2405 47.3609C52.4567 46.4034 52.0213 45.1412 51.4557 44.0093C50.1937 41.615 48.9745 38.96 47.8862 36.4356C47.1031 34.7378 46.6242 33.04 45.6665 31.4733C41.1831 24.0734 36.3079 19.59 28.8212 15.1934C27.2105 14.2795 25.2953 13.8877 23.2495 13.4091C22.1617 13.3653 21.0731 13.2785 19.985 13.2347C19.2885 12.93 18.592 12.1031 17.9825 11.7113C15.5019 10.1441 9.10276 6.74927 7.27462 11.2327C6.09922 14.0618 9.01594 16.8474 10.0167 18.2843C10.7573 19.2853 11.7145 20.4169 12.2369 21.5488C12.5416 22.2883 12.6284 23.0724 12.9332 23.8558C13.6299 25.7705 14.2824 27.9038 15.1969 29.6887C15.6757 30.6026 16.1979 31.5601 16.8074 32.3872C17.1556 32.8659 17.7648 33.0838 17.8957 33.8671C17.2865 34.7378 17.2427 36.0438 16.8942 37.1318C15.3272 42.0506 15.9369 48.1445 18.1566 51.7572C18.8529 52.845 20.5072 55.2398 22.7271 54.3254C24.6861 53.5421 24.2508 51.0609 24.8162 48.8845C24.9473 48.3616 24.8602 48.0139 25.1212 47.6656V47.7529C25.7306 48.9713 26.3398 50.147 26.9058 51.3656C28.2553 53.4983 30.6056 55.7185 32.5643 57.1986C33.6094 57.9817 34.4362 59.3312 35.7422 59.8101V59.6792H35.6549C35.3937 59.2874 35.0019 59.1135 34.6539 58.8085C33.8706 58.0255 32.9996 57.0677 32.3904 56.1971C30.5625 53.7592 28.9516 51.0607 27.5152 48.2748C26.819 46.9258 26.2092 45.4457 25.6436 44.0964C25.3821 43.5735 25.3821 42.7904 24.947 42.5294C24.294 43.4869 23.3366 44.314 22.8577 45.4892C22.0311 47.3609 21.9438 49.6679 21.639 52.0617C21.4649 52.1057 21.5517 52.0617 21.4646 52.1492C20.0721 51.8005 19.5932 50.3644 19.0706 49.1455C17.7646 46.0551 17.5469 41.0928 18.679 37.5236C18.9838 36.6094 20.2897 33.7368 19.7674 32.8661C19.5062 32.039 18.6352 31.5601 18.1566 30.9074C17.591 30.0802 16.9812 29.0359 16.5897 28.1215C15.5449 25.6839 15.0225 22.9851 13.8909 20.5475C13.3685 19.4156 12.4548 18.2407 11.7145 17.196C10.8876 16.0208 9.97342 15.1934 9.32042 13.8006C9.10301 13.322 8.79802 12.5384 9.14629 12.016C9.23335 11.6678 9.40724 11.5374 9.75575 11.4503C10.3217 10.9712 11.9324 11.5807 12.4978 11.8419C14.1086 12.4944 15.4578 13.1043 16.8074 14.0183C17.4166 14.4536 18.0696 15.2807 18.8529 15.4984H19.7671C21.1602 15.8029 22.7268 15.5855 24.0328 15.977C26.3401 16.7168 28.4292 17.8052 30.3011 18.9806C36.0034 22.5933 40.704 27.7297 43.8819 33.8671C44.4043 34.8679 44.6217 35.7826 45.1006 36.8269C46.015 38.96 47.1466 41.1364 48.0603 43.2257C48.9745 45.2713 49.8449 47.3609 51.1509 49.0586C51.8039 49.9723 54.4154 50.4515 55.5908 50.9303C56.4615 51.3219 57.811 51.6704 58.5943 52.149C60.0742 53.0627 61.5541 54.108 62.9471 55.1087C63.6437 55.6311 65.8198 56.7195 65.9507 57.5899Z" fill="#00546B"/>
<path d="M21.5514 19.7637C20.8116 19.7637 20.2895 19.8512 19.7671 19.9816V20.0687H19.8542C20.2027 20.7652 20.8116 21.244 21.2467 21.8533C21.5952 22.5495 21.8997 23.2463 22.2482 23.9428C22.2915 23.8991 22.335 23.8558 22.335 23.8558C22.9448 23.4202 23.2492 22.7239 23.2492 21.6791C22.988 21.3746 22.9445 21.0699 22.7268 20.7652C22.4659 20.3296 21.8997 20.1122 21.5514 19.7637Z" fill="#00546B"/>
</svg>
