<svg width="79" height="79" viewBox="0 0 79 79" fill="none" xmlns="http://www.w3.org/2000/svg">
<path d="M69.8672 46.3374C69.4943 45.2074 68.5177 44.4203 67.2546 44.2314C66.659 44.1425 65.977 44.1804 65.1699 44.3469C63.763 44.6374 62.7193 44.748 61.9576 44.7693C64.8327 39.9116 67.1706 34.372 68.5164 29.1574C70.6928 20.7256 69.5298 16.8843 68.1708 15.1469C64.5743 10.548 59.3271 8.07743 52.9969 8.00183C49.6199 7.96051 46.6554 8.62774 45.109 9.10756C43.6691 8.8533 42.1209 8.71135 40.4964 8.6851C37.4513 8.63649 34.7608 9.3008 32.4618 10.6661C31.1891 10.2354 29.1463 9.62821 26.7874 9.24076C21.2392 8.32925 16.7676 9.0395 13.4968 11.3518C9.53623 14.1515 7.70021 19.0158 8.03977 25.8096C8.14762 27.9666 9.35333 34.5295 11.2518 40.7536C12.3428 44.3311 13.5063 47.3019 14.7098 49.5843C16.4166 52.8208 18.2429 54.7267 20.2932 55.4112C21.4423 55.7943 23.5302 56.0626 25.7262 54.2323C26.0045 54.5697 26.3759 54.9049 26.8687 55.2163C27.4947 55.6112 28.26 55.934 29.0244 56.1253C31.7791 56.8144 34.3593 56.6421 36.5606 55.6761C36.5742 56.068 36.5847 56.4423 36.5934 56.7656C36.608 57.2899 36.6226 57.804 36.6417 58.2848C36.7722 61.5356 36.9932 64.0633 37.648 65.8319C37.684 65.9291 37.7323 66.0774 37.7833 66.2346C38.11 67.2356 38.6563 68.9113 40.0461 70.2236C41.4852 71.5831 43.2261 72 44.8204 72C45.62 72 46.3829 71.895 47.0521 71.7516C49.4373 71.2399 52.1463 70.4606 54.1059 67.6682C55.9587 65.0285 56.8593 61.0526 57.0223 54.788C57.0434 54.6108 57.0629 54.4416 57.0816 54.2804L57.1204 53.9494L57.5569 53.9878L57.6694 53.9953C60.0988 54.1062 63.0693 53.5906 64.8937 52.7425C66.3353 52.0731 70.9548 49.6324 69.8672 46.3374Z" fill="black"/>
<path d="M65.7132 46.9781C58.4896 48.4693 57.9929 46.0218 57.9929 46.0218C65.6197 34.6965 68.8081 20.3206 66.0569 16.8021C58.5506 7.20451 45.5571 11.7436 45.3402 11.8613L45.2705 11.8739C43.8432 11.5773 42.2462 11.4009 40.451 11.3715C37.1827 11.318 34.7032 12.229 32.8218 13.6568C32.8218 13.6568 9.64261 4.10075 10.7208 25.6752C10.9501 30.2648 17.2944 60.4033 24.8615 51.3001C27.6273 47.9713 30.2998 45.1568 30.2998 45.1568C31.627 46.0391 33.216 46.4893 34.8817 46.3276L35.0112 46.2178C34.9709 46.631 34.9893 47.0352 35.0629 47.5138C33.1135 49.6934 33.6865 50.076 29.7895 50.8789C25.8462 51.6922 28.1626 53.1399 29.6751 53.5186C31.5087 53.9773 35.7506 54.6272 38.6167 50.612L38.5025 51.0702C39.2662 51.6825 39.8025 55.0524 39.7126 58.1075C39.6227 61.1624 39.5628 63.2599 40.1644 64.8982C40.7665 66.5365 41.3662 70.2226 46.4893 69.1242C50.7698 68.2061 52.9881 65.8272 53.2968 61.8588C53.5157 59.0378 54.0114 59.4549 54.0425 56.9325L54.4401 55.7386C54.8985 51.9143 54.513 50.6805 57.1501 51.2544L57.7913 51.3108C59.732 51.399 62.2727 50.9982 63.7638 50.3047C66.9743 48.8137 68.8786 46.324 65.7127 46.9781H65.7132Z" fill="#336791"/>
<path d="M34.1786 27.7277C33.5276 27.637 32.9381 27.7209 32.6399 27.9469C32.4723 28.0741 32.4203 28.2214 32.4062 28.3227C32.3688 28.5913 32.5568 28.8883 32.6724 29.0415C32.9994 29.4751 33.4769 29.7731 33.9495 29.8387C34.018 29.8485 34.0863 29.8528 34.1541 29.8528C34.9422 29.8528 35.659 29.2386 35.7222 28.7853C35.8011 28.2175 34.9775 27.8388 34.1786 27.7277ZM55.7435 27.7457C55.6813 27.3006 54.89 27.1737 54.139 27.2782C53.3889 27.3828 52.6617 27.7216 52.7224 28.1676C52.771 28.5145 53.3969 29.1066 54.1377 29.1066C54.2004 29.1066 54.2636 29.1025 54.3272 29.0935C54.8217 29.0249 55.1846 28.7107 55.3571 28.5296C55.6194 28.2534 55.7714 27.9457 55.7435 27.7457Z" fill="white"/>
<path d="M68.1169 46.8087C67.8415 45.9752 66.9549 45.7071 65.482 46.0114C61.1088 46.9147 59.5426 46.289 59.0284 45.9101C62.4277 40.7278 65.2241 34.4634 66.7327 28.6188C67.4473 25.8502 67.842 23.279 67.8743 21.1833C67.91 18.8831 67.5184 17.1928 66.7111 16.1602C63.4558 11.9977 58.6782 9.76483 52.8949 9.70358C48.919 9.65885 45.5598 10.6771 44.9086 10.9634C43.5372 10.6221 42.0422 10.4126 40.4146 10.3859C37.43 10.3375 34.85 11.0526 32.714 12.5103C31.7861 12.1647 29.3883 11.3409 26.4559 10.8681C21.3862 10.0514 17.3576 10.6703 14.4828 12.7084C11.0524 15.1406 9.46875 19.4881 9.77552 25.63C9.87875 27.6964 11.0553 34.0531 12.912 40.1408C15.356 48.1534 18.0127 52.6893 20.8079 53.6225C21.1351 53.7316 21.5123 53.8079 21.9284 53.8079C22.948 53.8079 24.1982 53.348 25.4989 51.7831C27.0853 49.8786 28.7264 48.0203 30.4201 46.2105C31.519 46.8007 32.7261 47.1303 33.9607 47.1634C33.9632 47.1957 33.9663 47.228 33.9692 47.2601C33.7567 47.5137 33.5486 47.771 33.345 48.0318C32.4895 49.1186 32.3115 49.3449 29.5578 49.9122C28.7745 50.0741 26.6942 50.5031 26.6635 51.9625C26.6305 53.5571 29.1228 54.2267 29.4068 54.2977C30.3963 54.5456 31.3497 54.6679 32.2588 54.6679C34.4698 54.6679 36.4157 53.9406 37.9706 52.5335C37.9228 58.2179 38.1596 63.8192 38.8417 65.5258C39.4003 66.923 40.7649 70.3374 45.0752 70.3372C45.7077 70.3372 46.4039 70.2635 47.1697 70.0992C51.6683 69.1342 53.6219 67.1444 54.3775 62.7578C54.7819 60.4133 55.4759 54.8152 55.8023 51.8123C56.4912 52.0274 57.3779 52.1259 58.3366 52.1256C60.3361 52.1256 62.6434 51.7005 64.0903 51.0284C65.7157 50.2729 68.6489 48.4193 68.1169 46.8087ZM57.4039 26.5172C57.3891 27.4037 57.2672 28.2085 57.138 29.0486C56.9988 29.952 56.855 30.8862 56.8188 32.0201C56.7831 33.1236 56.9208 34.2709 57.0539 35.3805C57.3231 37.6216 57.5992 39.9289 56.5303 42.2055C56.3527 41.8906 56.1945 41.5652 56.0566 41.231C55.9238 40.9087 55.6352 40.3909 55.2356 39.6744C53.6814 36.8849 50.0416 30.3526 51.9049 27.6871C52.4599 26.8937 53.8684 26.078 57.4039 26.5172ZM53.1184 11.4986C58.3002 11.6131 62.3993 13.5531 65.3013 17.2643C67.5272 20.1109 65.0762 33.0633 57.9806 44.2375C57.9092 44.1467 57.8375 44.0562 57.7654 43.966L57.6755 43.8537C59.5091 40.8234 59.1506 37.8251 58.8314 35.1669C58.7003 34.076 58.5764 33.0456 58.608 32.0777C58.6405 31.0519 58.776 30.172 58.9072 29.3213C59.0682 28.2729 59.2322 27.1881 59.187 25.9093C59.2208 25.7751 59.2344 25.6166 59.2166 25.4285C59.1013 24.2022 57.7022 20.5321 54.8507 17.2103C53.2908 15.3934 51.0161 13.3601 47.9103 11.9887C49.2462 11.7116 51.073 11.4532 53.1184 11.4986ZM24.1224 50.6378C22.6894 52.3621 21.6998 52.0316 21.3743 51.9231C19.2539 51.2153 16.7934 46.7302 14.6241 39.618C12.7471 33.4639 11.6502 27.2756 11.5632 25.5403C11.2892 20.0523 12.6186 16.2276 15.5146 14.1722C20.2276 10.8275 27.9764 12.8295 31.09 13.8448C31.0453 13.889 30.9987 13.9303 30.9545 13.9753C25.845 19.1391 25.9662 27.9615 25.9788 28.5009C25.9783 28.709 25.9958 29.0036 26.0196 29.4088C26.1076 30.8927 26.2713 33.6545 25.8341 36.7821C25.428 39.6885 26.3233 42.5331 28.29 44.5868C28.4918 44.7972 28.7039 44.9974 28.9256 45.1867C28.0502 46.125 26.1476 48.1998 24.1224 50.6378ZM29.5824 43.3474C27.9973 41.6921 27.2773 39.3897 27.6069 37.03C28.0684 33.7262 27.8982 30.8487 27.8066 29.3028C27.7937 29.0865 27.7823 28.8969 27.7757 28.7474C28.5222 28.085 31.9812 26.2304 34.448 26.796C35.5735 27.0539 36.2595 27.821 36.5446 29.1404C38.0204 35.9714 36.7399 38.8185 35.711 41.1065C35.499 41.5778 35.2986 42.0234 35.1276 42.4843L34.995 42.8406C34.6593 43.7414 34.3469 44.579 34.1534 45.3744C32.4682 45.3695 30.8289 44.649 29.5824 43.3472V43.3474ZM29.8411 52.5598C29.349 52.4368 28.9064 52.2231 28.6468 52.0459C28.8637 51.9438 29.2496 51.8048 29.919 51.6667C33.1585 50.9995 33.6588 50.5284 34.7514 49.1402C35.0018 48.8218 35.2857 48.4611 35.679 48.0216L35.6794 48.0211C36.2651 47.3649 36.533 47.4762 37.0188 47.6779C37.4125 47.8408 37.796 48.3347 37.9515 48.8782C38.0251 49.1349 38.1076 49.622 37.8373 50.0012C35.5551 53.199 32.2294 53.1579 29.8411 52.5598ZM46.7947 68.3476C42.8316 69.1974 41.4285 67.1739 40.5038 64.8606C39.907 63.3671 39.6136 56.6326 39.8217 49.1954C39.8244 49.0965 39.8103 49.001 39.7831 48.911C39.7588 48.7334 39.7218 48.5578 39.6723 48.3855C39.3629 47.3034 38.6087 46.3982 37.704 46.0229C37.3445 45.8739 36.6848 45.6004 35.892 45.8034C36.061 45.1063 36.3542 44.3189 36.6721 43.4665L36.8055 43.108C36.9556 42.7037 37.1441 42.2849 37.3433 41.8416C38.42 39.4478 39.8946 36.169 38.2942 28.762C37.6947 25.9876 35.6928 24.6327 32.6581 24.9475C30.8389 25.1359 29.1743 25.8704 28.3441 26.2917C28.1656 26.3821 28.0024 26.4696 27.8498 26.5547C28.0815 23.7593 28.9569 18.5353 32.2316 15.23C34.2935 13.1493 37.0394 12.1216 40.385 12.1771C46.9771 12.285 51.2044 15.6705 53.5901 18.4918C55.6459 20.9227 56.7591 23.3717 57.2033 24.6925C53.8623 24.3524 51.5901 25.0124 50.4383 26.6604C47.9324 30.2452 51.8092 37.2028 53.6724 40.5467C54.0141 41.1595 54.309 41.6892 54.4018 41.9143C55.0085 43.3858 55.7941 44.3683 56.3675 45.0853C56.5434 45.3051 56.7139 45.5183 56.8436 45.7044C55.8317 45.9964 54.0141 46.6709 54.1798 50.0425C54.0462 51.7343 53.0963 59.655 52.6136 62.4534C51.9765 66.1505 50.6171 67.5275 46.7947 68.3479V68.3476ZM63.3366 49.4037C62.3019 49.8843 60.5703 50.2448 58.9254 50.3223C57.1086 50.4074 56.1837 50.1186 55.966 49.9409C55.864 47.8398 56.6454 47.6203 57.4724 47.3879C57.6024 47.3515 57.7292 47.3158 57.8516 47.273C57.9276 47.335 58.0109 47.3965 58.1023 47.4567C59.5625 48.4212 62.167 48.5253 65.8442 47.7657L65.8845 47.7577C65.3885 48.2217 64.5399 48.8444 63.3366 49.4037Z" fill="white"/>
</svg>
