<svg width="79" height="79" viewBox="0 0 79 79" fill="none" xmlns="http://www.w3.org/2000/svg">
<g clip-path="url(#clip0_241_433)">
<path d="M68.48 55.2271C65.0652 57.007 47.3758 64.2803 43.6098 66.2436C39.8438 68.2072 37.7517 68.1882 34.7766 66.766C31.8017 65.3438 12.977 57.7399 9.58597 56.1189C7.89132 55.3091 7 54.6252 7 53.9794V47.5117C7 47.5117 31.5075 42.1765 35.464 40.7571C39.4201 39.3376 40.7929 39.2864 44.1597 40.5196C47.527 41.7534 67.6594 45.3856 70.987 46.6044L70.9855 52.9806C70.986 53.6199 70.2181 54.3213 68.48 55.2271Z" fill="#912626"/>
<path d="M68.4787 48.7977C65.0641 50.5769 47.3752 57.8504 43.6092 59.8135C39.8435 61.7774 37.7514 61.7581 34.7765 60.3359C31.8014 58.9147 12.9775 51.3095 9.58667 49.6896C6.19586 48.0686 6.12487 46.9531 9.45569 45.6489C12.7865 44.3441 31.5072 36.9994 35.4641 35.5799C39.4203 34.161 40.7928 34.1092 44.1596 35.343C47.5267 36.5762 65.1101 43.5751 68.4372 44.7936C71.7655 46.0136 71.8932 47.0181 68.4787 48.7977Z" fill="#C6302B"/>
<path d="M68.48 44.762C65.0652 46.5421 47.3758 53.8152 43.6098 55.7793C39.8438 57.7421 37.7517 57.7231 34.7766 56.3009C31.8014 54.8794 12.977 47.2747 9.58597 45.6538C7.89132 44.844 7 44.1611 7 43.515V37.0466C7 37.0466 31.5075 31.7117 35.464 30.2922C39.4201 28.8727 40.7929 28.8212 44.1597 30.0547C47.5272 31.2882 67.6596 34.9198 70.987 36.1388L70.9855 42.5157C70.986 43.1548 70.2181 43.8562 68.48 44.762Z" fill="#912626"/>
<path d="M68.4787 38.3327C65.0641 40.1123 47.3752 47.3853 43.6092 49.3492C39.8435 51.3123 37.7514 51.293 34.7765 49.8708C31.8014 48.4496 12.9775 40.8446 9.58667 39.2245C6.19586 37.604 6.12487 36.4883 9.45569 35.1835C12.7865 33.8796 31.5075 26.5343 35.4641 25.1151C39.4203 23.6959 40.7928 23.6444 44.1596 24.8779C47.5267 26.1111 65.1101 33.1095 68.4372 34.3285C71.7655 35.5482 71.8932 36.553 68.4787 38.3327Z" fill="#C6302B"/>
<path d="M68.48 33.909C65.0652 35.6886 47.3758 42.9621 43.6098 44.9262C39.8438 46.8893 37.7517 46.8701 34.7766 45.4478C31.8014 44.0264 12.977 36.4214 9.58597 34.8013C7.89132 33.9907 7 33.3076 7 32.6622V26.1935C7 26.1935 31.5075 20.8589 35.464 19.4396C39.4201 18.0199 40.7929 17.9689 44.1597 19.2022C47.5272 20.4357 67.6596 24.0672 70.987 25.2862L70.9855 31.6629C70.986 32.3015 70.2181 33.0029 68.48 33.909Z" fill="#912626"/>
<path d="M68.4787 27.4796C65.0641 29.2592 47.3752 36.5327 43.6092 38.4958C39.8435 40.4589 37.7514 40.4397 34.7765 39.0182C31.8016 37.596 12.9775 29.9916 9.58691 28.3711C6.19585 26.751 6.12512 25.6349 9.45569 24.3305C12.7865 23.0262 31.5074 15.682 35.4641 14.2623C39.4203 12.8428 40.7928 12.7918 44.1596 14.0253C47.5267 15.2588 65.1101 22.2571 68.4372 23.4761C71.7655 24.6949 71.8932 25.6999 68.4787 27.4796Z" fill="#C6302B"/>
<path d="M46.8126 21.1875L41.3113 21.7587L40.0798 24.7221L38.0907 21.4152L31.7382 20.8444L36.4782 19.135L35.056 16.511L39.4939 18.2466L43.6775 16.8769L42.5468 19.5901L46.8126 21.1875ZM39.7513 35.5641L29.4842 31.3057L44.1962 29.0474L39.7513 35.5641ZM25.5167 22.8347C29.8596 22.8347 33.3801 24.1994 33.3801 25.8826C33.3801 27.5662 29.8596 28.9307 25.5167 28.9307C21.1739 28.9307 17.6533 27.566 17.6533 25.8826C17.6533 24.1994 21.1739 22.8347 25.5167 22.8347Z" fill="white"/>
<path d="M53.3143 21.9977L62.0216 25.4385L53.3218 28.876L53.3143 21.9977Z" fill="#621B1C"/>
<path d="M43.6813 25.8082L53.3143 21.9977L53.3218 28.876L52.3773 29.2455L43.6813 25.8082Z" fill="#9A2928"/>
</g>
<defs>
<clipPath id="clip0_241_433">
<rect width="64" height="54.9888" fill="white" transform="translate(7 13)"/>
</clipPath>
</defs>
</svg>
