<?xml version="1.0" encoding="UTF-8"?><svg id="b" xmlns="http://www.w3.org/2000/svg" width="180" height="239.84" viewBox="0 0 180 239.84"><defs><style>.d{fill:#fff;}.e{fill:#c4996c;}.f{fill:#8d38c9;}</style></defs><g id="c"><path class="d" d="m17.16,169.33c.24.91.54,1.79.81,2.68,9.01,30.65,37.85,53.08,72.02,53.09,34.17,0,63.01-22.44,72.02-53.09.27-.89.58-1.77.81-2.68l.46-1.39c.13-.54.43-1.29.83-2.12l-13.82-15.97s-1.39-2.32-3.25-3.71c-2.78-2.78-2.78-6.03,0-7.42,0,0-.46-1.86-2.32-1.86v-2.32h-4.18s1.39-.93,1.39-3.25c0-1.86-1.39-2.78-3.25-4.18-1.86-1.39-2.78-2.78-1.39-3.71,0,0,.93.46.46,1.39,0,0,.93,0,.93-.93,0,0,.93.46,1.86,0,.46-.46.93-1.39.93-1.39,0,0-.93.46-1.39,0-.46,0-.93-.46-.93-.46h1.39c.46,0,.93.46,1.86,0,.93-.46,1.39-1.39,1.39-2.78,0,0-.93.46-1.86.46,0,0,.93-.93,1.39-2.32,0-1.39,0-4.64-1.86-5.57,0,0,.93,1.86-.93,3.71l-3.25,2.78s0-.46-.93-1.39c0,0,0,.93-.93,1.86-.46.46-.93.93-1.39,1.86v-11.13s.46-1.39.93-1.39c0,0-.46-.93-1.39-.93v-.93c0-.46,1.86-1.39,1.86-2.78s-1.39-1.39-1.39-1.39v-1.39s.93-.46.93-1.39-.93-.93-.93-.93v-3.25s.46-1.39,1.39-2.32v-.93h-1.86v-11.13l-.93-1.86h-.46l-.93,1.86v9.28h-3.71v.93c.93.93,1.39,2.32,1.39,2.32v3.25s-.93,0-.93.93.93.93.93,1.39v1.39s-1.39,0-1.39,1.39,1.86,2.32,1.86,2.78v.93c-.93,0-1.39.93-1.39.93.46.46.93,1.39.93,1.39v19.95c-.93-.46-1.86-2.32-1.86-4.64-.46-1.39-.46-3.25-1.39-4.64,0,0-.46.46-.93.93v-1.86c-.46-2.32-2.32-4.18-3.25-5.1,0,0,1.86-.93,1.86-2.32s-.46-3.25-1.86-4.18c-1.39-1.39-2.32-2.78-.93-3.71,0,0,.93.46.46,1.39,0,0,.93,0,.93-.93,0,0,.93.46,1.86,0,.46-.46.93-.93.93-.93h-1.39c-.46,0-.93-.46-.93-.46h1.39c.46,0,1.39.46,1.86,0,.93-.46,1.39-1.86,1.39-2.78,0,0-.93.46-1.86.46,0,0,.93-.93,1.39-2.32.46-1.39.46-4.18-1.39-5.1,0,0,.93,1.86-.93,3.71l-2.78,2.78s0-.46-.46-.93c0,0,0,.46-.93,1.39-.46.93-1.39,1.39-1.39,1.86v-8.35s.46-1.39.93-1.39c0,0-.46-.93-1.39-.93v-.93c0-.46,1.86-1.39,1.86-2.78s-1.39-1.39-1.39-1.39v-1.39s.93-.46.93-1.39-.93-.93-.93-.93v-3.25s.46-1.39,1.39-2.32v-.93h-1.86v-11.13l-.93-1.86h-.46l-.93,1.86v11.13h-1.86v.93c.93.93,1.39,2.32,1.39,2.32v3.25s-.93,0-.93.93.93.93.93,1.39v1.39s-1.39,0-1.39,1.39,1.86,2.32,1.86,2.78v.93c-.93,0-1.39.93-1.39.93.46.46.93,1.39.93,1.39v16.7c-.93-.46-1.86-2.32-1.86-4.18-.46-1.86-.46-3.25-1.39-4.64,0,0-.93.46-1.39.93v-1.86c-.46-2.32-2.32-3.71-3.25-4.64,0,0,1.86-.93,1.86-2.78,0-.93-.93-2.32-1.86-3.71-.93-1.39-2.32-2.78-.93-3.25,0,0,.93,0,.46.93,0,0,.93,0,.93-.93,0,0,.93.46,1.86,0,.46-.46.93-.93.93-.93h-.93c-.46,0-.93-.46-.93-.46h1.39s.93.46,1.39,0,.93-1.86.93-2.78c0,0-.46.46-1.39.46,0,0,.93-.93,1.39-2.32.46-.93.46-3.71-1.39-4.64,0,0,.46,1.86-.93,3.25l-2.78,2.78s.46-.46-.46-.93c0,0,0,.46-.93,1.39-.46.46-.93.93-1.39,1.39v-9.28s.46-1.39.93-1.39c0,0-.46-.93-1.39-.93v-.93c0-.46,1.86-1.39,1.86-2.78s-1.39-1.39-1.39-1.39v-1.39s.93-.46.93-1.39-.93-.93-.93-.93v-3.25s.46-1.39,1.39-2.32v-.93h-1.86v-11.13l-.93-1.86h-.93l-.93,1.86v11.13h-1.86v.93c.93.93,1.39,2.32,1.39,2.32v3.25s-.93,0-.93.93.93.93.93,1.39v1.39s-1.39,0-1.39,1.39,1.86,2.32,1.86,2.78v.93c-.93,0-1.39.93-1.39.93.46.46.93,1.39.93,1.39v16.7c-.93-.46-1.86-2.32-1.86-4.18-.46-1.86-.46-3.25-1.39-4.64,0,0-.93.46-1.39.93v-1.86c-.46-2.32-3.25-3.25-3.25-4.18,0,0,0-.46.93-.93,1.39,0,2.32-.93,2.32-1.86,0-1.86-.93-2.78-.93-2.78,0,0,0,.46-.93.93,0,0,.93-.93-.46-1.86-1.39-.93-1.39-1.39-1.39-1.39,0,0-.46,0-.46.93,0,0-.46-.46-.46-.93,0,0,.46-.46.46-.93s-.93-1.39-.93-1.39v-8.35s.46-1.39.93-1.39c0,0-.46-.93-1.39-.93v-.93c0-.46,1.86-1.39,1.86-2.78s-1.39-1.39-1.39-1.39v-1.39s.93-.46.93-1.39-.93-.93-.93-.93v-3.25s.46-1.39,1.39-2.32v-.93h-1.86v-10.67l-.93-1.86h-.46l-2.32,1.86v10.67h-1.86v.93c.93.93,1.39,2.32,1.39,2.32v3.25s-.93,0-.93.93.93.93.93,1.39v1.39s-1.39,0-1.39,1.39,1.86,2.32,1.86,2.78v.93c-.93,0-1.39.93-1.39.93.46.46.93,1.39.93,1.39v8.35s-.93.93-.93,1.39.46.46.46.93-.46.93-.46.93c0-.46-.46-.93-.46-.93,0,0,0,.46-1.39,1.39-1.39.93-.46,1.86-.46,1.86-.93,0-.93-.93-.93-.93,0,0-1.39,1.39-.93,2.78.46.46.93,1.39,2.32,1.86,1.39,0,.93.93.93.93,0,.93-2.78,1.86-3.25,4.18v1.86c-.93,0-1.39-.93-1.39-.93-.93,1.39-1.39,2.78-1.39,4.64-.46,1.86-.93,3.71-1.86,4.18v-16.7s.46-1.39.93-1.39c0,0-.46-.93-1.39-.93v-.93c0-.46,1.86-1.39,1.86-2.78s-1.39-1.39-1.39-1.39v-1.39s.93-.46.93-1.39-.93-.93-.93-.93v-3.25s.46-1.39,1.39-2.32v-.93h-1.86v-11.13l-.93-1.86h-.46l-.93,1.86v11.13h-1.86v.93c.93.93,1.39,2.32,1.39,2.32v3.25s-.93,0-.93.93.93.93.93,1.39v1.39s-1.39,0-1.39,1.39,1.86,2.32,1.86,2.78v.93c-.93,0-1.39.93-1.39.93.46.46.93,1.39.93,1.39v9.28c-.46-.46-.93-.93-1.39-1.39-.93-.46-.93-1.39-.93-1.39-.46.46-.46.93-.46.93l-2.78-2.78c-1.39-1.39-.93-3.25-.93-3.25-1.86.93-1.86,3.25-1.39,4.64.46,1.39,1.39,2.32,1.39,2.32-.93,0-1.39-.46-1.39-.46,0,1.39.46,2.32.93,2.78.46.46.93,0,1.39,0h1.39s-.46.46-.93.46h-.93s0,.46.93.93,1.86,0,1.86,0c0,.93.93.93.93.93-.46-.93.46-.93.46-.93.93.46,0,2.32-.93,3.25-.93,1.39-1.86,2.78-1.86,3.71.46,1.86,1.86,2.78,1.86,2.78-.93.93-2.78,2.32-3.25,4.64v1.86c-.93,0-1.39-.93-1.39-.93-.93,1.39-1.39,2.78-1.39,4.64-.46,1.86-.93,3.71-1.86,4.18v-14.85s.46-1.39.93-1.39c0,0-.46-.93-1.39-.93v-.93c0-.46,1.86-1.39,1.86-2.78s-1.39-1.39-1.39-1.39v-1.39s.93-.46.93-1.39-.93-.93-.93-.93v-3.25s.46-1.39,1.39-2.32v-.93h-1.86v-11.13l-.93-1.86h-.93l-.93,1.86v11.13h-1.86v.93c.93.93,1.39,2.32,1.39,2.32v3.25s-.93,0-.93.93.93.93.93,1.39v1.39s-1.39,0-1.39,1.39,1.86,2.32,1.86,2.78v.93c-.93,0-1.39.93-1.39.93.46.46.93,1.39.93,1.39v8.35c0-.46-.46-1.39-1.39-1.86-.93-.93-.93-1.39-.93-1.39-.46.46-.46.93-.46.93l-2.78-2.78c-1.86-1.86-.93-3.71-.93-3.71-1.86.93-1.86,3.71-1.39,5.1.46,1.39,1.39,2.32,1.39,2.32-1.39,0-1.86-.46-1.86-.46,0,.93.93,2.32,1.39,2.78.93.46,1.39,0,1.86,0h1.39s-.46.46-.93.46h-1.39s0,.46.93.93c.93.46,1.86,0,1.86,0-.46.93.93.93.93.93-.46-1.39.46-1.39.46-1.39,1.39.93.93,2.32-.93,3.71-1.39.93-1.86,3.25-1.86,4.18.46,1.39,1.86,2.32,1.86,2.32-.93.93-2.78,2.78-3.25,5.1v1.86c-.46,0-.93-.93-.93-.93-.93,1.39-1.39,2.78-1.39,4.64-.46,1.86-.93,4.18-1.86,4.64v-19.95s.46-1.39.93-1.39c0,0-.46-.93-1.39-.93v-.93c0-.46,1.86-1.39,1.86-2.78s-1.39-1.39-1.39-1.39v-1.39s.93-.46.93-1.39-.93-.93-.93-.93v-3.25s.46-1.39,1.39-2.32v-.93h-1.86v-11.13l-.93-1.86h-.46l-.93,1.86v11.13h-1.86v.93c.93.93,1.39,2.32,1.39,2.32v3.25s-.93,0-.93.93.93.93.93,1.39v1.39s-1.39,0-1.39,1.39,1.86,2.32,1.86,2.78v.93c-.93,0-1.39.93-1.39.93.46.46.93,1.39.93,1.39v11.13c-.46-.93-.93-1.39-1.39-1.86-.93-.93-.93-1.86-.93-1.86-.93.93-.93,1.39-.93,1.39l-3.25-2.78c-1.86-1.86-.93-3.71-.93-3.71-2.32,1.39-2.32,4.18-1.86,5.57,0,.93,1.39,2.32,1.39,2.32-.93,0-1.86-.46-1.86-.46,0,.93.46,2.32,1.39,2.78.93.46,1.39,0,1.86,0,.46-.46,1.39,0,1.39,0,0,0-.46,0-.93.46h-1.39s0,.93.93,1.39,1.86,0,1.86,0c-.46.93.93.93.93.93-.46-.93.46-1.39.46-1.39,1.39.93.46,2.32-1.39,3.71-2.32,1.39-3.25,2.32-3.25,4.18,0,2.32,1.39,3.25,1.39,3.25h-4.18v2.32c-1.86,0-2.32,1.86-2.32,1.86,2.78,1.39,2.78,4.64,0,7.42-1.86,1.86-3.25,3.71-3.25,3.71l-13.91,15.72.06.2c.41.85.72,1.63.86,2.17l.46,1.39Z"/><path class="e" d="m176.29,169.79c1.39-.46,2.32-2.32,2.32-2.78.93-5.57,1.39-11.13,1.39-16.7-.93,4.18-5.57,6.49-9.74,8.81-4.64,2.78-6.49,6.96-6.96,8.81l-.46,1.39c-.24.91-.54,1.79-.81,2.68-9.01,30.65-37.85,53.08-72.02,53.09-34.17,0-63.01-22.44-72.02-53.09-.27-.89-.58-1.77-.81-2.68l-.46-1.39c-.46-1.86-2.32-6.03-6.96-8.81-4.18-2.32-8.81-4.64-9.74-8.81,0,5.57.46,11.13,1.39,16.7,0,.46.93,2.32,2.32,2.78,1.39.46,2.78.46,3.25-.46,0,0,.46,1.39-.93,2.32-.93.46-3.25.46-3.71,0,.03.12.08.24.11.36,9.39,38.87,45.04,67.83,87.57,67.83,42.54,0,78.18-28.96,87.57-67.83.03-.12.08-.24.11-.36-.46.46-2.78.46-3.71,0-1.39-.93-.93-2.32-.93-2.32.46.93,1.86.93,3.25.46Z"/><polygon class="d" points="90.46 229.18 88.61 228.71 89.07 229.18 86.75 232.42 84.43 229.18 84.9 228.71 82.58 228.71 83.04 229.18 85.82 233.81 85.82 236.6 85.36 237.06 87.68 237.06 87.22 236.6 87.22 233.81 90.46 229.18"/><polygon class="d" points="75.15 227.32 73.76 227.32 72.37 228.25 75.15 228.71 74.23 235.21 73.76 235.67 76.08 236.13 75.62 235.21 76.55 228.71 78.87 229.18 80.26 228.25 77.47 227.78 75.15 227.32"/><polygon class="d" points="67.27 225.93 65.41 232.89 64.95 233.35 67.27 233.81 66.8 233.35 68.66 226.39 69.12 225.93 66.8 225.46 67.27 225.93"/><path class="d" d="m51.96,222.68l1.39-2.32-.93-.93-5.1-2.78v.46l-3.71,6.49h-.46l2.32.93,1.39-2.78h.46l.93,3.71v.46l2.32,1.39-1.39-4.64.93.46,1.86-.46Zm-4.64-2.32l1.39-2.32,2.78,1.86-1.39,2.32-2.78-1.86Z"/><polygon class="d" points="63.09 225 61.7 223.61 57.06 221.75 57.06 222.22 56.13 225 56.6 226.39 59.38 227.32 58.45 229.64 56.13 228.71 54.28 227.78 54.74 229.18 59.85 231.03 59.85 230.57 61.24 227.32 60.77 225.93 57.99 225 58.92 223.14 63.09 225"/><polygon class="d" points="24.59 193.92 23.2 191.6 23.2 192.06 19.95 193.45 20.88 188.81 19.95 186.96 19.95 187.42 13.45 191.13 12.99 191.13 14.38 193.45 19.95 189.74 19.02 194.38 16.7 195.77 16.24 195.77 17.63 198.09 17.63 197.63 24.12 193.92 24.59 193.92"/><polygon class="d" points="42.22 214.33 44.07 214.33 39.43 210.62 39.43 211.08 34.33 216.65 33.87 216.65 38.97 220.82 38.97 218.97 36.19 217.11 37.58 215.26 39.9 217.11 39.9 217.58 41.29 216.19 40.82 216.19 38.51 213.87 39.9 212.47 42.22 214.33"/><polygon class="d" points="18.09 182.78 17.17 180.46 17.17 180.93 12.53 182.78 10.67 183.71 9.28 180.46 15.77 178.14 16.24 178.14 15.31 175.82 15.31 176.29 8.81 179.07 8.35 180.46 10.67 185.57 10.67 185.1 17.63 182.78 18.09 182.78"/><polygon class="d" points="28.3 199.48 26.91 197.63 26.91 198.09 20.88 202.73 21.8 204.59 21.8 204.12 27.84 199.48 28.3 199.48"/><polygon class="d" points="35.72 208.3 33.87 206.44 33.87 206.91 29.69 208.3 31.08 204.12 31.55 204.12 29.69 202.27 29.69 202.73 27.37 211.08 35.26 208.3 35.72 208.3"/><polygon class="d" points="155.41 193.92 155.41 193.45 154.02 195.31 154.48 195.31 155.88 199.02 152.16 198.56 152.16 198.09 150.77 199.95 151.24 199.95 156.34 200.41 158.66 202.27 158.66 202.73 159.59 200.88 157.27 199.02 155.41 193.92"/><path class="d" d="m170.72,180.46l-.46-1.39-6.03-2.32v-.46l-1.86,5.1.46,1.39,6.03,2.32v.46l1.86-5.1Zm-6.96.46l.93-2.78,5.1,2.32-.93,2.78-5.1-2.32Z"/><polygon class="d" points="146.13 204.59 148.92 212.47 148.92 212.94 150.77 211.08 150.31 211.08 148.45 206.44 153.09 208.3 153.09 208.76 154.95 206.91 154.48 206.91 146.13 204.59"/><polygon class="d" points="158.66 188.81 163.3 195.31 163.3 195.77 164.23 193.92 163.76 193.92 160.98 190.21 165.62 190.67 165.62 191.13 166.55 189.28 166.08 189.28 158.66 188.81"/><polygon class="d" points="117.37 227.32 114.59 228.25 114.12 226.39 116.91 225.46 117.83 224.07 111.8 225.93 112.27 226.39 114.59 232.89 114.12 233.35 116.44 232.42 115.98 231.96 115.52 231.03 115.05 229.18 117.83 228.25 118.3 228.71 117.83 226.86 117.37 227.32"/><polygon class="d" points="140.57 210.15 138.71 211.55 139.18 211.55 141.03 213.87 138.25 215.72 136.39 213.4 136.39 212.94 134.54 214.33 135 214.33 139.64 220.36 139.64 220.82 141.49 219.43 141.03 219.43 139.18 216.65 141.96 214.79 143.81 217.58 143.81 218.04 145.67 216.19 140.57 210.62 140.57 210.15"/><path class="d" d="m133.14,220.36l-1.39-2.32-1.86-.46-5.1,2.78h.46l3.71,6.49v.46l2.32-.93h-.46l-1.39-2.32,3.25-1.86.46-1.86Zm-4.18,2.32l-1.39-2.32,2.78-1.39,1.39,2.32-2.78,1.39Z"/><path class="d" d="m105.77,227.32l.46-.46-5.1.93-.93,1.39.93,6.49-.46.46,5.1-.93.93-1.39-.93-6.49Zm-3.25,7.42l-.93-5.57,2.78-.46.93,5.57-2.78.46Z"/><path class="d" d="m116.44,55.67c0-.93-.93-1.86-.93-1.86,0,.46,0,.93-.46,1.86-.93,1.39-.46,2.32.46,2.78,1.39.93,2.32,1.39,2.32,1.86,0-.46.93-.93,2.32-1.86.93-.46,1.39-1.39.46-2.78-.46-.93-.46-1.39-.46-1.86,0,0-.93.93-.93,1.86,0,0-.46,0-.46-.46s.93-.93.46-1.86c-.46-.93-1.39-2.32-1.39-3.25,0,.93-.93,2.32-1.39,3.25-.46.93.46,1.39.46,1.86s-.46.46-.46.46Z"/><path class="d" d="m102.06,36.19c0-.93-.93-1.86-.93-1.86,0,.46,0,.93-.46,1.86-.93,1.39-.46,2.32.46,2.78,1.39.93,2.32,1.39,2.32,1.86,0-.46.93-.93,2.32-1.86.93-.46,1.39-1.39.46-2.78-.46-.93-.46-1.39-.46-1.86,0,0-.93.93-.93,1.86,0,0-.46,0-.46-.46s.93-.93.46-1.86c-.46-.93-1.39-2.32-1.39-3.25,0,.46-1.39,2.32-1.39,3.25-.46.93.46,1.39.46,1.86s-.46.46-.46.46Z"/><path class="d" d="m74.69,36.19c0-.93-.93-1.86-.93-1.86,0,.46,0,.93-.46,1.86-.93,1.39-.46,2.32.46,2.78,1.39.93,2.32,1.39,2.32,1.86,0-.46.93-.93,2.32-1.86.93-.46,1.39-1.39.46-2.78-.46-.93-.46-1.39-.46-1.86,0,0-.93.93-.93,1.86,0,0-.46,0-.46-.46s.93-.93.46-1.86c-.46-.93-1.39-2.32-1.39-3.25,0,.93-.93,2.32-1.39,3.25-.46.93.46,1.39.46,1.86s-.46.46-.46.46Z"/><path class="d" d="m130.82,72.83c0-.93-.93-1.86-.93-1.86,0,.46,0,.93-.46,1.86-.93,1.39-.46,2.32.46,2.78,1.39.93,2.32,1.39,2.32,1.86,0-.46.93-.93,2.32-1.86.93-.46,1.86-1.39.46-2.78-.46-.93-.46-1.39-.46-1.86,0,0-.93.93-.93,1.86,0,0-.46,0-.46-.46s.93-.93.46-1.86-1.39-2.32-1.39-3.25c0,.93-.93,2.32-1.39,3.25-.46.93.46,1.39.46,1.86s-.46.46-.46.46Z"/><path class="d" d="m87.22,22.73c1.39.93,2.32,1.39,2.32,1.86,0-.46.93-.93,2.32-1.39.93-.46,1.86-1.86.46-2.78-.46-.93-.46-1.39-.46-1.86,0,0-.93.93-.93,1.86,0,0-.46,0-.46-.46s.93-.93.46-1.86c-.46-.93-1.39-2.32-1.39-3.25,0,.46-.93,1.86-1.39,2.78-.46.93.46,1.39.46,1.86s-.46.46-.46.46c0-.93-.93-1.86-.93-1.86,0,.46,0,.93-.46,1.86-.93,1.39-.46,2.32.46,2.78Z"/><path class="d" d="m60.31,55.67c0-.93-.93-1.86-.93-1.86,0,.46,0,.93-.46,1.86-.93,1.39-.46,2.32.46,2.78,1.39.93,2.32,1.39,2.32,1.86,0-.46.93-.93,2.32-1.86.93-.46,1.39-1.39.46-2.78-.46-.93-.46-1.39-.46-1.86,0,0-.93.93-.93,1.86,0,0-.46,0-.46-.46s.93-.93.46-1.86c-.46-.93-1.39-2.32-1.39-3.25,0,.93-.93,2.32-1.39,3.25-.46.93.46,1.39.46,1.86s-.46.46-.46.46Z"/><path class="d" d="m45.46,70.52c-.46.93.46,1.39.46,1.86s-.46.46-.46.46c0-.93-.93-1.86-.93-1.86,0,.46,0,.93-.46,1.86-.93,1.39-.46,2.32.46,2.78,1.39.93,2.32,1.39,2.32,1.86,0-.46.93-.93,2.32-1.86.93-.46,1.86-1.39.46-2.78-.46-.93-.46-1.39-.46-1.86,0,0-.93.93-.93,1.86,0,0-.46,0-.46-.46s.93-.93.46-1.86c-.46-.91-1.36-2.28-1.38-3.2l-.02.03c-.04.93-.92,2.27-1.38,3.17Z"/><polygon class="f" points="34.33 174.43 35.26 174.9 33.87 171.19 33.87 172.11 24.59 175.36 24.59 174.43 26.91 169.33 32.47 167.47 31.55 163.76 30.62 165.62 21.8 168.4 20.41 167.94 21.34 171.19 24.59 170.26 22.27 174.43 23.66 178.61 24.12 177.68 34.33 174.43"/><polygon class="f" points="30.15 189.28 32.01 192.53 32.01 191.6 37.58 188.35 38.51 185.1 41.75 185.57 39.9 182.78 38.97 183.25 33.87 182.32 38.04 179.54 36.19 176.75 35.72 178.14 26.91 183.71 25.98 183.25 27.84 186.03 32.01 183.25 36.65 184.64 36.19 186.03 30.62 189.74 30.15 189.28"/><polygon class="f" points="47.32 192.99 48.25 192.99 43.14 187.42 40.82 187.42 44.54 192.06 37.58 198.56 36.65 198.56 39.43 200.88 39.43 199.95 47.32 192.99"/><polygon class="f" points="92.78 210.15 93.25 209.69 85.82 209.69 84.43 211.55 90.46 211.55 90.46 220.82 90 221.75 93.25 221.75 92.78 220.82 92.78 210.15"/><polygon class="f" points="147.99 165.15 147.53 164.23 145.67 171.19 147.06 173.5 148.45 167.47 157.73 170.26 158.2 171.19 159.12 167.47 158.66 167.94 147.99 165.15"/><polygon class="f" points="50.1 192.53 52.89 192.06 59.38 197.63 56.6 197.63 50.1 192.53"/><polygon class="f" points="55.67 200.41 56.6 199.95 50.1 194.85 47.32 195.31 53.35 199.48 48.25 206.44 46.86 205.52 44.07 205.52 49.64 209.69 49.18 208.76 55.67 200.41"/><polygon class="f" points="60.77 215.72 64.02 217.11 64.02 216.19 68.66 206.44 69.12 206.44 65.41 204.59 60.77 206.44 62.17 203.2 58.92 201.34 59.85 203.2 55.21 212.47 54.28 212.47 57.53 213.87 57.53 213.4 59.85 208.3 65.41 206.44 65.88 206.91 61.7 215.26 60.77 215.72"/><polygon class="f" points="72.37 207.83 71.91 207.37 78.4 208.3 76.08 209.69 74.23 209.69 73.76 212.47 76.08 212.94 77.01 212.47 76.08 216.19 75.62 215.26 73.3 214.79 72.84 217.58 77.94 218.97 79.79 209.23 79.33 208.76 83.04 209.69 82.11 210.15 79.79 220.36 80.26 221.29 69.12 218.97 70.05 218.5 70.98 214.79 72.84 213.4 71.44 211.55 72.37 207.83"/><polygon class="f" points="109.02 207.37 108.09 206.91 114.12 204.59 113.2 206.91 111.8 207.37 112.73 210.15 115.05 209.23 115.52 208.3 116.91 211.55 115.98 211.55 114.12 212.47 115.05 215.26 120.15 212.94 115.98 204.12 115.52 204.12 118.76 202.27 118.3 203.2 122.94 212.94 123.4 213.4 113.2 218.04 113.66 217.11 111.8 213.87 112.73 211.55 110.41 210.62 109.02 207.37"/><polygon class="f" points="140.57 182.78 139.64 183.25 142.89 177.22 143.35 179.54 142.42 181.39 145.21 182.78 146.6 180.46 146.13 180 149.38 181.39 148.45 181.86 147.53 183.71 149.85 185.1 152.63 180.46 144.28 175.82 143.35 176.29 145.21 173.04 145.21 173.97 154.95 179.07 155.41 178.61 150.31 188.81 149.85 187.89 146.6 186.49 146.13 183.71 143.81 184.64 140.57 182.78"/><polygon class="f" points="129.9 194.85 129.9 193.92 127.11 196.24 128.04 196.24 133.14 203.2 128.97 202.27 128.51 206.44 122.94 199.48 120.15 201.8 122.01 202.27 128.04 210.15 128.04 211.08 130.36 209.23 129.9 208.76 130.36 204.12 134.54 205.05 135 205.52 137.32 203.66 136.39 203.2 129.9 194.85"/><polygon class="f" points="136.39 187.89 136.86 187.89 145.67 193.92 146.13 194.85 148.45 191.6 146.6 191.6 138.25 186.03 138.25 185.1 136.39 187.89"/><polygon class="f" points="105.31 208.3 105.77 207.83 97.42 209.23 96.03 211.55 102.99 210.15 104.85 217.11 99.74 213.87 97.42 214.33 98.81 221.29 102.53 220.82 101.13 219.9 100.21 216.19 105.31 219.43 105.31 219.9 108.09 219.43 107.63 218.97 105.31 208.3"/><polygon class="f" points="102.06 203.66 104.85 203.2 103.92 204.59 108.09 203.66 106.7 205.52 102.53 206.91 102.06 203.66"/><polygon class="f" points="132.68 193.92 134.54 192.06 134.54 193.45 137.32 190.67 137.78 192.99 135 196.24 132.68 193.92"/><polygon class="f" points="136.39 197.63 138.71 195.77 138.71 197.16 141.49 193.92 141.49 196.7 138.71 199.95 136.39 197.63"/><path class="f" d="m127.11,159.59v-13.45c0-.46,0-.93.46-1.39s.93-1.39,1.39-1.86c.46-.46,1.39-.93,1.86-.46v-7.42c-1.39,0-3.25.46-4.18.93-1.86.93-3.71,2.32-4.64,4.18-1.39,1.86-1.86,3.71-1.86,6.03v16.7l6.03,6.03-6.03,6.03-7.42-7.42v-32.01h-7.42v32.01l-7.42,7.42-6.49-6.03h0l6.03-6.03v-16.7c0-6.03-5.1-11.13-11.13-11.13h-11.13c0,6.49,0-.46,0,26.44v1.39l6.03,6.03-6.03,6.03-13.45-13.45,2.32-2.32v-12.99c0-6.03-5.1-11.13-11.13-11.13h-3.71v7.42h3.25c1.86,0,3.71,1.86,3.71,3.71v9.74l-12.99,12.99,16.7,16.7,7.42-7.42,7.42,7.42,11.13-11.13,11.13,11.13,11.13-11.13,11.13,11.13,16.7-16.7-8.81-9.28Zm-67.27,15.31l-6.03-6.03,2.32-2.32,6.03,6.03-2.32,2.32Zm22.27-15.31v-17.16h3.71c1.86,0,3.71,1.86,3.71,3.71v13.45l-3.71,3.71-3.71-3.71Z"/><path class="f" d="m123.4,22.73C96.96,9.74,89.54,0,89.54,0c0,0-7.42,9.74-33.87,22.27-14.38,7.42-29.69,15.77-29.69,38.04,0,10.67,3.71,89.54,3.71,89.54,0,0,1.39-1.86,3.25-3.71,2.78-2.78,2.78-6.03,0-7.42,0,0,.46-1.86,2.32-1.86v-2.32h4.18s-1.39-.93-1.39-3.25c0-1.86.93-2.78,3.25-4.18,1.86-1.39,2.78-2.78,1.39-3.71,0,0-.93.46-.46,1.39,0,0-1.39,0-.93-.93,0,0-.93.46-1.86,0s-.93-1.39-.93-1.39h1.39c.46-.46.93-.46.93-.46,0,0-.93-.46-1.39,0-.46,0-.93.46-1.86,0s-1.39-1.86-1.39-2.78c0,0,.93.46,1.86.46,0,0-1.39-1.39-1.39-2.32-.46-1.39-.46-4.18,1.86-5.57,0,0-.93,1.86.93,3.71l3.25,2.78s0-.46.93-1.39c0,0,0,.93.93,1.86.46.46.93.93,1.39,1.86v-11.13s-.46-.93-.93-1.39c0,0,.46-.93,1.39-.93v-.93c0-.46-1.86-1.39-1.86-2.78s1.39-1.39,1.39-1.39v-1.39c0-.46-.93-.46-.93-1.39s.93-.93.93-.93v-3.25s-.46-1.39-1.39-2.32v-.93h1.86v-11.13l.93-1.86h.46l.93,1.86v11.13h1.86v.93c-.93.93-1.39,2.32-1.39,2.32v3.25s.93,0,.93.93-.93,1.39-.93,1.39v1.39s1.39,0,1.39,1.39-1.86,2.32-1.86,2.78v.93c.93,0,1.39.93,1.39.93-.46,0-.93,1.39-.93,1.39v19.95c.93-.46,1.39-2.78,1.86-4.64,0-1.86.46-3.25,1.39-4.64,0,0,.46.93.93.93v-1.86c.46-2.32,2.32-4.18,3.25-5.1,0,0-1.39-.93-1.86-2.32,0-.93.46-3.25,1.86-4.18,1.86-1.39,2.32-2.78.93-3.71,0,0-.93,0-.46,1.39,0,0-1.39,0-.93-.93,0,0-.93.46-1.86,0s-.93-.93-.93-.93h1.39c.46,0,.93-.46.93-.46h-1.39c-.46,0-.93.46-1.86,0-.46-.46-1.39-1.86-1.39-2.78,0,0,.46.46,1.86.46,0,0-.93-.93-1.39-2.32s-.46-4.18,1.39-5.1c0,0-.93,1.86.93,3.71l2.78,2.78s0-.46.46-.93c0,0,0,.46.93,1.39.93.46,1.39,1.39,1.39,1.86v-8.35s-.46-.93-.93-1.39c0,0,.46-.93,1.39-.93v-.93c0-.46-1.86-1.39-1.86-2.78s1.39-1.39,1.39-1.39v-1.39c0-.46-.93-.46-.93-1.39s.93-.93.93-.93v-3.25s-.46-1.39-1.39-2.32v-.93h1.86v-11.13l.93-1.86h.93l.93,1.86v11.13h1.86v.93c-.93.93-1.39,2.32-1.39,2.32v3.25s.93,0,.93.93-.93,1.39-.93,1.39v1.39s1.39,0,1.39,1.39-1.86,2.32-1.86,2.78v.93c.93,0,1.39.93,1.39.93-.46,0-.93,1.39-.93,1.39v14.85c.93-.46,1.39-2.32,1.86-4.18,0-1.86.46-3.25,1.39-4.64,0,0,.46.93,1.39.93v-1.86c.46-2.32,2.32-3.71,3.25-4.64,0,0-1.39-.93-1.86-2.78,0-.93.93-2.32,1.86-3.71.93-.93,1.86-2.78.93-3.25,0,0-.93,0-.46.93,0,0-.93,0-.93-.93,0,0-.93.46-1.86,0s-.93-.93-.93-.93h.93c.46,0,.93-.46.93-.46h-1.39c-.46,0-.93.46-1.39,0s-.93-1.39-.93-2.78c0,0,.46.46,1.39.46,0,0-.93-.93-1.39-2.32s-.46-3.71,1.39-4.64c0,0-.46,1.86.93,3.25l2.78,2.78s0-.46.46-.93c0,0,0,.93.93,1.39l1.39,1.39v-9.28s-.46-.93-.93-1.39c0,0,.46-.93,1.39-.93v-.93c0-.46-1.86-1.39-1.86-2.78s1.39-1.39,1.39-1.39v-1.39c0-.46-.93-.46-.93-1.39s.93-.93.93-.93v-3.25s-.46-1.39-1.39-2.32v-.93h1.86v-11.13l.93-1.86h.46l.93,1.86v11.13h1.86v.93c-.93.93-1.39,2.32-1.39,2.32v3.25s.93,0,.93.93-.93,1.39-.93,1.39v1.39s1.39,0,1.39,1.39-1.86,2.32-1.86,2.78v.93c.93,0,1.39.93,1.39.93-.46,0-.93,1.39-.93,1.39v16.7c.93-.46,1.39-2.32,1.86-4.18,0-1.86.46-3.25,1.39-4.64,0,0,.46.93,1.39.93v-1.86c.46-2.32,3.25-3.25,3.25-4.18,0,0,.46-.93-.93-.93-1.39-.46-1.86-1.39-2.32-1.86-.46-1.39.93-2.78.93-2.78,0,0,0,.93.93.93,0,0-.93-.93.46-1.86,1.39-.93,1.39-1.39,1.39-1.39,0,0,.46.46.46.93,0,0,.46-.46.46-.93s-.46-.46-.46-.93.93-1.39.93-1.39v-8.35s-.46-.93-.93-1.39c0,0,.46-.93,1.39-.93v-.93c0-.46-1.86-1.39-1.86-2.78s1.39-1.39,1.39-1.39v-1.39c0-.46-.93-.46-.93-1.39s.93-.93.93-.93v-3.25s-.46-1.39-1.39-2.32v-.93h1.86v-10.67l2.32-1.86h.46l.93,1.86v10.67h1.86v.93c-.93.93-1.39,2.32-1.39,2.32v3.25s.93,0,.93.93-.93,1.39-.93,1.39v1.39s1.39,0,1.39,1.39-1.86,2.32-1.86,2.78v.93c.93,0,1.39.93,1.39.93-.46,0-.93,1.39-.93,1.39v8.35s.93.93.93,1.39-.46.93-.46.93c0,.46.46.93.46.93,0-.93.46-.93.46-.93,0,0,0,.46,1.39,1.39,1.39.93.46,1.86.46,1.86.93-.46.93-.93.93-.93,0,0,.93.93.93,2.78,0,.93-.93,1.86-2.32,1.86-.93.46-.93.93-.93.93,0,.93,2.78,1.86,3.25,4.18v1.86c.46-.46,1.39-.93,1.39-.93.93,1.39.93,2.78,1.39,4.64,0,1.86.93,3.71,1.86,4.18v-16.7s-.46-.93-.93-1.39c0,0,.46-.93,1.39-.93v-.93c0-.46-1.86-1.39-1.86-2.78s1.39-1.39,1.39-1.39v-1.39c0-.46-.93-.46-.93-1.39s.93-.93.93-.93v-3.25s-.46-1.39-1.39-2.32v-.93h1.86v-11.13l.93-1.86h.93l.93,1.86v11.13h1.86v.93c-.93.93-1.39,2.32-1.39,2.32v3.25s.93,0,.93.93-.93,1.39-.93,1.39v1.39s1.39,0,1.39,1.39-1.86,2.32-1.86,2.78v.93c.93,0,1.39.93,1.39.93-.46,0-.93,1.39-.93,1.39v9.28l1.39-1.39c.93-.93.93-1.39.93-1.39.93.46.46.93.46.93l2.78-2.78c1.39-1.39.93-3.25.93-3.25,1.86.93,1.86,3.71,1.39,4.64-.46,1.39-1.39,2.32-1.39,2.32.93,0,1.39-.46,1.39-.46,0,.93-.46,2.32-.93,2.78s-1.39,0-1.39,0h-1.39s.46.46.93.46h.93l-.93.93c-.93.46-1.86,0-1.86,0,0,.93-.93.93-.93.93.46-.93-.46-.93-.46-.93-1.39.46,0,1.86.93,3.25.93,1.39,1.86,2.78,1.86,3.71,0,1.86-1.86,2.78-1.86,2.78.93.93,2.78,2.32,3.25,4.64v1.86c.46-.46,1.39-.93,1.39-.93.93,1.39.93,2.78,1.39,4.64,0,1.86.93,3.71,1.86,4.18v-16.7s-.46-.93-.93-1.39c0,0,.46-.93,1.39-.93v-.93c0-.46-1.86-1.39-1.86-2.78s1.39-1.39,1.39-1.39v-1.39c0-.46-.93-.46-.93-1.39s.93-.93.93-.93v-3.25s-.46-1.39-1.39-2.32v-.93h1.86v-11.13l.93-1.86h.46l.93,1.86v11.13h1.86v.93c-.93.93-1.39,2.32-1.39,2.32v3.25s.93,0,.93.93-.93,1.39-.93,1.39v1.39s1.39,0,1.39,1.39-1.86,2.32-1.86,2.78v.93c.93,0,1.39.93,1.39.93-.46,0-.93,1.39-.93,1.39v8.35c0-.46.93-.93,1.39-1.86.93-.93.93-1.39.93-1.39.46.46.46.93.46.93l2.78-2.78c1.86-1.86.93-3.71.93-3.71,1.86.93,1.86,3.71,1.39,5.1-.46,1.39-1.39,2.32-1.39,2.32.93,0,1.86-.46,1.86-.46,0,.93-.46,2.32-1.39,2.78-.46.46-1.39,0-1.86,0h-1.39s.46.46.93.46h1.39l-.93.93c-.93.46-1.86,0-1.86,0,0,.93-.93.93-.93.93.46-.93-.46-1.39-.46-1.39-1.39.93-.46,2.32.93,3.71,1.39.93,1.86,2.78,1.86,4.18s-1.86,2.32-1.86,2.32c.93.93,2.78,2.78,3.25,5.1v1.86l.93-.93c.93,1.39.93,3.25,1.39,4.64,0,2.32.93,4.18,1.86,4.64v-19.95s-.46-.93-.93-1.39c0,0,.46-.93,1.39-.93v-.93c0-.46-1.86-1.39-1.86-2.78s1.39-1.39,1.39-1.39v-1.39c0-.46-.93-.46-.93-1.39s.93-.93.93-.93v-3.25s-.46-1.39-1.39-2.32v-.93h3.71v-9.28l.93-1.86h.46l.93,1.86v11.13h1.86v.93c-.93.93-1.39,2.32-1.39,2.32v3.25s.93,0,.93.93-.93,1.39-.93,1.39v1.39s1.39,0,1.39,1.39-1.86,2.32-1.86,2.78v.93c.93,0,1.39.93,1.39.93-.46,0-.93,1.39-.93,1.39v11.13c.46-.93.93-1.39,1.39-1.86.93-.93.93-1.86.93-1.86.93.93.93,1.39.93,1.39l3.25-2.78c1.86-1.86.93-3.71.93-3.71,1.86.93,1.86,4.18,1.86,5.57-.46,1.39-1.39,2.32-1.39,2.32.93,0,1.86-.46,1.86-.46,0,1.39-.46,2.32-1.39,2.78-.93.46-1.39,0-1.86,0h-1.39s.46.46.93.46c.46.46,1.39,0,1.39,0,0,0-.46.93-.93,1.39-.93.46-1.86,0-1.86,0,0,.93-.93.93-.93.93.46-.93-.46-1.39-.46-1.39-1.39.93-.46,2.32,1.39,3.71s3.25,2.32,3.25,4.18c0,2.32-1.39,3.25-1.39,3.25h4.18v2.32c1.86,0,2.32,1.86,2.32,1.86-2.78,1.39-2.78,4.64,0,7.42,1.86,1.39,3.25,3.71,3.25,3.71,0,0,3.71-78.87,3.71-89.54-.46-22.27-15.77-30.62-30.62-37.58Zm-74.23,52.89c-1.39.93-2.32,1.39-2.32,1.86,0-.46-.93-.93-2.32-1.86-.93-.46-1.39-1.39-.46-2.78.46-.93.46-1.39.46-1.86,0,0,.93.93.93,1.86,0,0,.46,0,.46-.46s-.93-.93-.46-1.86,1.39-2.32,1.39-3.25c0,.93.93,2.32,1.39,3.25s-.46,1.39-.46,1.86.46.46.46.46c0-.93.93-1.86.93-1.86,0,.46,0,.93.46,1.86,1.39,1.39.46,2.32-.46,2.78Zm14.85-17.16c-1.39.93-2.32,1.39-2.32,1.86,0-.46-.93-.93-2.32-1.86-.93-.46-1.39-1.39-.46-2.78.46-.93.46-1.39.46-1.86,0,0,.93.93.93,1.86,0,0,.46,0,.46-.46s-.93-.93-.46-1.86c.46-.93,1.39-2.32,1.39-3.25,0,.93.93,2.32,1.39,3.25s-.46,1.39-.46,1.86.46.46.46.46c0-.93.93-1.86.93-1.86,0,.46,0,.93.46,1.86.93,1.39.46,2.32-.46,2.78Zm14.38-19.48c-1.39.93-2.32,1.39-2.32,1.86,0-.46-.93-.93-2.32-1.86-.93-.46-1.39-1.39-.46-2.78.46-.93.46-1.39.46-1.86,0,0,.93.93.93,1.86,0,0,.46,0,.46-.46s-.93-.93-.46-1.86,1.39-2.32,1.39-3.25c0,.93.93,2.32,1.39,3.25.46.93-.46,1.39-.46,1.86s.46.46.46.46c0-.93.93-1.86.93-1.86,0,.46,0,.93.46,1.86.93,1.39.46,2.32-.46,2.78Zm13.45-15.77c-1.39.46-2.32.93-2.32,1.39,0-.46-.93-.93-2.32-1.86-.93-.46-1.39-1.39-.46-2.78.46-.93.46-1.39.46-1.86,0,0,.93.93.93,1.86,0,0,.46,0,.46-.46s-.93-.93-.46-1.86c.46-.93,1.39-2.32,1.39-2.78,0,.93.93,2.32,1.39,3.25.46.93-.46,1.39-.46,1.86s.46.46.46.46c0-.93.93-1.86.93-1.86,0,.46,0,.93.46,1.86,1.39.93.46,2.32-.46,2.78Zm13.92,15.77c-1.39.93-2.32,1.39-2.32,1.86,0-.46-.93-.93-2.32-1.86-.93-.46-1.39-1.39-.46-2.78.46-.93.46-1.39.46-1.86,0,0,.93.93.93,1.86,0,0,.46,0,.46-.46s-.93-.93-.46-1.86c0-.93,1.39-2.78,1.39-3.25,0,.93.93,2.32,1.39,3.25.46.93-.46,1.39-.46,1.86s.46.46.46.46c0-.93.93-1.86.93-1.86,0,.46,0,.93.46,1.86.93,1.39.46,2.32-.46,2.78Zm14.38,19.48c-1.39.93-2.32,1.39-2.32,1.86,0-.46-.93-.93-2.32-1.86-.93-.46-1.39-1.39-.46-2.78.46-.93.46-1.39.46-1.86,0,0,.93.93.93,1.86,0,0,.46,0,.46-.46s-.93-.93-.46-1.86,1.39-2.32,1.39-3.25c0,.93.93,2.32,1.39,3.25.46.93-.46,1.39-.46,1.86s.46.46.46.46c0-.93.93-1.86.93-1.86,0,.46,0,.93.46,1.86.93,1.39.46,2.32-.46,2.78Zm14.38,17.16c-1.39.93-2.32,1.39-2.32,1.86,0-.46-.93-.93-2.32-1.86-.93-.46-1.39-1.39-.46-2.78.46-.93.46-1.39.46-1.86,0,0,.93.93.93,1.86,0,0,.46,0,.46-.46s-.93-.93-.46-1.86c.46-.93,1.39-2.32,1.39-3.25,0,.93.93,2.32,1.39,3.25.46.93-.46,1.39-.46,1.86s.46.46.46.46c0-.93.93-1.86.93-1.86,0,.46,0,.93.46,1.86,1.39,1.39.46,2.32-.46,2.78Z"/></g></svg>