<svg width="79" height="79" viewBox="0 0 79 79" fill="none" xmlns="http://www.w3.org/2000/svg">
<g clip-path="url(#clip0_221_286)">
<rect width="79" height="79" fill="#FFFFFA"/>
<g clip-path="url(#clip1_221_286)">
<path d="M37.965 104.68L90.1407 74.1387C91.6436 73.2589 93.0097 71.7396 94 70L32.5 34L-29 70.0004C-28.0097 71.7396 -26.6432 73.2593 -25.1407 74.1387L27.035 104.68C30.0405 106.44 34.9595 106.44 37.965 104.68Z" fill="#004482"/>
<path d="M103.295 77C104.347 75.1642 105 73.0957 105 71.2382V6.76134C105 4.90387 104.348 2.83584 103.296 1L38 39L103.295 77Z" fill="#00599C"/>
<path d="M97.4737 4.9998C96.5318 3.35682 95.2326 1.92198 93.8039 1.09101L44.1961 -27.7535C41.3384 -29.4155 36.6616 -29.4155 33.8039 -27.7535L-15.8039 1.09101C-18.662 2.75256 -21 6.83157 -21 10.155V67.8446C-21 69.5065 -20.4153 71.3572 -19.4733 72.9998L39 39L97.4737 4.9998Z" fill="#659AD2"/>
<path d="M36.5019 66C21.8887 66 10 54.1122 10 39.5C10 24.8878 21.8887 13 36.5019 13C45.9314 13 54.7256 18.074 59.4523 26.2417L47.983 32.8781C45.6173 28.7898 41.2177 26.25 36.5019 26.25C29.1952 26.25 23.251 32.1938 23.251 39.5C23.251 46.8059 29.1952 52.75 36.5019 52.75C41.2182 52.75 45.6178 50.2102 47.9838 46.1211L59.4531 52.7573C54.7264 60.9258 45.9319 66 36.5019 66Z" fill="white"/>
<path d="M58.7251 37.9487H55.7957V35.1251H52.8669V37.9487H49.9376V40.7723H52.8669V43.5962H55.7957V40.7723H58.7251V37.9487Z" fill="white"/>
<path d="M73 37.9169H70.0709V34.9672H67.1423V37.9169H64.2131V40.8666H67.1423V43.8166H70.0709V40.8666H73V37.9169Z" fill="white"/>
</g>
</g>
<defs>
<clipPath id="clip0_221_286">
<rect width="79" height="79" fill="white"/>
</clipPath>
<clipPath id="clip1_221_286">
<rect width="120" height="136" fill="white" transform="translate(-21 -29)"/>
</clipPath>
</defs>
</svg>
