<svg width="79" height="79" viewBox="0 0 79 79" fill="none" xmlns="http://www.w3.org/2000/svg">
<rect width="79" height="79" fill="#5DC9E1"/>
<path d="M11.7454 34.2117C11.6205 34.2117 11.5893 34.1493 11.6517 34.0556L12.3073 33.2127C12.3698 33.119 12.5258 33.0566 12.6507 33.0566H23.7961C23.921 33.0566 23.9522 33.1502 23.8898 33.2439L23.359 34.0556C23.2966 34.1493 23.1405 34.2429 23.0468 34.2429L11.7454 34.2117Z" fill="white"/>
<path d="M7.03125 37.0839C6.90637 37.0839 6.87515 37.0215 6.93759 36.9278L7.5932 36.0849C7.65564 35.9912 7.81174 35.9288 7.93662 35.9288H22.1727C22.2976 35.9288 22.36 36.0224 22.3288 36.1161L22.0791 36.8654C22.0478 36.9902 21.923 37.0527 21.7981 37.0527L7.03125 37.0839Z" fill="white"/>
<path d="M14.5864 39.9561C14.4615 39.9561 14.4303 39.8624 14.4928 39.7688L14.9298 38.9883C14.9923 38.8946 15.1172 38.801 15.242 38.801H21.4859C21.6108 38.801 21.6733 38.8946 21.6733 39.0195L21.6108 39.7688C21.6108 39.8937 21.4859 39.9873 21.3923 39.9873L14.5864 39.9561Z" fill="white"/>
<path d="M46.9922 33.6498C45.0254 34.1493 43.683 34.5239 41.7473 35.0234C41.279 35.1483 41.2478 35.1795 40.842 34.7112C40.3737 34.1805 40.0303 33.8371 39.3747 33.5249C37.4078 32.5571 35.5034 32.838 33.7239 33.9932C31.601 35.3668 30.5083 37.3961 30.5395 39.9249C30.5708 42.4224 32.2878 44.4829 34.7542 44.8263C36.8771 45.1073 38.6566 44.358 40.0615 42.7659C40.3425 42.4224 40.5922 42.0478 40.9044 41.6107C39.7805 41.6107 38.3756 41.6107 34.879 41.6107C34.2234 41.6107 34.0673 41.2049 34.2859 40.6741C34.6917 39.7063 35.441 38.0829 35.8781 37.2712C35.9717 37.0839 36.1903 36.7717 36.6586 36.7717C38.2508 36.7717 44.12 36.7717 48.0225 36.7717C47.96 37.6146 47.96 38.4576 47.8351 39.3005C47.4917 41.5483 46.6488 43.6088 45.2751 45.4195C43.0273 48.3854 40.0927 50.2273 36.3776 50.7268C33.3181 51.1327 30.4771 50.5395 27.9795 48.6663C25.6693 46.918 24.3581 44.6078 24.0147 41.7356C23.6088 38.3327 24.6078 35.2732 26.6683 32.5883C28.8849 29.6849 31.8195 27.8429 35.4098 27.1873C38.3444 26.6566 41.1542 27 43.683 28.7171C45.3376 29.8098 46.5239 31.3083 47.3044 33.119C47.4917 33.4 47.3669 33.5561 46.9922 33.6498Z" fill="white"/>
<path d="M57.3259 50.9141C54.485 50.8517 51.8937 50.04 49.7084 48.1668C47.8664 46.5746 46.7113 44.5454 46.3367 42.1415C45.7747 38.6137 46.7425 35.4917 48.8655 32.7132C51.1445 29.7161 53.8918 28.1551 57.6069 27.4995C60.7913 26.9376 63.7884 27.2498 66.5045 29.0917C68.9708 30.7776 70.5006 33.0566 70.9064 36.0537C71.4372 40.2683 70.2196 43.7024 67.3162 46.6371C65.2557 48.7288 62.7269 50.04 59.8235 50.6332C58.9806 50.7893 58.1376 50.8205 57.3259 50.9141ZM64.7562 38.3015C64.725 37.8956 64.725 37.5834 64.6625 37.2712C64.1006 34.1805 61.2596 32.4322 58.2937 33.119C55.3903 33.7746 53.5172 35.6166 52.8303 38.5512C52.2684 40.9863 53.4547 43.4527 55.7025 44.4517C57.4196 45.201 59.1367 45.1073 60.7913 44.2644C63.2576 42.9844 64.6001 40.9863 64.7562 38.3015Z" fill="white"/>
</svg>
