<svg width="79" height="79" viewBox="0 0 79 79" fill="none" xmlns="http://www.w3.org/2000/svg">
<path d="M30.2017 56.4947C30.2017 56.4947 27.756 57.917 31.9423 58.3983C37.0138 58.9768 39.6058 58.8939 45.1946 57.8361C45.1946 57.8361 46.664 58.7574 48.7161 59.5554C36.1873 64.925 20.3611 59.2444 30.2017 56.4947Z" fill="#5382A1"/>
<path d="M28.6707 49.4877C28.6707 49.4877 25.9276 51.5183 30.117 51.9516C35.5345 52.5105 39.8129 52.5562 47.2161 51.1306C47.2161 51.1306 48.2401 52.1688 49.8502 52.7365C34.7022 57.1659 17.8301 53.0858 28.6707 49.4877Z" fill="#5382A1"/>
<path d="M41.5771 37.6016C44.6642 41.1558 40.766 44.3541 40.766 44.3541C40.766 44.3541 48.6046 40.3076 45.0047 35.2404C41.6425 30.5149 39.0641 28.167 53.0223 20.0717C53.0223 20.0717 31.1125 25.5438 41.5771 37.6016Z" fill="#E76F00"/>
<path d="M58.1473 61.6775C58.1473 61.6775 59.9572 63.1688 56.1541 64.3224C48.9224 66.5132 26.0548 67.1747 19.7023 64.4097C17.4188 63.4163 21.7011 62.0377 23.0481 61.7484C24.453 61.4438 25.2558 61.5005 25.2558 61.5005C22.7163 59.7115 8.84117 65.0133 18.208 66.5317C43.7525 70.6743 64.7733 64.6662 58.1473 61.6775Z" fill="#5382A1"/>
<path d="M31.3779 42.2277C31.3779 42.2277 19.746 44.9905 27.2587 45.9937C30.4308 46.4184 36.7544 46.3224 42.6446 45.8288C47.4584 45.4228 52.292 44.5594 52.292 44.5594C52.292 44.5594 50.5946 45.2863 49.3666 46.1249C37.5546 49.2314 14.736 47.7862 21.3052 44.6086C26.8608 41.9231 31.3779 42.2277 31.3779 42.2277Z" fill="#5382A1"/>
<path d="M52.244 53.8912C64.2514 47.6517 58.6997 41.6555 54.8246 42.4634C53.8748 42.661 53.4513 42.8323 53.4513 42.8323C53.4513 42.8323 53.8039 42.28 54.4774 42.0409C62.1435 39.3458 68.0392 49.9899 52.0027 54.2056C52.0027 54.2056 52.1885 54.0397 52.244 53.8912Z" fill="#5382A1"/>
<path d="M45.0048 7C45.0048 7 51.6547 13.6521 38.6976 23.8812C28.3074 32.0868 36.3283 36.7653 38.6933 42.1108C32.6284 36.6387 28.1775 31.8216 31.1635 27.3383C35.5462 20.7573 47.6878 17.5665 45.0048 7Z" fill="#E76F00"/>
<path d="M32.5577 70.7988C44.0833 71.5366 61.7822 70.3895 62.2014 64.9359C62.2014 64.9359 61.3956 67.0033 52.6761 68.6451C42.8387 70.4964 30.7057 70.2803 23.5095 69.0938C23.5095 69.0938 24.9827 70.313 32.5577 70.7988Z" fill="#5382A1"/>
</svg>
