<svg width="79" height="79" viewBox="0 0 79 79" fill="none" xmlns="http://www.w3.org/2000/svg">
<g clip-path="url(#clip0_221_279)">
<rect width="79" height="79" fill="#FFFFFA"/>
<g clip-path="url(#clip1_221_279)">
<path d="M79 0H0V79H79V0Z" fill="#F7DF1E"/>
<path d="M53.0679 61.7191C54.6592 64.3173 56.7295 66.2271 60.3911 66.2271C63.467 66.2271 65.432 64.6897 65.432 62.5655C65.432 60.0199 63.4131 59.1183 60.0274 57.6374L58.1715 56.8411C52.8146 54.5589 49.2558 51.6999 49.2558 45.6557C49.2558 40.0881 53.498 35.8497 60.1277 35.8497C64.8477 35.8497 68.2409 37.4924 70.6861 41.7935L64.9053 45.5053C63.6326 43.223 62.2595 42.3239 60.1277 42.3239C57.9533 42.3239 56.5752 43.7033 56.5752 45.5053C56.5752 47.7323 57.9546 48.6339 61.1397 50.0133L62.9956 50.8083C69.303 53.5131 72.8643 56.2706 72.8643 62.4702C72.8643 69.1538 67.6139 72.8154 60.5629 72.8154C53.6685 72.8154 49.2144 69.53 47.035 65.2239L53.0679 61.7191ZM26.8437 62.3624C28.0098 64.4314 29.0707 66.1807 31.6213 66.1807C34.0602 66.1807 35.5989 65.2264 35.5989 61.5159V36.2735H43.0224V61.6162C43.0224 69.3031 38.5156 72.8016 31.9373 72.8016C25.9935 72.8016 22.5513 69.7257 20.8008 66.0208L26.8437 62.3624Z" fill="black"/>
</g>
</g>
<defs>
<clipPath id="clip0_221_279">
<rect width="79" height="79" fill="white"/>
</clipPath>
<clipPath id="clip1_221_279">
<rect width="79" height="79" fill="white"/>
</clipPath>
</defs>
</svg>
