<svg width="79" height="79" viewBox="0 0 79 79" fill="none" xmlns="http://www.w3.org/2000/svg">
<path d="M63.7469 39.0068C63.7469 25.3482 52.6586 14.26 39 14.26C25.3414 14.26 14.2532 25.3482 14.2532 39.0068C14.2532 52.6655 25.3414 63.7537 39 63.7537C52.6586 63.7537 63.7469 52.6655 63.7469 39.0068Z" fill="#000080"/>
<path d="M56.5006 28.7526C56.5006 24.7535 53.2534 21.5063 49.2543 21.5063C45.2551 21.5063 42.0079 24.7535 42.0079 28.7526C42.0079 32.7518 45.2551 35.9989 49.2543 35.9989C53.2534 35.9989 56.5006 32.7518 56.5006 28.7526Z" fill="white"/>
<path d="M70.9932 14.2532C70.9932 10.254 67.746 7.00684 63.7469 7.00684C59.7477 7.00684 56.5005 10.254 56.5005 14.2532C56.5005 18.2523 59.7477 21.4995 63.7469 21.4995C67.746 21.4995 70.9932 18.2591 70.9932 14.2532Z" fill="#000080"/>
<path d="M24.275 49.5482H32.2938V51.3734H22.2036V35.1376H24.275V49.5482Z" fill="white"/>
<path d="M41.8712 51.3734V49.7464C40.7774 51.2846 39.6905 51.8861 37.9746 51.8861C35.705 51.8861 34.2557 50.642 34.2557 48.7005V39.7041H36.1015V47.969C36.1015 49.3704 37.038 50.266 38.5078 50.266C40.4424 50.266 41.6935 48.7073 41.6935 46.3215V39.7041H43.5392V51.3734H41.8712Z" fill="white"/>
<path d="M57.109 51.6879C56.5074 51.8451 56.2203 51.8861 55.8375 51.8861C54.6343 51.8861 54.0532 51.3529 53.9233 50.1703C52.6108 51.3734 51.4281 51.8861 49.9584 51.8861C47.5999 51.8861 46.1301 50.5531 46.1301 48.4339C46.1301 46.9163 46.8206 45.8703 48.181 45.3166C48.8919 45.0295 49.2953 44.9406 51.9203 44.6057C53.3901 44.4279 53.855 44.0929 53.855 43.3136V42.8214C53.855 41.7071 52.9184 41.085 51.2504 41.085C49.514 41.085 48.6663 41.7276 48.5091 43.1564H46.636C46.6839 42.0011 46.9026 41.3311 47.4358 40.7296C48.2152 39.8614 49.6166 39.3692 51.3119 39.3692C54.1831 39.3692 55.7007 40.4835 55.7007 42.5548V49.4183C55.7007 49.9994 56.0562 50.3343 56.7056 50.3343C56.815 50.3343 56.9039 50.3343 57.109 50.2865V51.6879ZM53.855 45.6037C53.2329 45.8908 52.8296 45.9797 50.8676 46.2463C48.8851 46.5334 48.0579 47.1624 48.0579 48.386C48.0579 49.5687 48.9056 50.2591 50.3549 50.2591C51.4486 50.2591 52.3579 49.9037 53.1167 49.2132C53.6704 48.7005 53.855 48.3245 53.855 47.6956V45.6037Z" fill="white"/>
<path d="M67.5136 24.4732C69.8037 28.9714 71 33.9481 71 39C71 56.6646 56.6646 71 39 71C21.3354 71 7 56.6646 7 39C7 21.3354 21.3354 7 39 7C44.6808 7 50.2523 8.51079 55.147 11.3683" stroke="#808080" stroke-miterlimit="10" stroke-dasharray="5 5"/>
</svg>
