<svg width="79" height="79" viewBox="0 0 79 79" fill="none" xmlns="http://www.w3.org/2000/svg">
<path d="M34.4594 22H39.3467L37.9655 29.3431H42.357C44.7655 29.3946 46.5595 29.9328 47.7403 30.958C48.9444 31.9828 49.2987 33.9313 48.803 36.8017L46.43 49.6041H41.4718L43.7383 37.3783C43.9742 36.0966 43.9035 35.1869 43.5259 34.6487C43.1483 34.1105 42.3338 33.8415 41.0823 33.8415L37.1509 33.8031L34.2468 49.6041H29.3595L34.4594 22Z" fill="black"/>
<path fill-rule="evenodd" clip-rule="evenodd" d="M12.0645 29.3434H21.5559C24.3417 29.3687 26.3606 30.2406 27.6121 31.9575C28.8636 33.6748 29.2767 36.0198 28.8516 38.9932C28.6867 40.352 28.3204 41.6844 27.7537 42.9917C27.2106 44.2988 26.4554 45.4775 25.4873 46.5286C24.3065 47.8612 23.0433 48.7069 21.6976 49.0662C20.3518 49.4252 18.9586 49.6044 17.5185 49.6044H13.2686L11.9228 56.9091H7L12.0645 29.3434ZM14.0832 45.2599L16.2011 33.7647H16.9165C17.1764 33.7647 17.4477 33.7516 17.7311 33.7263C19.6201 33.7007 21.1898 33.8929 22.4415 34.3028C23.7162 34.7127 24.1412 36.2636 23.7162 38.9548C23.1972 42.1588 22.1814 44.0297 20.6706 44.5679C19.1597 45.0807 17.2706 45.3239 15.004 45.2983H14.5082C14.3665 45.2983 14.2249 45.2852 14.0832 45.2599Z" fill="black"/>
<path fill-rule="evenodd" clip-rule="evenodd" d="M63.5426 29.3434H54.0511L48.9867 56.9091H53.9095L55.2555 49.6044H59.5054C60.9454 49.6044 62.3386 49.4252 63.6843 49.0662C65.0303 48.7069 66.2932 47.8612 67.474 46.5286C68.4421 45.4775 69.1973 44.2988 69.7404 42.9917C70.3071 41.6844 70.6734 40.352 70.8383 38.9932C71.2634 36.0198 70.8506 33.6748 69.5988 31.9575C68.3473 30.2406 66.3287 29.3687 63.5426 29.3434ZM58.1879 33.7647L56.07 45.2599C56.2117 45.2852 56.3534 45.2983 56.4951 45.2983H56.9908C59.2575 45.3239 61.1464 45.0807 62.6574 44.5679C64.1681 44.0297 65.1839 42.1588 65.7032 38.9548C66.1282 36.2636 65.7032 34.7127 64.4282 34.3028C63.1767 33.8929 61.6069 33.7007 59.7178 33.7263C59.4344 33.7516 59.1633 33.7647 58.9032 33.7647H58.1879Z" fill="black"/>
</svg>
