<svg width="79" height="79" viewBox="0 0 79 79" fill="none" xmlns="http://www.w3.org/2000/svg">
<path d="M38.6649 7.00053C36.0221 7.0127 33.4982 7.23608 31.2775 7.62553C24.7355 8.77096 23.5478 11.1684 23.5478 15.5898V21.4291H39.0072V23.3755H23.5478H17.746C13.253 23.3755 9.31886 26.0519 8.08831 31.1434C6.66888 36.9794 6.60592 40.6211 8.08831 46.7148C9.18722 51.2507 11.8116 54.4827 16.3045 54.4827H21.6198V47.4827C21.6198 42.4256 26.0348 37.9648 31.2775 37.9648H46.7189C51.0173 37.9648 54.4487 34.4573 54.4487 30.1791V15.5898C54.4487 11.4376 50.9143 8.31851 46.7189 7.62553C44.0632 7.1874 41.3077 6.98835 38.6649 7.00053ZM30.3045 11.697C31.9014 11.697 33.2054 13.0105 33.2054 14.6255C33.2054 16.2349 31.9014 17.5362 30.3045 17.5362C28.7019 17.5362 27.4036 16.2349 27.4036 14.6255C27.4036 13.0105 28.7019 11.697 30.3045 11.697Z" fill="url(#paint0_linear_221_278)"/>
<path d="M56.3766 23.3755V30.1791C56.3766 35.4538 51.8643 39.8934 46.7189 39.8934H31.2775C27.0478 39.8934 23.5477 43.4811 23.5477 47.6791V62.2684C23.5477 66.4206 27.1909 68.8629 31.2775 70.0541C36.1711 71.4802 40.8638 71.7379 46.7189 70.0541C50.6109 68.9373 54.4486 66.6898 54.4486 62.2684V56.4291H39.0072V54.4827H54.4486H62.1784C66.6713 54.4827 68.3456 51.3767 69.9081 46.7148C71.5221 41.9154 71.4534 37.3001 69.9081 31.1434C68.7977 26.7106 66.677 23.3755 62.1784 23.3755H56.3766ZM47.6919 60.322C49.2945 60.322 50.5928 61.6233 50.5928 63.2327C50.5928 64.8477 49.2945 66.1612 47.6919 66.1612C46.095 66.1612 44.791 64.8477 44.791 63.2327C44.791 61.6233 46.095 60.322 47.6919 60.322Z" fill="url(#paint1_linear_221_278)"/>
<defs>
<linearGradient id="paint0_linear_221_278" x1="7" y1="7" x2="42.3785" y2="37.419" gradientUnits="userSpaceOnUse">
<stop stop-color="#5A9FD4"/>
<stop offset="1" stop-color="#306998"/>
</linearGradient>
<linearGradient id="paint1_linear_221_278" x1="47.3204" y1="62.7417" x2="34.6828" y2="44.8732" gradientUnits="userSpaceOnUse">
<stop stop-color="#FFD43B"/>
<stop offset="1" stop-color="#FFE873"/>
</linearGradient>
</defs>
</svg>
