<svg width="79" height="79" viewBox="0 0 79 79" fill="none" xmlns="http://www.w3.org/2000/svg">
<rect width="79" height="79" fill="#3178C6"/>
<path fill-rule="evenodd" clip-rule="evenodd" d="M48.9027 62.8643V70.5885C50.1584 71.2322 51.6435 71.7149 53.358 72.0367C55.0726 72.3586 56.8795 72.5195 58.7792 72.5195C60.6306 72.5195 62.3893 72.3426 64.0556 71.9884C65.7218 71.6345 67.1829 71.0511 68.4385 70.2384C69.6942 69.4259 70.6883 68.3637 71.4208 67.0522C72.1532 65.7407 72.5195 64.1195 72.5195 62.1884C72.5195 60.7883 72.3103 59.5614 71.8917 58.5074C71.4731 57.4534 70.8695 56.516 70.0806 55.6953C69.2918 54.8746 68.346 54.1383 67.2432 53.4865C66.1404 52.8348 64.8968 52.2193 63.5123 51.6401C62.4981 51.2216 61.5885 50.8154 60.7836 50.4211C59.9786 50.0267 59.2944 49.6245 58.7309 49.2142C58.1675 48.8038 57.7328 48.3693 57.427 47.9107C57.1212 47.452 56.9681 46.9331 56.9681 46.3537C56.9681 45.8228 57.105 45.344 57.3787 44.9175C57.6524 44.491 58.0388 44.1251 58.5378 43.8192C59.0369 43.5136 59.6486 43.2761 60.373 43.1072C61.0976 42.9382 61.9024 42.8538 62.7879 42.8538C63.4318 42.8538 64.1119 42.9021 64.8283 42.9985C65.5447 43.0951 66.2651 43.244 66.9897 43.4451C67.7141 43.6463 68.4183 43.8998 69.1026 44.2054C69.7868 44.5113 70.4186 44.8652 70.9982 45.2676V38.0502C69.823 37.5997 68.5391 37.2658 67.1466 37.0485C65.7541 36.8313 64.1562 36.7227 62.3532 36.7227C60.5179 36.7227 58.7792 36.9198 57.1372 37.3141C55.4952 37.7083 54.0503 38.3238 52.8025 39.1605C51.5549 39.9975 50.5689 41.0635 49.8445 42.359C49.1201 43.6543 48.7578 45.2031 48.7578 47.0055C48.7578 49.3066 49.4219 51.2699 50.7501 52.8953C52.0781 54.5205 54.0945 55.8964 56.7991 57.0229C57.8616 57.4574 58.8518 57.8837 59.7694 58.3022C60.687 58.7206 61.4799 59.1551 62.1479 59.6057C62.816 60.0562 63.3432 60.547 63.7297 61.0781C64.1161 61.609 64.3092 62.2125 64.3092 62.8885C64.3092 63.3873 64.1884 63.8499 63.947 64.2764C63.7055 64.7028 63.3392 65.0729 62.8482 65.3867C62.3572 65.7005 61.7454 65.9459 61.013 66.1228C60.2804 66.3 59.4233 66.3884 58.4412 66.3884C56.7669 66.3884 55.1088 66.0948 53.4666 65.5074C51.8246 64.9201 50.3032 64.0391 48.9027 62.8643ZM35.9172 43.833H45.8262V37.4941H18.207V43.833H28.0675V72.0566H35.9172V43.833Z" fill="white"/>
</svg>
