<svg width="79" height="79" viewBox="0 0 79 79" fill="none" xmlns="http://www.w3.org/2000/svg">
<g clip-path="url(#clip0_221_287)">
<rect width="79" height="79" fill="#FFFFFA"/>
<g clip-path="url(#clip1_221_287)">
<path d="M41 127C85.1828 127 121 91.1828 121 47C121 2.81722 85.1828 -33 41 -33C-3.18278 -33 -39 2.81722 -39 47C-39 91.1828 -3.18278 127 41 127Z" fill="#004E8C"/>
<path opacity="0.1" d="M-14.45 -10.5C-22.5826 -3.25297 -29.1495 5.57859 -33.7482 15.4533C-38.3469 25.3281 -40.8805 36.0379 -41.1937 46.9265C-41.5069 57.815 -39.5932 68.6528 -35.5697 78.7756C-31.5463 88.8984 -25.4979 98.0928 -17.7953 105.795C-10.0928 113.498 -0.898347 119.546 9.22442 123.57C19.3472 127.593 30.185 129.507 41.0735 129.194C51.9621 128.881 62.672 126.347 72.5467 121.748C82.4215 117.15 91.253 110.583 98.5 102.45L-14.45 -10.5Z" fill="white"/>
</g>
<path d="M41.3188 19.079L26.6401 58.8964H21.4417L7 19.079H12.1984L23.2588 50.6801C23.6402 51.8259 23.91 53.0059 24.0646 54.2036H24.1752C24.3408 52.9746 24.6374 51.7669 25.06 50.6011L36.31 19L41.3188 19.079Z" fill="white"/>
<path d="M46.516 58.8962V19.0782H57.8452C60.7873 18.9207 63.6892 19.8171 66.03 21.6063C67.009 22.3968 67.7921 23.4027 68.3183 24.5456C68.8446 25.6885 69.0997 26.9375 69.0638 28.1953C69.0946 30.3072 68.4343 32.3713 67.1835 34.0732C65.9211 35.7679 64.1491 37.0138 62.1272 37.6283V37.739C64.5726 37.936 66.8634 39.014 68.5739 40.7727C70.2278 42.5958 71.0964 44.9972 70.9915 47.4565C71.0432 49.0235 70.7404 50.582 70.1057 52.0156C69.4709 53.4492 68.5206 54.721 67.3257 55.7361C64.7398 57.8935 61.4477 59.019 58.0822 58.8962H46.516ZM51.2562 23.2812V36.1431H55.9965C58.1548 36.2445 60.2784 35.5722 61.985 34.247C62.7244 33.6028 63.3067 32.7981 63.6874 31.8943C64.0681 30.9906 64.237 30.0118 64.1813 29.0327C64.1813 25.1668 61.6374 23.2338 56.5495 23.2338L51.2562 23.2812ZM51.2562 40.3303V54.6616H57.5766C59.8483 54.7933 62.0916 54.1035 63.8969 52.7181C64.6501 52.0579 65.2445 51.2362 65.6357 50.3141C66.027 49.3921 66.205 48.3937 66.1564 47.3933C66.1564 42.6951 62.9541 40.3461 56.5495 40.3461L51.2562 40.3303Z" fill="white"/>
</g>
<defs>
<clipPath id="clip0_221_287">
<rect width="79" height="79" fill="white"/>
</clipPath>
<clipPath id="clip1_221_287">
<rect width="160" height="160" fill="white" transform="translate(-39 -33)"/>
</clipPath>
</defs>
</svg>
