<svg width="79" height="79" viewBox="0 0 79 79" fill="none" xmlns="http://www.w3.org/2000/svg">
<path d="M63.8721 28.592C63.7441 28.456 63.6081 28.32 63.4721 28.192C63.3361 28.064 63.2081 27.92 63.0721 27.792C62.9361 27.664 62.8081 27.52 62.6721 27.392C62.5361 27.264 62.4081 27.12 62.2721 26.992C62.1361 26.864 62.0081 26.72 61.8721 26.592C61.7361 26.464 61.6081 26.32 61.4721 26.192C61.3361 26.064 61.2081 25.92 61.0721 25.792C65.0402 29.6918 67.3135 34.997 67.4001 40.56C67.4001 53.816 53.9441 64.6 37.4001 64.6C28.1361 64.6 19.8481 61.216 14.3361 55.912L14.7361 56.312L15.1361 56.712L15.5361 57.112L15.9361 57.512L16.3361 57.912L16.7361 58.312L17.1361 58.712C22.6401 64.24 31.1121 67.8 40.6001 67.8C57.1441 67.8 70.6001 57.016 70.6001 43.8C70.6001 38.152 68.1681 32.8 63.8721 28.592Z" fill="black"/>
<path d="M65.4 40.56C65.4 52.728 52.864 62.592 37.4 62.592C21.936 62.592 9.40002 52.728 9.40002 40.56C9.40002 33.016 14.2 26.352 21.576 22.4C28.952 18.448 33.544 14.4 37.4 14.4C41.256 14.4 44.552 17.704 53.224 22.4C60.6 26.352 65.4 33.016 65.4 40.56Z" fill="#FBF0DF"/>
<path d="M65.4001 40.56C65.3962 38.9969 65.1809 37.4415 64.7601 35.936C62.5761 62.576 30.0801 63.856 17.3041 55.888C23.0473 60.3395 30.1345 62.7038 37.4001 62.592C52.8401 62.592 65.4001 52.712 65.4001 40.56Z" fill="#F6DECE"/>
<path d="M26.624 20.936C30.2 18.792 34.952 14.768 39.624 14.76C38.9053 14.5277 38.1553 14.4063 37.4 14.4C35.464 14.4 33.4 15.4 30.8 16.904C29.896 17.432 28.96 18.016 27.968 18.624C26.104 19.776 23.968 21.08 21.568 22.384C13.952 26.504 9.40002 33.296 9.40002 40.56C9.40002 40.88 9.40002 41.2 9.40002 41.512C14.248 24.384 23.056 23.08 26.624 20.936Z" fill="#FFFEFC"/>
<path fill-rule="evenodd" clip-rule="evenodd" d="M35.096 16.424C35.1072 18.313 34.7106 20.1821 33.9333 21.9038C33.156 23.6255 32.0163 25.1591 30.592 26.4C30.368 26.6 30.544 26.984 30.832 26.872C33.528 25.824 37.168 22.688 35.632 16.36C35.568 16 35.096 16.096 35.096 16.424ZM36.912 16.424C37.8909 18.0211 38.5128 19.8111 38.7351 21.6711C38.9574 23.5311 38.7749 25.4172 38.2 27.2C38.104 27.48 38.448 27.72 38.64 27.488C40.392 25.248 41.92 20.8 37.344 16C37.112 15.792 36.752 16.112 36.912 16.392V16.424ZM39.12 16.288C40.6529 17.3733 41.9353 18.7746 42.8806 20.3975C43.826 22.0205 44.4123 23.8272 44.6 25.696C44.5919 25.7633 44.6101 25.8312 44.6507 25.8856C44.6913 25.9399 44.7512 25.9765 44.8181 25.9878C44.885 25.9992 44.9536 25.9843 45.0099 25.9463C45.0661 25.9084 45.1055 25.8503 45.12 25.784C45.856 22.992 45.44 18.232 39.384 15.76C39.064 15.632 38.856 16.064 39.12 16.256V16.288ZM24.352 24.608C26.1754 24.0633 27.8637 23.1406 29.3068 21.9001C30.75 20.6595 31.9157 19.129 32.728 17.408C32.872 17.12 33.328 17.232 33.256 17.552C31.872 23.952 27.24 25.288 24.36 25.112C24.056 25.12 24.064 24.696 24.352 24.608Z" fill="#CCBEA7"/>
<path d="M37.4 64.6C20.856 64.6 7.40002 53.816 7.40002 40.56C7.40002 32.56 12.344 25.096 20.624 20.624C23.024 19.344 25.08 18.056 26.912 16.928C27.92 16.304 28.872 15.72 29.792 15.176C32.6 13.512 35 12.4 37.4 12.4C39.8 12.4 41.896 13.36 44.52 14.912C45.32 15.368 46.12 15.864 46.976 16.408C48.968 17.64 51.216 19.032 54.176 20.624C62.456 25.096 67.4 32.552 67.4 40.56C67.4 53.816 53.944 64.6 37.4 64.6ZM37.4 14.4C35.464 14.4 33.4 15.4 30.8 16.904C29.896 17.432 28.96 18.016 27.968 18.624C26.104 19.776 23.968 21.08 21.568 22.384C13.952 26.504 9.40002 33.296 9.40002 40.56C9.40002 52.712 21.96 62.6 37.4 62.6C52.84 62.6 65.4 52.712 65.4 40.56C65.4 33.296 60.848 26.504 53.224 22.4C50.2 20.8 47.84 19.296 45.928 18.112C45.056 17.576 44.256 17.08 43.528 16.64C41.104 15.2 39.336 14.4 37.4 14.4Z" fill="black"/>
<path d="M43.04 46.4C42.6807 47.872 41.8626 49.1915 40.704 50.168C39.8343 51.0112 38.7083 51.5404 37.504 51.672C36.2637 51.5613 35.0982 51.0307 34.2 50.168C33.0533 49.1869 32.2468 47.8678 31.896 46.4C31.8844 46.3129 31.8929 46.2242 31.9208 46.1409C31.9488 46.0575 31.9954 45.9817 32.0572 45.9191C32.119 45.8566 32.1942 45.809 32.2772 45.78C32.3602 45.7511 32.4488 45.7415 32.536 45.752H42.408C42.4947 45.7428 42.5823 45.7534 42.6643 45.7829C42.7463 45.8125 42.8205 45.8602 42.8813 45.9226C42.9422 45.985 42.9881 46.0604 43.0156 46.1431C43.0431 46.2258 43.0514 46.3136 43.04 46.4Z" fill="#B71422"/>
<path d="M34.2001 50.232C35.0963 51.0952 36.2576 51.6308 37.4961 51.752C38.7317 51.629 39.8899 51.0936 40.7841 50.232C41.0701 49.9654 41.3374 49.6794 41.5841 49.376C41.0912 48.8169 40.4892 48.3646 39.8151 48.0468C39.141 47.7289 38.409 47.5524 37.6641 47.528C36.867 47.5469 36.0865 47.7592 35.3897 48.1466C34.6929 48.534 34.1007 49.085 33.6641 49.752C33.8481 49.92 34.0081 50.08 34.2001 50.232Z" fill="#FF6164"/>
<path d="M34.328 49.6C34.7246 49.0873 35.2323 48.6712 35.8129 48.383C36.3935 48.0948 37.0319 47.942 37.68 47.936C38.8781 47.9713 40.0196 48.4536 40.88 49.288C41.064 49.088 41.24 48.88 41.408 48.672C40.3903 47.7027 39.0453 47.1516 37.64 47.128C36.889 47.1345 36.1488 47.3071 35.4724 47.6335C34.7961 47.96 34.2003 48.4321 33.728 49.016C33.9172 49.2215 34.1175 49.4165 34.328 49.6Z" fill="black"/>
<path d="M37.472 52.152C36.1389 52.0352 34.8844 51.4714 33.912 50.552C32.6737 49.5046 31.802 48.0892 31.424 46.512C31.3969 46.3716 31.4015 46.2269 31.4375 46.0885C31.4735 45.9501 31.5399 45.8214 31.632 45.712C31.7417 45.5796 31.8801 45.474 32.0368 45.4033C32.1934 45.3326 32.3642 45.2986 32.536 45.304H42.408C42.5796 45.3004 42.7498 45.3352 42.9062 45.4058C43.0626 45.4763 43.2012 45.581 43.312 45.712C43.4032 45.8218 43.4685 45.9508 43.5031 46.0892C43.5378 46.2277 43.5408 46.3722 43.512 46.512C43.134 48.0892 42.2624 49.5046 41.024 50.552C40.0537 51.4697 38.8023 52.0335 37.472 52.152ZM32.536 46.232C32.408 46.232 32.376 46.288 32.368 46.304C32.7062 47.6718 33.4711 48.8963 34.552 49.8C35.3424 50.5787 36.37 51.0714 37.472 51.2C38.5712 51.0728 39.5977 50.5863 40.392 49.816C41.4695 48.9107 42.2315 47.6865 42.568 46.32C42.5506 46.2944 42.5264 46.2742 42.4982 46.2615C42.4699 46.2488 42.4387 46.2441 42.408 46.248L32.536 46.232Z" fill="black"/>
<path d="M49.576 46.896C52.1607 46.896 54.256 45.6639 54.256 44.144C54.256 42.6241 52.1607 41.392 49.576 41.392C46.9913 41.392 44.896 42.6241 44.896 44.144C44.896 45.6639 46.9913 46.896 49.576 46.896Z" fill="#FEBBD0"/>
<path d="M25.3601 46.896C27.9447 46.896 30.0401 45.6639 30.0401 44.144C30.0401 42.6241 27.9447 41.392 25.3601 41.392C22.7754 41.392 20.6801 42.6241 20.6801 44.144C20.6801 45.6639 22.7754 46.896 25.3601 46.896Z" fill="#FEBBD0"/>
<path fill-rule="evenodd" clip-rule="evenodd" d="M27.56 43.04C28.4322 43.0416 29.2852 42.7844 30.0112 42.301C30.7371 41.8176 31.3033 41.1297 31.6382 40.3244C31.9731 39.5191 32.0615 38.6325 31.8923 37.7769C31.7231 36.9214 31.3039 36.1352 30.6878 35.5179C30.0716 34.9006 29.2862 34.48 28.4309 34.3093C27.5757 34.1386 26.6889 34.2254 25.883 34.5588C25.0771 34.8922 24.3882 35.4571 23.9035 36.1822C23.4188 36.9073 23.16 37.7598 23.16 38.632C23.16 39.7997 23.6233 40.9197 24.4483 41.7461C25.2732 42.5725 26.3923 43.0379 27.56 43.04ZM47.376 43.04C48.2492 43.0463 49.1046 42.7932 49.8336 42.3127C50.5627 41.8322 51.1327 41.146 51.4712 40.3412C51.8098 39.5363 51.9017 38.649 51.7352 37.7918C51.5687 36.9347 51.1515 36.1462 50.5363 35.5266C49.9211 34.9069 49.1358 34.4839 48.2798 34.3112C47.4239 34.1385 46.536 34.2239 45.7286 34.5566C44.9213 34.8892 44.231 35.4542 43.7452 36.1797C43.2594 36.9053 43.0001 37.7588 43 38.632C42.9979 39.7962 43.4572 40.9138 44.2774 41.74C45.0976 42.5662 46.2119 43.0336 47.376 43.04Z" fill="black"/>
<path fill-rule="evenodd" clip-rule="evenodd" d="M26.2 38.912C26.5279 38.9136 26.8488 38.8178 27.1222 38.6368C27.3956 38.4558 27.6091 38.1978 27.7356 37.8953C27.8622 37.5929 27.8961 37.2596 27.8332 36.9379C27.7702 36.6161 27.6131 36.3203 27.3818 36.0879C27.1505 35.8555 26.8555 35.697 26.534 35.6324C26.2126 35.5679 25.8792 35.6002 25.5761 35.7253C25.2731 35.8504 25.014 36.0627 24.8317 36.3352C24.6493 36.6077 24.552 36.9282 24.552 37.256C24.552 37.6938 24.7254 38.1138 25.0342 38.4242C25.343 38.7345 25.7622 38.9099 26.2 38.912ZM46.016 38.912C46.3439 38.9136 46.6648 38.8178 46.9382 38.6368C47.2116 38.4558 47.4251 38.1978 47.5516 37.8953C47.6782 37.5929 47.7121 37.2596 47.6492 36.9379C47.5862 36.6161 47.4291 36.3203 47.1978 36.0879C46.9665 35.8555 46.6715 35.697 46.35 35.6324C46.0286 35.5679 45.6952 35.6002 45.3921 35.7253C45.0891 35.8504 44.83 36.0627 44.6477 36.3352C44.4653 36.6077 44.368 36.9282 44.368 37.256C44.368 37.6911 44.5391 38.1087 44.8445 38.4186C45.1499 38.7285 45.565 38.9057 46 38.912H46.016Z" fill="white"/>
</svg>
