<svg width="79" height="79" viewBox="0 0 79 79" fill="none" xmlns="http://www.w3.org/2000/svg">
<g clip-path="url(#clip0_221_199)">
<path d="M30.3248 21.7313C21.9763 20.2107 15.3754 21.8022 12.7446 26.3589C10.7815 29.7591 11.3426 34.2673 14.1055 39.0863C14.3407 39.4965 14.8638 39.6384 15.274 39.4032C15.6842 39.168 15.826 38.6449 15.5909 38.2347C13.102 33.8937 12.6177 30.003 14.2274 27.2149C16.4128 23.4297 22.3007 22.0101 30.018 23.4157C30.4832 23.5004 30.9289 23.1921 31.0136 22.7269C31.0984 22.2618 30.79 21.816 30.3248 21.7313ZM42.6714 13.9766C41.9901 15.2941 40.615 16.1947 39.0295 16.1947C36.7666 16.1947 34.9321 14.3602 34.9321 12.0973C34.9321 9.83444 36.7666 8 39.0295 8C41.2924 8 43.1268 9.83444 43.1268 12.0973C43.1268 12.1565 43.1256 12.2154 43.1231 12.274C49.9056 15.7819 54.6186 27.7437 54.6186 41.5634C54.6186 47.2472 53.8239 52.7016 52.3443 57.4298C52.2031 57.881 51.7229 58.1324 51.2717 57.9912C50.8204 57.85 50.5691 57.3697 50.7103 56.9185C52.1369 52.3598 52.9064 47.0776 52.9064 41.5634C52.9064 28.5507 48.5809 17.3532 42.6714 13.9766ZM13.3237 52.505C13.4247 52.4975 13.5268 52.4938 13.6297 52.4938C15.8926 52.4938 17.7271 54.3282 17.7271 56.5911C17.7271 58.854 15.8926 60.6884 13.6297 60.6884C11.3668 60.6884 9.53238 58.854 9.53238 56.5911C9.53238 55.0506 10.3825 53.7087 11.6392 53.0089C11.022 45.351 19.0711 35.0856 31.2349 28.0628C36.2874 25.1458 41.5483 23.0753 46.4908 22.0163C46.9531 21.9173 47.4082 22.2118 47.5073 22.6741C47.6063 23.1364 47.3118 23.5915 46.8495 23.6905C42.0863 24.7111 36.9923 26.7158 32.091 29.5456C20.6357 36.1593 13.0612 45.6917 13.3237 52.505ZM60.8077 58.6165C60.4674 58.0191 60.2729 57.3278 60.2729 56.5911C60.2729 54.3282 62.1074 52.4938 64.3703 52.4938C66.6332 52.4938 68.4676 54.3282 68.4676 56.5911C68.4676 58.854 66.6332 60.6884 64.3703 60.6884C63.4785 60.6884 62.6533 60.4036 61.9807 59.9199C55.4443 63.7653 42.959 61.8039 31.2098 55.0205C26.2083 52.1329 21.8227 48.6534 18.447 44.9438C18.1288 44.5941 18.1544 44.0527 18.504 43.7345C18.8537 43.4163 19.3952 43.4418 19.7134 43.7915C22.9672 47.3672 27.2139 50.7364 32.0659 53.5377C43.1542 59.9395 54.8309 61.8447 60.8077 58.6165ZM60.5395 43.9024C60.234 44.2632 59.6938 44.3081 59.333 44.0027C58.9721 43.6972 58.9272 43.157 59.2327 42.7961C64.285 36.8276 65.9871 31.0355 63.8064 27.2584C62.2235 24.5166 58.7051 22.9947 53.8239 22.9313C53.3511 22.9251 52.9728 22.5369 52.979 22.0641C52.9851 21.5914 53.3734 21.2131 53.8461 21.2192C59.2735 21.2898 63.3574 23.0564 65.2892 26.4023C67.9146 30.9496 66.0059 37.4446 60.5395 43.9024ZM26.2377 58.9909C26.0783 58.5458 26.3099 58.0558 26.755 57.8964C27.2001 57.737 27.6902 57.9686 27.8496 58.4137C30.4915 65.7908 34.6619 70.1734 39.0295 70.1734C42.1707 70.1734 45.2247 67.9233 47.711 63.7874C47.9546 63.3822 48.4806 63.2512 48.8858 63.4948C49.291 63.7384 49.422 64.2643 49.1784 64.6695C46.4119 69.2716 42.8641 71.8856 39.0295 71.8856C33.7716 71.8856 29.0958 66.9718 26.2377 58.9909ZM66.7555 56.5911C66.7555 55.2738 65.6876 54.2059 64.3703 54.2059C63.053 54.2059 61.9851 55.2738 61.9851 56.5911C61.9851 57.9084 63.053 58.9763 64.3703 58.9763C65.6876 58.9763 66.7555 57.9084 66.7555 56.5911ZM13.6297 58.9763C14.947 58.9763 16.0149 57.9084 16.0149 56.5911C16.0149 55.2738 14.947 54.2059 13.6297 54.2059C12.3124 54.2059 11.2445 55.2738 11.2445 56.5911C11.2445 57.9084 12.3124 58.9763 13.6297 58.9763ZM39.0295 14.4825C40.3468 14.4825 41.4147 13.4146 41.4147 12.0973C41.4147 10.78 40.3468 9.71216 39.0295 9.71216C37.7122 9.71216 36.6443 10.78 36.6443 12.0973C36.6443 13.4146 37.7122 14.4825 39.0295 14.4825ZM39.6553 44.461C38.0549 44.8068 36.4782 43.7897 36.1318 42.1893C35.7867 40.589 36.8031 39.0123 38.4034 38.6658C40.0038 38.32 41.5805 39.3371 41.927 40.9375C42.2728 42.5378 41.2557 44.1145 39.6553 44.461Z" fill="#61DAFB"/>
</g>
<defs>
<clipPath id="clip0_221_199">
<rect width="64" height="64" fill="white" transform="translate(7 8)"/>
</clipPath>
</defs>
</svg>
