<svg width="79" height="79" viewBox="0 0 79 79" fill="none" xmlns="http://www.w3.org/2000/svg">
<g clip-path="url(#clip0_221_192)">
<path fill-rule="evenodd" clip-rule="evenodd" d="M60.0505 66.852C66.7611 60.9861 71 52.3631 71 42.75C71 25.0769 56.6731 10.75 39 10.75C21.3269 10.75 7 25.0769 7 42.75C7 52.0822 10.9948 60.4814 17.3676 66.3307L17.3971 66.125L59.393 52.375L60.0505 66.852Z" fill="#333333"/>
<path d="M30.7394 14.5927L25.0625 13.75L25.9129 13.4884C26.4252 13.3307 26.906 13.084 27.3328 12.7596L27.4662 12.6582C27.9806 12.2672 28.39 11.7546 28.6574 11.1663C28.8018 10.8486 28.903 10.5129 28.9581 10.1682L29.0216 9.77125C29.09 9.34344 29.0865 8.9072 29.0112 8.48054C28.9792 8.29931 29.1599 8.15407 29.33 8.22414L29.5623 8.31979C29.8536 8.43977 30.1355 8.58182 30.4053 8.74469L31.3706 9.32759C32.6536 10.1022 33.7782 11.1128 34.685 12.306L35.327 13.1507C35.5661 13.4654 35.8479 13.7453 36.1641 13.9825C36.511 14.2427 36.8955 14.4484 37.3044 14.5927L37.75 14.75L35.4093 14.8436C33.8481 14.9061 32.2847 14.8221 30.7394 14.5927Z" fill="#CCCCCC"/>
<path d="M29.2901 19.6257L30.9738 16.548C30.9903 16.5179 30.9913 16.4816 30.9765 16.4505L30.4025 15.242C30.0421 14.4834 29.2774 14 28.4375 14L28.2788 13.9945C27.1796 13.9566 26.088 13.7978 25.0235 13.5211L24.813 13.4664C23.9401 13.2394 23.0933 12.9216 22.2866 12.5183L21.9308 12.3404C21.3949 12.0724 20.8874 11.7515 20.4156 11.3823L19.9438 11.013C19.8035 10.9033 19.6004 10.9313 19.4951 11.0749C19.1706 11.5173 18.9672 12.0367 18.9049 12.5817L18.8192 13.3321C18.7732 13.7347 18.7681 14.1408 18.804 14.5444L19.0129 16.8949C19.1683 18.6437 19.7719 20.323 20.7654 21.7706L20.9781 22.0806C21.2834 22.5254 21.6391 22.9332 22.0383 23.2961C22.0945 23.3472 22.1661 23.3787 22.242 23.3855C25.1286 23.6445 27.8993 22.1685 29.2901 19.6257Z" fill="#CCCCCC"/>
<path d="M22.9223 23.4422L24.922 22.5766C25.8048 22.1946 26.0735 21.0721 25.4595 20.3316C24.9604 19.7297 24.0725 19.635 23.4576 20.1181L22.9834 20.4907C22.8698 20.58 22.7659 20.681 22.6734 20.792L21.5329 22.1605C21.3728 22.3527 21.3855 22.6355 21.5625 22.8125L21.9148 23.2151C21.9713 23.2796 22.037 23.3356 22.1098 23.3811C22.3541 23.5339 22.6579 23.5566 22.9223 23.4422Z" fill="#EDEDED"/>
<path d="M25.4985 13.6055L25.4375 13.625L25.6203 13.6831C26.4118 13.935 27.2326 14.0825 28.0623 14.122C28.1038 14.124 28.1454 14.1192 28.1854 14.1077L28.5625 14L28.75 13.9375L27.5524 13.6771C27.3948 13.6429 27.2477 13.5711 27.1239 13.4678C27.0272 13.3873 27.0279 13.2386 27.1252 13.1589L27.3029 13.0135C27.515 12.84 27.6866 12.622 27.8055 12.375C27.1168 12.9205 26.3353 13.3374 25.4985 13.6055Z" fill="#B2B2B2"/>
<path d="M32.347 35.4285L16.0363 64.5866C15.9554 64.7314 15.7586 64.7586 15.6414 64.6414L15.3125 64.3125L13.9375 62.75L13.0611 61.6159C12.2301 60.5404 11.4882 59.399 10.8427 58.203L10.718 57.9719C10.0323 56.7014 9.45797 55.3739 9.00143 54.0042L8.56253 52.6875C7.90318 50.2974 7.75184 47.7956 8.11826 45.3434L8.13373 45.2399C8.29428 44.1654 8.55046 43.1075 8.89922 42.0786L9.62503 39.9375L10.1667 38.7981C11.0067 37.0311 12.1649 35.434 13.5834 34.0864L14.2715 33.4327C15.6941 32.0812 17.4242 31.0961 19.3125 30.5625C18.8709 30.6872 18.4201 30.777 17.9644 30.8309L17.0625 30.9375L16.375 31L15.625 31.125L14.875 31.1951L14.375 31.25L14.0149 31.2725C13.8991 31.2797 13.8447 31.1321 13.9375 31.0625L14.4409 30.8212C16.0634 30.0439 17.3971 28.7715 18.25 27.1875L18.806 26.3202C19.4689 25.286 20.3509 24.41 21.3895 23.754L21.6042 23.6185C21.9919 23.3736 22.4058 23.173 22.8382 23.0204L24.8058 22.3259C25.1685 22.1979 25.4613 21.9237 25.6129 21.5701L25.6429 21.5C25.7132 21.3359 25.7415 21.1569 25.7254 20.9791C25.701 20.7111 25.577 20.4621 25.3779 20.2811L25.032 19.9666C25.0108 19.9472 24.9913 19.9259 24.974 19.9029L22.75 16.9375L20.9754 14.4914C20.6243 14.0074 20.4199 13.4325 20.3868 12.8354C20.3814 12.7408 20.4795 12.6752 20.565 12.7162L22.4852 13.6378C24.1468 14.4354 26.0413 14.6031 27.8172 14.1098C28.23 13.9951 28.6518 13.9155 29.078 13.8718L29.9594 13.7814C32.1758 13.5541 34.415 13.7382 36.5645 14.3244L36.75 14.375L38.8498 15.1309C41.4837 16.0791 43.5709 18.1321 44.5625 20.75L45.0028 22.4667C45.1255 22.9459 45.299 23.4106 45.5203 23.853C46.0402 24.8927 46.8119 25.7861 47.7652 26.4516L48.8855 27.2337C49.3779 27.5775 49.8947 27.8847 50.4317 28.1534L52.9112 29.3931C53.0223 29.4486 53.0555 29.5915 52.9804 29.6904C52.2965 30.5901 51.3935 31.2994 50.3574 31.7506L48.9214 32.376C48.3497 32.625 47.7602 32.8312 47.1578 32.9931L46.1028 33.2765C44.624 33.6737 43.0995 33.875 41.5683 33.875H39.0417C38.5185 33.875 38.0002 33.7766 37.5135 33.5849C35.5727 32.8202 33.3654 33.6079 32.347 35.4285Z" fill="white"/>
<path d="M40.8981 24.9145L41.9983 24.9272C42.1477 24.929 42.1815 24.7185 42.039 24.6735C41.8051 24.5996 41.5778 24.506 41.3598 24.3937L40.501 23.9512C39.9187 23.6513 39.3711 23.2885 38.868 22.8691L38.699 22.7283C38.3175 22.4103 37.9712 22.0522 37.6662 21.6602L37.471 21.4091C37.4042 21.3232 37.2667 21.3756 37.274 21.4841C37.4015 23.3982 38.9798 24.8922 40.8981 24.9145Z" fill="#666666"/>
<path d="M17.2779 65.0494L35.9142 48.425C37.6709 46.8579 39.1975 45.0504 40.4488 43.0562L40.5625 42.875C41.1755 41.649 41.4372 40.2771 41.3184 38.9116L41.155 37.0322C41.0545 35.8761 40.5773 34.785 39.7967 33.9262C39.7664 33.893 39.7263 33.8701 39.6822 33.8611L36.6875 33.25C34.5147 32.594 32.211 32.4994 29.9917 32.975L29.875 33L28.1325 33.4074C23.0507 34.5954 18.5718 37.5856 15.5265 41.824L15.4497 41.9309C14.6106 43.0986 13.8978 44.3521 13.3232 45.6702L13.2207 45.9056C11.7693 49.2351 11.2802 52.9047 11.8086 56.4981L11.9814 57.6734C12.1594 58.8837 12.5242 60.0592 13.0627 61.1577C13.56 62.1724 14.2002 63.1104 14.9637 63.9434L15.9148 64.9809C16.2739 65.3726 16.8813 65.4031 17.2779 65.0494Z" fill="#CCCCCC"/>
<path d="M33.5936 42.8572L33.5334 42.8916C31.9607 43.7902 31.1148 45.4865 31.1975 47.2959C31.221 47.8105 31.7366 48.2819 32.2323 48.1415L33.1454 47.8827C34.3259 47.5482 35.4191 46.9601 36.3486 46.1592L39 43.875L39.7865 43.2929C44.3589 39.9086 50.1041 38.5141 55.7192 39.4256C55.8925 39.4537 55.898 39.7009 55.7262 39.7367L55.0625 39.875L54.7616 39.9802C54.1437 40.1965 53.607 40.597 53.2238 41.1277C53.1518 41.2274 53.2477 41.3612 53.3652 41.3251L53.5829 41.2581C54.8084 40.8811 56.0939 40.738 57.3722 40.8364L57.875 40.875C60.6054 40.9937 63.1392 42.3282 64.7817 44.5125L65.3974 45.3312C67.222 47.7579 67.9941 50.8162 67.5399 53.8181L67.3026 55.3859C66.9796 57.5204 66.2022 59.5607 65.023 61.369L64.9375 61.5L63.625 63.25L62.1875 64.875L60.8706 66.1392C59.6682 67.2935 58.3534 68.3246 56.9459 69.2172L56.5 69.5L55.6469 69.9062C55.4271 70.0109 55.2438 69.7097 55.4375 69.5625L56.625 68.4375L56.8691 68.1811C57.529 67.4882 58.0034 66.64 58.2482 65.7151L58.3611 65.2886C58.4119 65.097 58.4375 64.8967 58.4375 64.6985C58.4375 63.6136 57.6692 62.6622 56.6045 62.4539C55.9442 62.3246 55.2606 62.4952 54.7384 62.9195L53.5625 63.875L51.4868 65.5734C50.1244 66.688 48.6481 67.6556 47.0825 68.4602L44.9375 69.5625L41.3125 70.9375L40.5515 71.145C39.2277 71.5061 37.8765 71.7575 36.5115 71.8967L35.5 72H32.25L27.9375 71.5312L25.604 71.0262C24.3731 70.7599 23.182 70.3352 22.0603 69.7629C21.1476 69.2972 20.2866 68.7367 19.4914 68.0906L17.6875 66.625C15.5006 64.955 14.1306 62.431 13.9219 59.6872L13.8125 58.25L13.9412 56.2277C14.1417 53.076 15.3489 50.072 17.3849 47.6579C18.2082 46.6817 19.1547 45.8167 20.2008 45.0844L20.5846 44.8157C22.1823 43.6974 23.965 42.8701 25.8506 42.372L27.1184 42.0371C28.7669 41.6016 30.494 41.5556 32.1634 41.9025L33.4859 42.1772C33.8177 42.2462 33.8879 42.6891 33.5936 42.8572Z" fill="#5E5E5E"/>
</g>
<defs>
<clipPath id="clip0_221_192">
<rect width="64" height="64" fill="white" transform="translate(7 8)"/>
</clipPath>
</defs>
</svg>
