<svg width="79" height="79" viewBox="0 0 79 79" fill="none" xmlns="http://www.w3.org/2000/svg">
<path d="M26.1272 61.8455C23.6897 59.9267 21.0909 58.0885 19.3103 55.5012C15.5705 50.9374 12.6893 45.6475 10.7244 40.0926C9.53154 36.4796 9.12818 32.6073 7.58963 29.1326C5.98769 26.6087 7.86622 23.8542 10.6264 23.0533C11.8538 22.817 14.0204 21.653 11.4101 22.4886C9.07055 24.2057 8.84582 20.927 11.243 20.7195C12.8795 20.5005 13.4845 19.1637 12.9256 17.9536C11.1681 16.8069 17.1897 15.5449 14.1587 13.8335C11.0009 10.4279 18.5727 9.77101 16.7057 13.6433C16.262 16.6167 21.9955 13.0959 20.6644 16.5303C22.0186 18.1783 25.7353 16.9048 25.6374 19.2213C27.6081 19.3596 28.2881 21.0134 30.132 21.1402C32.0509 22.0045 35.5256 22.6902 36.1767 24.8511C34.2752 26.3551 29.8669 21.7394 29.6595 25.9114C30.2357 32.0714 30.0859 38.4157 32.339 44.2818C33.405 47.8315 35.9866 50.6262 38.3203 53.3921C40.5561 56.1004 43.5756 58.0078 46.6642 59.6155C49.3668 60.889 52.2825 61.736 55.2329 62.2662C56.4257 61.35 58.5405 57.9559 60.4017 59.385C60.4939 60.9985 56.7023 62.7502 60.2231 62.5774C62.2918 61.955 63.7266 64.1735 65.4323 62.1682C66.9996 64.0295 71.9553 60.9812 70.8374 64.7786C69.3276 65.7524 67.1264 65.1647 65.6109 66.5073C63.1158 65.2626 61.1335 67.6194 58.3734 67.3255C55.3078 67.873 52.1904 68.0977 49.0787 68.0977C43.979 67.6943 38.7698 67.5272 33.9236 65.7524C31.1923 64.9572 28.5243 63.4014 26.1272 61.8455ZM30.4317 63.7125C33.0996 64.865 35.71 66.0809 38.6315 66.4497C43.2702 67.095 48.0645 68.0862 52.7205 67.1815C50.6115 66.2307 48.4333 67.5503 46.3358 66.5015C43.8176 67.0432 41.1151 66.3632 38.5566 66.029C35.6466 64.7325 32.5061 63.8393 29.7805 62.1567C26.3749 60.912 31.5438 63.7529 32.46 63.9834C34.5863 65.1935 30.1205 63.361 29.4866 62.8597C27.7061 61.8571 27.4756 62.0703 29.308 63.0844C29.6768 63.2976 30.0456 63.5281 30.4317 63.7125ZM25.355 60.1226C27.9423 61.0791 25.3435 58.3017 24.1622 58.463C23.6378 57.5526 22.1569 56.9763 23.1999 56.4865C21.3213 57.1377 21.2292 54.0087 20.3475 54.4524C18.3595 53.8243 19.5754 51.6 17.207 50.2344C16.9938 48.7938 14.856 47.5491 14.176 45.3767C13.8764 44.2645 11.7616 41.078 13.0581 44.0456C14.1645 46.9037 16.1064 49.3527 17.7256 51.796C18.9818 54.124 20.4685 56.5557 22.7504 58.0078C23.5226 58.7569 24.2659 59.8921 25.355 60.1226ZM17.9043 51.9458C18.3768 52.7871 17.9965 51.5539 17.9043 51.9458ZM28.4494 61.2693C29.0256 61.0157 27.6254 60.9466 28.4494 61.2693ZM29.8554 61.7821C29.7114 61.0734 29.2158 62.1797 29.8554 61.7821ZM31.6129 62.514C32.4485 61.7188 30.3222 62.0126 31.6129 62.514ZM34.6209 64.1908C35.1337 63.4417 32.9959 63.9085 34.6209 64.1908ZM28.8412 60.1629C30.1378 59.3216 27.1644 60.1514 28.8412 60.1629ZM30.1608 60.8198C30.1205 60.3761 29.6883 61.0157 30.1608 60.8198ZM36.7472 64.9284C37.8075 65.5968 42.9302 66.392 39.7206 65.205C39.1847 65.3202 33.7681 63.6722 36.7472 64.9284ZM26.2885 56.7862C26.1848 56.3425 24.6462 56.2964 26.2885 56.7862ZM29.3541 58.5725C30.1551 58.0193 27.7003 58.1461 29.3541 58.5725ZM31.9356 60.1572C33.0766 59.725 30.0744 59.725 31.9356 60.1572ZM25.0381 55.4263C26.2827 56.377 30.0513 55.5473 26.9397 54.8558C25.5279 54.1009 22.3355 53.5881 24.5079 55.311L25.0381 55.4263ZM33.6816 60.7046C34.2002 59.8229 31.5092 60.1975 33.6816 60.7046ZM31.054 58.6128C34.0908 59.4714 28.5013 56.6882 30.3049 58.2959L30.7082 58.4803L31.054 58.6128ZM36.3208 61.6554C39.1962 61.6842 33.722 61.2635 36.3208 61.6554ZM23.9317 53.7609C23.8222 53.225 23.2229 53.807 23.9317 53.7609ZM41.1842 64.3867C41.2649 63.4187 40.2507 65.107 41.1842 64.3867ZM28.8412 56.7689C28.6684 56.2618 27.9423 56.7458 28.8412 56.7689ZM24.2083 53.4267C25.8563 53.3287 21.9437 52.7006 24.2083 53.4267ZM18.711 49.8771C18.5036 49.0819 16.9131 48.4538 18.711 49.8771ZM33.1342 59.0277C32.9901 59.1026 32.8346 58.682 33.1342 59.0277ZM42.112 64.5366C42.0832 64.0122 41.6222 64.7382 42.112 64.5366ZM32.339 58.2095C32.5003 57.5295 30.933 58.002 32.339 58.2095ZM25.6546 53.9684C26.882 53.8358 23.6839 53.1386 25.6546 53.9684ZM36.9662 60.9985C38.8793 60.2378 35.0992 60.6297 36.9662 60.9985ZM31.0828 57.0051C33.2898 57.2875 28.4552 55.5012 30.5988 56.8438L31.0828 57.0051ZM38.7525 61.7245C40.8154 60.4914 40.1355 64.6115 42.2503 62.0703C44.3362 60.549 40.4466 63.9546 43.0167 62.3411C44.8779 61.0964 47.6208 62.9289 49.3553 63.5281C50.5999 63.4648 51.8158 64.6057 53.095 63.9142C55.5556 63.2515 48.2777 62.9289 50.1851 61.7533C47.932 62.4102 46.2666 60.9696 45.1603 59.5291C42.6306 58.9471 39.7091 57.6563 38.4471 55.4147C37.9343 54.5734 39.1905 55.5357 38.0034 54.1585C36.4821 52.8044 35.7215 51.2658 34.7016 49.6178C33.4799 48.9666 33.3359 47.0478 33.2149 49.5544C33.2264 47.9755 31.7397 46.9095 31.3767 47.3532C31.3709 45.8319 32.9671 46.5925 31.8492 45.4689C31.6072 43.89 30.8177 42.2477 30.5815 40.4671C30.2127 39.6086 30.5296 37.7704 29.3195 39.7123C28.8816 41.7694 29.1755 37.1884 29.8612 38.6981C30.7601 37.1595 29.5385 37.3382 29.4866 37.5514C30.0744 36.2491 29.8554 34.4051 29.331 35.1081C29.6422 33.7309 29.8266 30.0373 28.8643 30.6942C29.4463 29.2536 29.9707 24.102 27.441 26.067C26.4153 26.0843 24.6462 26.4358 23.8049 26.8564C26.4326 28.3028 23.5399 27.3808 22.4681 27.1503C22.3298 28.4929 21.2695 27.9109 19.9441 27.9225C22.0589 28.1818 18.9127 30.0834 17.7026 29.3458C16.1237 30.1006 19.0625 31.9792 17.7314 32.5612C17.8927 33.4371 15.317 32.2442 15.5186 34.2668C13.9916 33.6215 15.3112 36.664 16.0718 35.6383C18.6707 36.3413 17.9043 37.949 17.9677 39.4703C17.5412 40.3577 15.8759 37.3843 17.5989 37.5226C16.2389 35.3156 16.0949 36.7274 14.9712 37.7473C14.7119 37.8222 17.8466 39.2052 15.8759 39.8909C17.6104 40.1617 17.6622 41.6772 18.0138 42.6338C19.0567 43.7171 18.8435 41.4352 20.0882 42.7375C19.2988 41.5735 15.9105 39.4645 18.6361 40.1387C18.6188 38.9689 18.1405 38.0239 18.9818 38.047C19.8116 36.5487 18.1117 41.7464 19.9787 39.839C20.4973 39.6143 20.6241 38.3408 21.5518 39.9601C22.9002 41.2854 22.0416 42.2477 20.1343 41.0319C20.4743 42.1901 22.6813 42.5992 22.2664 44.4086C22.7043 45.999 23.3209 45.4113 23.8568 45.3191C24.2774 46.8634 24.5137 45.7282 24.5368 44.9906C26.4614 45.4055 26.0119 46.5407 26.6112 47.3359C27.9365 47.9352 24.7154 43.2792 26.9915 45.9356C29.3887 48.0965 27.8904 49.0012 25.7411 48.6555C27.101 48.546 27.5389 50.4937 29.2388 50.4245C30.7889 51.1621 31.8434 53.9972 29.1697 52.8159C28.242 51.9804 24.9574 50.9489 27.6427 52.5393C30.1205 53.686 32.0855 54.3717 34.4768 55.8123C36.1825 57.034 36.9258 58.4284 37.5712 58.705C36.1364 59.3908 33.2437 58.1576 35.3931 57.7773C34.0504 57.5353 32.5464 56.8553 33.8314 58.5264C34.9205 59.4369 37.698 59.3447 38.1993 59.4426C37.7787 60.3704 37.0526 60.4453 38.2166 60.5144C36.9201 61.2174 38.6315 61.3269 38.7525 61.7245ZM36.1018 54.2334C35.3124 53.4094 35.1107 51.8651 35.9635 53.2077C36.3957 53.3806 37.3638 55.7317 36.1018 54.2334ZM44.7396 59.7192C45.2294 59.6846 44.7511 60.0938 44.7396 59.7192ZM34.8572 52.2109C35.1395 53.1732 34.8226 50.9604 34.8572 52.2109ZM33.9986 51.0526C35.249 51.6 33.0017 49.1395 33.9986 51.0526ZM23.5917 43.8727C24.1737 43.7171 23.8798 44.8696 23.5917 43.8727ZM31.8722 48.3616C32.2929 49.491 32.2295 47.019 31.8722 48.3616ZM26.0234 44.2934C26.8878 44.9906 25.6143 43.55 26.0234 44.2934ZM31.0425 45.9011C30.1032 43.7978 31.7109 44.7486 31.2499 46.2468L31.0425 45.9011ZM22.3874 40.1329C21.9667 39.4414 21.2753 37.4131 21.4942 36.7965C21.6959 37.8049 23.6378 41.1356 22.445 38.1737C21.1312 35.6959 24.0181 38.9805 24.3178 39.597C24.4561 40.2136 23.5053 39.4299 24.1507 40.8705C22.9751 39.2282 23.4592 41.781 22.3874 40.1329ZM19.7136 38.289C20.3245 39.3896 19.8231 36.6813 19.7136 38.289ZM20.9122 38.7039C21.8861 40.3922 21.4885 37.488 20.9122 38.7039ZM18.0195 36.4623C17.0226 35.4712 16.3023 34.5607 18.0656 35.8457C18.7456 35.8745 16.5559 33.7713 18.227 35.1773C19.9902 35.5 19.0971 38.0642 18.0195 36.4623ZM19.5408 36.422C20.117 35.8515 19.8462 36.9867 19.5408 36.422ZM20.4743 36.7216C21.5403 37.4131 19.5984 35.0793 20.4743 36.7216ZM18.6188 34.9468C15.7261 32.371 22.2549 36.2952 19.0913 35.4251L18.6188 34.9468ZM26.9108 39.7641C25.6546 39.015 26.5766 34.4743 27.003 37.5802C28.2189 37.1884 26.9339 39.1821 27.8443 39.1648C27.7061 40.421 27.2969 40.8763 26.9108 39.7641ZM29.9822 41.5793C30.2415 42.5128 30.1032 40.2078 29.9822 41.5793ZM29.4463 41.0491C29.5846 40.4671 29.4636 41.7406 29.4463 41.0491ZM19.1835 34.0997C17.3223 31.5355 24.5886 36.6986 20.3763 34.7509C19.9326 34.6299 19.4025 34.5895 19.1835 34.0997ZM25.0957 37.2287C25.4875 37.586 24.9171 35.0678 25.0957 37.2287ZM29.5788 40.1099C29.9246 38.8767 29.6076 40.9224 29.5788 40.1099ZM19.4716 33.1201C20.578 32.8839 24.0527 35.062 20.8604 33.7425C20.5031 33.3449 19.7482 33.5235 19.4716 33.1201ZM28.9622 37.851C29.0775 35.6383 29.6249 36.5314 28.968 38.168L28.9622 37.851ZM20.2899 32.348C20.7394 31.6853 19.0913 29.3631 20.5261 31.5124C21.1485 32.0022 22.3182 32.3364 21.281 32.5439C22.9175 33.9845 20.8892 32.9357 20.2899 32.348ZM28.4955 37.1595C28.8067 34.6414 28.7663 38.6347 28.4955 37.1595ZM19.3506 30.0257C19.6964 29.8759 19.535 30.481 19.3506 30.0257ZM21.4885 31.2992C22.5084 32.5842 22.0416 30.141 21.4885 31.2992ZM27.5217 34.6529C27.6369 35.2983 27.5217 34.2092 27.5217 34.6529ZM27.1759 33.8808C27.9538 34.9756 26.3404 31.8121 27.1759 33.8808ZM26.6631 32.5266C27.1413 33.5984 26.519 31.6738 26.6631 32.5266ZM27.4986 31.1667C26.9224 30.1525 28.2247 26.7008 28.3687 28.8444C27.7637 30.5098 28.1959 31.4433 28.6165 29.2075C29.4002 27.4442 28.4494 32.6764 27.4986 31.1667ZM28.3572 26.0324C28.6107 25.727 28.4148 26.407 28.3572 26.0324ZM26.9224 54.3372C26.9627 54.5273 26.5824 54.0375 26.9224 54.3372ZM29.8785 55.8354C31.5265 56.2618 31.515 55.5818 30.0283 55.3802C29.2273 54.6368 26.7034 53.8474 28.9622 55.288C29.1178 55.6625 29.5903 55.651 29.8785 55.8354ZM24.0354 51.9515C24.9401 52.6315 27.4525 53.8647 25.3262 52.2109C26.0407 51.3811 23.9548 50.9374 24.6462 50.3784C22.883 49.3009 23.2575 49.3988 24.4907 49.4334C22.3759 48.4884 24.7961 48.5575 24.6808 48.0735C23.8626 47.9121 20.6299 46.6329 22.5314 48.1772C20.5953 47.1918 22.0705 48.546 21.4827 48.4019C19.5004 47.8603 23.246 49.9117 21.1715 49.3988C22.3067 50.2977 24.2256 51.7038 21.6498 50.3496C21.3213 50.8394 23.4995 51.5828 24.0354 51.9515ZM27.1298 53.7321C30.8926 54.9422 25.2859 52.2454 27.1298 53.7321ZM42.9763 63.3265C43.0224 62.5773 42.4577 63.9661 42.9763 63.3265ZM44.6013 64.0122C45.4714 63.1709 44.6359 65.3548 46.0419 63.8047C46.0592 62.6984 46.0016 62.0414 44.4284 63.3898C43.9963 63.6319 43.8003 64.6518 44.6013 64.0122ZM18.7571 47.7796C18.4863 46.7308 16.8843 46.7366 18.7571 47.7796ZM20.4916 48.9205C19.8462 47.8487 18.1866 47.9525 20.4916 48.9205ZM30.3856 54.8846C31.3536 55.7432 34.8226 55.5127 31.5553 54.9883C31.077 54.2738 28.4897 54.4467 30.3856 54.8846ZM43.9847 63.2804C45.4657 62.0357 42.5441 63.8393 43.9847 63.2804ZM47.0734 65.4067C47.0849 65.0091 46.4337 65.5795 47.0734 65.4067ZM47.0791 64.8477C48.7272 63.1017 45.483 64.9514 47.0791 64.8477ZM14.4757 44.2012C13.0754 42.2016 13.6055 41.3027 12.2514 39.6662C11.9921 38.4157 9.92915 35.5807 11.1853 38.5828C12.3321 40.3404 12.672 43.0602 14.4757 44.2012ZM46.5605 64.2945C49.5915 62.3353 45.3216 63.4417 46.5605 64.2945ZM48.8712 65.1992C50.3925 63.8969 47.9147 64.9284 48.8712 65.1992ZM18.2385 45.5668C18.6764 44.9215 17.1206 45.4862 18.2385 45.5668ZM48.393 64.5769C49.8624 63.6319 48.053 63.7759 48.1279 64.6633L48.393 64.5769ZM28.4667 52.0207C28.4148 51.3811 27.6888 52.0726 28.4667 52.0207ZM29.6998 52.7295C29.3022 51.9343 29.0948 52.8505 29.6998 52.7295ZM50.7498 65.2165C52.6341 63.8566 49.6088 64.9572 50.3579 65.4758L50.7498 65.2165ZM50.0237 64.8708C51.5623 63.5858 48.4102 65.4412 50.0237 64.8708ZM53.7059 67.3198C54.7373 66.6341 52.4554 67.1008 53.7059 67.3198ZM19.1835 45.1001C20.5607 45.4113 24.6923 48.4941 22.2549 45.3133C21.0044 44.9445 21.7535 41.8905 20.48 42.4321C21.3329 43.8612 21.1831 44.4662 19.3852 43.5673C17.1321 42.4667 18.1175 44.109 18.5612 44.5642C17.9619 44.7082 19.3621 45.0886 19.1835 45.1001ZM12.9025 40.1387C13.1503 39.1188 10.6264 34.5204 11.7097 37.8337C12.1016 38.531 12.0612 39.8448 12.9025 40.1387ZM24.433 47.2495C24.3985 47.163 23.7243 46.6559 24.433 47.2495ZM26.179 47.6586C26.179 46.5753 24.2486 47.2149 26.179 47.6586ZM41.3341 57.2068C41.0459 56.4692 40.1931 57.1953 41.3341 57.2068ZM42.0601 57.7427C41.9564 57.3278 41.6452 57.8234 42.0601 57.7427ZM48.0703 61.5228C48.6465 61.0964 47.35 61.471 48.0703 61.5228ZM16.0373 40.9397C17.6911 40.3 14.2682 40.4844 16.0373 40.9397ZM40.0029 56.0371C39.9799 54.9653 38.9484 56.3021 40.0029 56.0371ZM15.3861 39.4184C16.4464 39.0611 14.4007 39.1821 15.3861 39.4184ZM18.4632 40.9108C18.4459 40.5593 18.1405 41.0434 18.4632 40.9108ZM56.0454 63.9546C57.4111 63.678 60.5227 64.6518 61.0241 63.5915C59.3645 63.5512 55.2905 62.4218 55.1003 63.8566L55.4634 63.9142L56.0454 63.9546ZM19.4428 41.1586C19.4716 40.0753 18.6015 41.1183 19.4428 41.1586ZM11.3467 35.5403C10.9779 33.4774 9.94644 35.2292 11.3467 35.5403ZM13.2771 36.0244C13.3001 35.3617 11.508 35.4308 13.2771 36.0244ZM14.3777 36.566C14.1299 36.8945 14.0608 36.3125 14.3777 36.566ZM21.3271 41.0203C21.6556 40.7207 20.5492 40.8014 21.3271 41.0203ZM13.6459 35.3444C13.4557 33.7828 11.4101 35.1139 13.6459 35.3444ZM9.68713 32.7744C9.6295 32.0541 9.30105 33.0452 9.68713 32.7744ZM10.2749 32.3307C10.1769 31.4779 9.7678 32.4402 10.2749 32.3307ZM13.5306 34.2726C14.9078 33.7309 11.024 33.1547 13.2483 34.1689L13.5306 34.2726ZM57.0884 61.1771C57.97 60.3704 55.9705 60.9293 57.0884 61.1771ZM62.3494 63.9085C62.7009 62.8655 61.462 64.041 62.3494 63.9085ZM13.8591 32.5669C14.0089 31.5585 12.77 32.7686 13.8591 32.5669ZM9.2319 29.4668C8.98412 28.0435 9.01869 25.5368 11.3986 26.3839C8.22349 27.0178 13.5998 30.3311 12.9198 27.715C14.2567 27.7784 15.5302 26.9256 14.8329 28.2221C17.4663 27.934 19.2872 25.6521 21.8284 25.969C23.8107 25.704 25.9716 25.508 28.1037 24.7128C29.8554 24.5861 31.5438 22.696 30.5872 21.5781C28.1959 21.3764 25.6892 21.6761 23.0501 22.2004C20.1228 22.8112 17.4606 23.9637 14.5045 24.465C11.6233 24.8511 15.0807 25.5311 14.2567 25.6809C12.7527 26.1995 16.0488 26.5568 14.0608 27.1042C12.8334 26.868 11.5541 26.4473 12.0785 25.1565C9.31834 25.5138 6.89238 26.6605 9.07632 29.4668H9.2319ZM15.8817 26.0785C16.5271 23.6929 19.3449 28.0377 16.9419 26.3954C16.6538 26.1765 16.1813 26.0036 15.8817 26.0785ZM16.0084 24.9203C16.9419 24.2288 16.504 25.3121 16.0084 24.9203ZM17.1955 24.9433C17.2819 23.8485 19.9096 25.5253 17.6277 25.3352L17.1955 24.9433ZM18.8147 24.2864C19.4082 23.5949 18.9876 24.903 18.8147 24.2864ZM19.2296 24.0098C20.215 22.8228 24.8133 23.255 21.4481 23.8946C20.5492 23.2146 19.8577 24.2979 19.2296 24.0098ZM25.234 23.0878C28.2189 24.2346 25.0842 19.8494 25.234 23.0878ZM26.9397 23.0763C27.562 21.4456 29.3599 22.4194 27.2278 22.7479C27.2739 22.9207 27.1644 23.5892 26.9397 23.0763ZM13.1906 31.7314C15.0519 30.5904 11.2142 30.7403 13.1906 31.7314ZM14.5679 32.1117C15.219 31.4202 13.1503 31.8294 14.5679 32.1117ZM10.5111 29.2363C11.5772 28.418 9.25495 28.9251 10.5111 29.2363ZM65.4553 63.6088C65.4841 62.658 64.6428 64.0352 65.4553 63.6088ZM59.8716 59.7999C60.0329 58.705 59.1571 59.8921 59.8716 59.7999ZM66.9939 63.9776C68.4806 63.9834 71.5 63.5166 68.2616 63.5166C67.7545 63.5915 65.3055 63.58 66.9939 63.9776ZM15.778 31.4433C16.9823 31.3626 17.6622 30.1179 15.5417 30.1871C12.2629 29.8471 18.4344 31.3107 15.121 30.8901C14.6773 31.184 15.7491 31.5239 15.778 31.4433ZM16.8382 31.9792C16.7115 31.207 16.4637 32.3883 16.8382 31.9792ZM18.0944 28.6255C18.613 27.9801 17.3684 28.4526 18.0944 28.6255ZM14.0896 21.9411C16.2389 21.2093 19.172 20.3911 20.1862 22.2984C19.1547 21.0595 19.7713 19.8321 20.7451 21.653C22.1223 23.4912 22.8138 20.8175 21.9149 20.2009C22.9348 21.4686 24.0988 22.0679 22.6006 20.2816C24.2313 18.3224 19.3391 20.5409 18.227 20.5178C17.6968 20.7541 12.7066 21.7855 14.0896 21.9411ZM15.3515 19.5325C16.5789 18.6105 19.5869 20.0856 17.6565 18.6162C17.4663 18.4434 13.4211 19.7284 15.3515 19.5325ZM19.8174 19.7169C21.2522 19.7514 19.2008 17.7922 20.9065 18.6796C20.6241 17.7634 18.9184 17.5905 18.0829 17.2275C17.6104 18.0631 19.0395 19.7284 19.8174 19.7169ZM16.1352 15.6602C16.6308 14.9917 15.2651 16.0059 16.1352 15.6602ZM17.9561 16.0981C20.2668 15.7927 17.3684 15.107 17.4894 16.075L17.9561 16.0981ZM14.5506 13.4359C12.9256 11.3096 17.6104 13.7931 15.9566 11.5689C14.5679 10.4625 13.231 12.8135 14.5506 13.4359ZM35.4161 24.6725C36.1594 23.3529 32.339 22.8919 34.9148 24.2057C35.1568 24.2864 35.0992 24.7647 35.4161 24.6725Z" fill="#010101"/>
</svg>
