<svg width="79" height="79" viewBox="0 0 79 79" fill="none" xmlns="http://www.w3.org/2000/svg">
<path d="M25.4912 32.9948H35.6144L35.1213 35.9062H28.583L28.0908 38.9472H33.9848L33.4925 41.868H27.5985L26.6132 47.8273H23.0292L25.4912 32.9948Z" fill="#333333"/>
<path d="M35.7785 36.7025H39.3196L37.4691 47.8248H33.9281L35.7785 36.7025ZM36.208 33.7053C36.3541 32.7732 37.2741 32.0181 38.2698 32.0181C39.2654 32.0181 39.975 32.7732 39.8513 33.7053C39.7276 34.6373 38.8016 35.3993 37.8025 35.3993C36.8034 35.3993 36.0723 34.6313 36.208 33.7053Z" fill="#333333"/>
<path d="M41.1571 32.9948H44.6973L43.7781 38.6071H43.8537C44.4327 37.5856 45.5847 36.5582 47.3441 36.5582C49.6687 36.5582 51.4676 38.3468 50.8121 42.2709C50.1893 46.0577 47.8724 47.9837 45.4103 47.9837C43.7309 47.9837 42.8907 47.0499 42.6304 46.0216H42.4921L42.2026 47.8256H38.6993L41.1571 32.9948ZM44.6543 45.2295C45.9575 45.2295 46.8879 44.0638 47.174 42.2684C47.46 40.4729 46.942 39.3278 45.6277 39.3278C44.3313 39.3278 43.3829 40.4506 43.0934 42.2684C42.8005 44.0664 43.358 45.2295 44.6543 45.2295Z" fill="#333333"/>
<path d="M51.2235 42.3088C51.7948 38.8622 54.3436 36.5599 57.6965 36.5599C60.8536 36.5599 62.7366 38.5796 62.1284 42.2366L61.9901 43.1197H54.5833L54.561 43.2503C54.3368 44.6626 55.0025 45.4839 56.3856 45.4839C57.3057 45.4839 58.1037 45.093 58.5075 44.3473L61.7367 44.441C60.9481 46.6281 58.8262 48.0396 55.8951 48.0396C52.403 48.0344 50.6222 45.8627 51.2235 42.3088ZM59.0289 41.0631C59.2102 39.9266 58.529 39.1156 57.3709 39.1156C56.2267 39.1156 55.213 39.9627 54.9596 41.0631H59.0289Z" fill="#333333"/>
<path d="M63.8526 36.7025H67.2889L66.9452 38.7299H67.0612C67.7201 37.26 68.8128 36.553 70.0293 36.553C70.3564 36.5553 70.6822 36.5956 71 36.6733L70.4786 39.7582C70.153 39.6353 69.5516 39.5701 69.1101 39.5701C67.8576 39.5701 66.7709 40.4609 66.5398 41.7856L65.5398 47.8248H61.9996L63.8526 36.7025Z" fill="#333333"/>
<path d="M23.3024 36.9319H11.7472L10.8229 38.2437L23.0885 38.2368L23.3024 36.9319Z" fill="#00ACD7"/>
<path d="M22.8944 39.6508H7.94073L6.98975 40.9574L22.6805 40.9463L22.8944 39.6508Z" fill="#00ACD7"/>
<path d="M22.4863 42.3689H16.0975L15.2384 43.6807L22.2724 43.6755L22.4863 42.3689Z" fill="#00ACD7"/>
</svg>
