<svg width="79" height="79" viewBox="0 0 79 79" fill="none" xmlns="http://www.w3.org/2000/svg">
<g clip-path="url(#clip0_221_193)">
<path fill-rule="evenodd" clip-rule="evenodd" d="M69.0781 22.2325C69.1008 22.3163 69.1124 22.4028 69.1126 22.4897V35.9937C69.1126 36.167 69.0669 36.3373 68.98 36.4872C68.8931 36.6372 68.7682 36.7616 68.6178 36.8478L57.2837 43.3734V56.3075C57.2837 56.6595 57.0966 56.9845 56.7914 57.1617L33.1323 70.7814C33.0782 70.8121 33.0191 70.8318 32.96 70.8528C32.9378 70.8602 32.9169 70.8737 32.8935 70.8798C32.7282 70.9234 32.5543 70.9234 32.3889 70.8798C32.3618 70.8725 32.3372 70.8577 32.3114 70.8478C32.2572 70.8281 32.2006 70.8109 32.1489 70.7814L8.49477 57.1617C8.3445 57.0754 8.21964 56.951 8.13278 56.801C8.04592 56.651 8.00012 56.4808 8 56.3075V15.7955C8 15.7069 8.01231 15.6208 8.03446 15.5371C8.04185 15.5088 8.05908 15.4829 8.06892 15.4546C8.08738 15.4029 8.10462 15.35 8.13169 15.302C8.15015 15.27 8.17723 15.2441 8.19938 15.2146C8.22769 15.1752 8.25354 15.1346 8.28677 15.1001C8.31508 15.0718 8.352 15.0509 8.384 15.0263C8.41969 14.9968 8.45169 14.9648 8.49231 14.9414L20.3212 8.13153C20.471 8.04536 20.6408 8 20.8135 8C20.9863 8 21.1561 8.04536 21.3058 8.13153L33.1335 14.9414H33.136C33.1754 14.966 33.2086 14.9968 33.2443 15.0251C33.2763 15.0497 33.312 15.0718 33.3403 15.0989C33.3748 15.1346 33.3994 15.1752 33.4289 15.2146C33.4498 15.2441 33.4782 15.27 33.4954 15.302C33.5237 15.3512 33.5397 15.4029 33.5594 15.4546C33.5692 15.4829 33.5865 15.5088 33.5938 15.5383C33.6165 15.6222 33.6281 15.7087 33.6283 15.7955V41.0989L43.4843 35.4238V22.4885C43.4843 22.4023 43.4966 22.3149 43.5188 22.2325C43.5274 22.2029 43.5434 22.1771 43.5532 22.1488C43.5729 22.0971 43.5902 22.0441 43.6172 21.9961C43.6357 21.9641 43.6628 21.9383 43.6837 21.9088C43.7132 21.8694 43.7378 21.8288 43.7723 21.7943C43.8006 21.766 43.8363 21.7451 43.8683 21.7205C43.9052 21.6909 43.9372 21.6589 43.9766 21.6355L55.8068 14.8257C55.9565 14.7394 56.1263 14.694 56.2991 14.694C56.4719 14.694 56.6417 14.7394 56.7914 14.8257L68.6191 21.6355C68.6609 21.6602 68.6929 21.6909 68.7298 21.7192C68.7606 21.7438 68.7963 21.766 68.8246 21.7931C68.8591 21.8288 68.8837 21.8694 68.9132 21.9088C68.9354 21.9383 68.9625 21.9641 68.9797 21.9961C69.008 22.0441 69.024 22.0971 69.0437 22.1488C69.0548 22.1771 69.0708 22.2029 69.0781 22.2325ZM67.1409 35.4238V24.1943L63.0018 26.5771L57.2837 29.8694V41.0989L67.1422 35.4238H67.1409ZM55.3132 55.7377V44.5008L49.6886 47.7131L33.6271 56.8798V68.2226L55.3132 55.7377ZM9.97169 17.5001V55.7377L31.6554 68.2214V56.8811L20.3274 50.47L20.3237 50.4675L20.3188 50.4651C20.2806 50.4429 20.2486 50.4109 20.2129 50.3838C20.1822 50.3592 20.1465 50.3395 20.1194 50.3125L20.1169 50.3088C20.0849 50.278 20.0628 50.2398 20.0357 50.2054C20.0111 50.1721 19.9815 50.1438 19.9618 50.1094L19.9606 50.1057C19.9385 50.0688 19.9249 50.0245 19.9089 49.9826C19.8929 49.9457 19.872 49.9112 19.8622 49.8718C19.8498 49.8251 19.8474 49.7746 19.8425 49.7266C19.8375 49.6897 19.8277 49.6528 19.8277 49.6158V49.6134V23.1752L14.1108 19.8817L9.97169 17.5001ZM20.8148 10.1229L10.96 15.7955L20.8123 21.4681L30.6658 15.7943L20.8123 10.1229H20.8148ZM25.9397 45.5248L31.6566 42.2337V17.5001L27.5175 19.8829L21.7994 23.1752V47.9088L25.9397 45.5248ZM56.2991 16.8171L46.4455 22.4897L56.2991 28.1623L66.1514 22.4885L56.2991 16.8171ZM55.3132 29.8694L49.5951 26.5771L45.456 24.1943V35.4238L51.1729 38.7149L55.3132 41.0989V29.8694ZM32.64 55.1752L47.0929 46.9241L54.3175 42.8011L44.4714 37.1321L33.1348 43.6589L22.8025 49.6072L32.64 55.1752Z" fill="#FF2D20"/>
</g>
<defs>
<clipPath id="clip0_221_193">
<rect width="61.5385" height="64" fill="white" transform="translate(8 8)"/>
</clipPath>
</defs>
</svg>
