<svg width="79" height="79" viewBox="0 0 79 79" fill="none" xmlns="http://www.w3.org/2000/svg">
<g clip-path="url(#clip0_221_194)">
<path fill-rule="evenodd" clip-rule="evenodd" d="M44.091 10.0256C43.6534 10.0256 43.247 10.1194 42.8718 10.2445C43.669 10.7759 44.1066 11.4793 44.3255 12.2765C44.3412 12.3859 44.3724 12.464 44.388 12.5735C44.4037 12.6672 44.4193 12.761 44.4193 12.8548C44.4818 14.2303 44.0598 14.4023 43.7628 15.2151C43.3095 16.2623 43.4345 17.3878 43.9816 18.2943C44.0285 18.4038 44.091 18.5288 44.1692 18.6382C43.5752 14.6836 46.8733 14.0896 47.4829 12.8548C47.5298 11.7763 46.6388 11.0573 45.9355 10.5571C45.2633 10.1507 44.6537 10.0256 44.091 10.0256ZM49.0616 10.9166C48.9991 11.2761 49.046 11.1823 49.0304 11.3699C49.0147 11.4949 49.0147 11.6512 48.9991 11.7763C48.9679 11.9013 48.9366 12.0264 48.8897 12.1514C48.8585 12.2765 48.8116 12.4015 48.7647 12.5266C48.7021 12.6516 48.6553 12.761 48.5927 12.8861C48.5459 12.9486 48.5146 13.0111 48.4677 13.0736C48.4365 13.1205 48.4051 13.1674 48.3739 13.2143C48.2958 13.3237 48.2176 13.4332 48.1394 13.5269C48.0457 13.6207 47.9675 13.7301 47.8581 13.8083V13.8239C47.7643 13.9021 47.6705 13.9959 47.5611 14.074C47.2329 14.3241 46.8577 14.5117 46.5138 14.7462C46.4044 14.8243 46.295 14.8868 46.2012 14.9806C46.0918 15.0588 45.998 15.1369 45.9042 15.2307C45.7948 15.3245 45.7167 15.4183 45.6229 15.5277C45.5447 15.6215 45.4509 15.7309 45.3884 15.8403C45.3103 15.9497 45.2321 16.0592 45.1696 16.1686C45.107 16.2936 45.0602 16.403 44.9977 16.5281C44.9508 16.6531 44.9039 16.7625 44.8726 16.8876C44.8257 17.0283 44.7945 17.1533 44.7632 17.2784C44.7475 17.3409 44.7475 17.419 44.732 17.4816C44.7163 17.5441 44.7163 17.6066 44.7007 17.6691C44.7007 17.7942 44.6851 17.9348 44.6851 18.0599C44.6851 18.1537 44.6851 18.2475 44.7007 18.3413C44.7007 18.4663 44.7164 18.5913 44.7476 18.732C44.7633 18.8571 44.7945 18.9821 44.8258 19.1072C44.8727 19.2322 44.9039 19.3573 44.9508 19.4823C44.9821 19.5605 45.029 19.6386 45.0602 19.7011L41.4651 18.31C40.8555 18.138 40.2616 17.9817 39.652 17.8411C39.3237 17.7629 38.9955 17.6848 38.6672 17.6066C37.7294 17.419 36.7759 17.2784 35.8224 17.1846C35.7912 17.1846 35.7755 17.1689 35.7443 17.1689C34.8064 17.0751 33.8842 17.0282 32.9464 17.0282C32.2586 17.0282 31.5708 17.0595 30.8987 17.1064C29.9452 17.1689 28.9917 17.294 28.0383 17.4503C27.8038 17.4815 27.5693 17.5284 27.3349 17.5753C26.8503 17.6691 26.3814 17.7785 25.9281 17.8879C25.6936 17.9505 25.4592 18.013 25.2247 18.0755C24.9903 18.1693 24.7714 18.2787 24.5526 18.3725C24.3807 18.4506 24.2087 18.5288 24.0368 18.607C24.0055 18.6226 23.9742 18.6226 23.9586 18.6382C23.8023 18.7163 23.6616 18.7789 23.521 18.857C23.4741 18.8727 23.4428 18.8883 23.4115 18.9039C23.2396 18.9821 23.0677 19.0759 22.927 19.154C22.8176 19.2009 22.7082 19.2634 22.6144 19.3103C22.5675 19.3416 22.505 19.3729 22.4737 19.3885C22.333 19.4666 22.1923 19.5448 22.0673 19.6229C21.9266 19.7011 21.8016 19.7792 21.6922 19.8574C21.5827 19.9356 21.4733 19.9981 21.3795 20.0762C21.3639 20.0919 21.3483 20.0919 21.3326 20.1075C21.2389 20.17 21.1294 20.2481 21.0357 20.3263C21.0357 20.3263 21.02 20.342 21.0044 20.3575C20.9263 20.4201 20.8481 20.4826 20.77 20.5451C20.7387 20.5608 20.7074 20.592 20.6762 20.6076C20.598 20.6702 20.5199 20.7483 20.4417 20.8109C20.4261 20.8421 20.3948 20.8577 20.3792 20.8734C20.2854 20.9672 20.1916 21.0453 20.0978 21.1391C20.0822 21.1391 20.0822 21.1548 20.0666 21.1704C19.9728 21.2485 19.879 21.3423 19.7852 21.4361C19.7696 21.4517 19.7696 21.4673 19.754 21.4673C19.6758 21.5455 19.5977 21.6236 19.5195 21.7174C19.4883 21.7487 19.4414 21.78 19.4101 21.8112C19.332 21.905 19.2382 21.9988 19.1444 22.0926C19.1287 22.1238 19.0975 22.1394 19.0818 22.1707C18.9568 22.2958 18.8474 22.4208 18.7223 22.5459C18.7067 22.5615 18.6911 22.5771 18.6754 22.5927C18.4253 22.8585 18.1596 23.1242 17.8783 23.3587C17.5969 23.6087 17.2999 23.8432 17.0029 24.0464C16.6903 24.2652 16.3933 24.4528 16.0651 24.6404C15.7525 24.8123 15.4242 24.9686 15.0803 25.1093C14.7521 25.25 14.4082 25.375 14.0643 25.4844C13.4078 25.6251 12.7357 25.8908 12.1574 25.9377C12.0323 25.9377 11.8917 25.969 11.7666 25.9846C11.6259 26.0159 11.5009 26.0472 11.3758 26.0784C11.2508 26.1253 11.1257 26.1722 11.0007 26.2191C10.8757 26.266 10.7506 26.3285 10.6256 26.391C10.5161 26.4692 10.3911 26.5317 10.2817 26.6099C10.1723 26.688 10.0629 26.7818 9.96907 26.8756C9.85966 26.9537 9.75024 27.0632 9.65645 27.1569C9.56267 27.2664 9.46888 27.3601 9.39073 27.4696C9.31258 27.5946 9.21879 27.704 9.15626 27.8291C9.07811 27.9385 8.99996 28.0635 8.93743 28.1886C8.87489 28.3293 8.81239 28.4543 8.7655 28.595C8.7186 28.72 8.67171 28.8607 8.62482 29.0014C8.59358 29.1264 8.56227 29.2515 8.54667 29.3765C8.54667 29.3922 8.53101 29.4077 8.53101 29.4234C8.49977 29.5641 8.49977 29.7517 8.48412 29.8454C8.46846 29.9549 8.45288 30.0486 8.45288 30.1581C8.45288 30.2206 8.45288 30.2987 8.46854 30.3613C8.48419 30.4707 8.49977 30.5645 8.53108 30.6583C8.56232 30.752 8.59363 30.8458 8.6405 30.9396V30.9553C8.68739 31.049 8.74991 31.1428 8.81243 31.2366C8.87498 31.3304 8.93749 31.4242 9.01564 31.518C9.09379 31.5961 9.18758 31.6899 9.28136 31.7681C9.37515 31.8618 9.46893 31.94 9.57834 32.0181C9.95349 32.3464 10.0473 32.4558 10.5318 32.7059C10.61 32.7528 10.6881 32.7841 10.7819 32.831C10.7976 32.831 10.8132 32.8466 10.8288 32.8466C10.8288 32.8778 10.8288 32.8935 10.8445 32.9248C10.8601 33.0498 10.8914 33.1749 10.9226 33.2999C10.9539 33.4406 11.0008 33.5656 11.0477 33.675C11.0946 33.7688 11.1258 33.8626 11.1727 33.9564C11.1884 33.9876 11.204 34.0189 11.2196 34.0346C11.2822 34.1596 11.3447 34.269 11.4072 34.3784C11.4853 34.4878 11.5635 34.5973 11.6416 34.7067C11.7198 34.8005 11.8136 34.9099 11.9074 35.0037C12.0012 35.0974 12.0949 35.1756 12.2044 35.2694C12.2044 35.2694 12.22 35.2851 12.2356 35.2851C12.3294 35.3632 12.4232 35.4414 12.517 35.5039C12.6264 35.582 12.7358 35.6446 12.8608 35.7071C12.9702 35.7696 13.0953 35.8321 13.2203 35.879C13.3141 35.9259 13.4235 35.9572 13.533 35.9884C13.5486 36.0041 13.5642 36.0041 13.5955 36.0197C13.658 36.0354 13.7362 36.0509 13.7987 36.0666C13.7518 36.9106 13.7361 37.7078 13.8612 37.9892C14.0019 38.3018 14.6897 37.3483 15.3774 36.2541C15.2836 37.3327 15.2211 38.5988 15.3774 38.9739C15.5494 39.3647 16.4872 38.1455 17.3 36.8012C28.3823 34.2378 38.4954 41.8969 39.5583 52.7134C39.3551 51.0253 37.2762 50.0874 36.3227 50.3219C35.8538 51.4786 35.0566 52.9635 33.7749 53.8857C33.8843 52.8541 33.8375 51.7912 33.6186 50.7595C33.2747 52.1976 32.6026 53.5418 31.6804 54.6985C30.1954 54.8079 28.7105 54.0889 27.929 53.0104C27.8664 52.9635 27.8508 52.8697 27.8039 52.8072C27.757 52.6978 27.7101 52.5883 27.6789 52.4789C27.632 52.3695 27.6007 52.2601 27.5851 52.1507C27.5694 52.0413 27.5694 51.9318 27.5694 51.8068C27.5694 51.7286 27.5694 51.6505 27.5694 51.5723C27.5851 51.4629 27.6163 51.3535 27.6476 51.2441C27.6788 51.1347 27.7101 51.0253 27.757 50.9158C27.8196 50.8064 27.8664 50.697 27.9446 50.5876C28.2103 49.8373 28.2103 49.2277 27.7257 48.8682C27.632 48.8057 27.5382 48.7588 27.4288 48.7119C27.3662 48.6962 27.2881 48.665 27.2256 48.6494C27.1787 48.6337 27.1474 48.6181 27.1005 48.6025C26.9911 48.5712 26.8817 48.5399 26.7723 48.5243C26.6628 48.4931 26.5534 48.4774 26.444 48.4774C26.3346 48.4617 26.2096 48.4462 26.1001 48.4462C26.022 48.4462 25.9438 48.4618 25.8657 48.4618C25.7406 48.4618 25.6312 48.4775 25.5218 48.5087C25.4124 48.5244 25.303 48.54 25.1936 48.5713C25.0841 48.6025 24.9747 48.6338 24.8653 48.6807C24.7559 48.7276 24.6621 48.7745 24.5527 48.8214C24.4589 48.8683 24.3651 48.9308 24.2557 48.9777C20.6137 51.3535 22.7864 56.9181 25.2717 58.5281C24.3339 58.7 23.3804 58.9032 23.1147 59.1064C23.099 59.1221 23.0834 59.1377 23.0834 59.1377C23.7555 59.5441 24.4589 59.888 25.1936 60.1849C26.194 60.5132 27.2568 60.8102 27.7258 60.9352V60.9509C29.0231 61.2166 30.3361 61.3104 31.6647 61.2322C38.5892 60.7477 44.2632 55.4801 45.2948 48.54C45.326 48.6807 45.3574 48.8057 45.3886 48.9464C45.4355 49.2278 45.498 49.5247 45.5293 49.8217V49.8374C45.5605 49.9781 45.5762 50.1188 45.5918 50.2438V50.3063C45.6075 50.447 45.6231 50.5877 45.6231 50.7127C45.6387 50.8847 45.6543 51.0566 45.6543 51.2286V51.4787C45.6543 51.5568 45.6699 51.6506 45.6699 51.7288C45.6699 51.8225 45.6543 51.9163 45.6543 52.0101V52.2289C45.6543 52.3384 45.6386 52.4321 45.6386 52.5416C45.6386 52.6041 45.6386 52.6666 45.623 52.7448C45.623 52.8542 45.6073 52.9636 45.6073 53.0886C45.5916 53.1355 45.5916 53.1824 45.5916 53.2293C45.576 53.3544 45.5604 53.4638 45.5447 53.5888C45.5447 53.6357 45.5447 53.6826 45.5291 53.7295C45.5134 53.8858 45.4822 54.0265 45.4666 54.1828V54.1985V54.2141C45.4353 54.3548 45.404 54.5111 45.3728 54.6518V54.6987C45.3415 54.8393 45.3102 54.98 45.279 55.1207C45.279 55.1364 45.2633 55.1676 45.2633 55.1832C45.2321 55.3239 45.2008 55.4646 45.1539 55.6053V55.6522C45.107 55.8085 45.0601 55.9492 45.0289 56.0898C45.0132 56.1055 45.0132 56.1211 45.0132 56.1211C44.9663 56.2774 44.9194 56.4337 44.8725 56.59C44.81 56.7463 44.7631 56.887 44.7006 57.0433C44.6381 57.1996 44.5912 57.3559 44.5287 57.4966C44.4661 57.6529 44.4036 57.7936 44.3411 57.9499H44.3254C44.2629 58.0906 44.2004 58.2469 44.1222 58.3875C44.1066 58.4344 44.091 58.4657 44.0753 58.497C44.0597 58.5126 44.0597 58.5282 44.0441 58.5439C43.0281 60.5915 41.5275 62.389 39.6518 63.7958C39.5268 63.874 39.4017 63.9677 39.2767 64.0615C39.2455 64.0928 39.1985 64.1084 39.1673 64.1397C39.0579 64.2178 38.9484 64.296 38.8234 64.3741L38.8703 64.4679H38.8859C39.1048 64.4367 39.3236 64.4054 39.5424 64.3741H39.5581C39.9645 64.3116 40.3709 64.2335 40.7773 64.1553C40.8867 64.1396 41.0118 64.1084 41.1212 64.0771C41.1993 64.0615 41.2618 64.0459 41.34 64.0303C41.4494 64.0146 41.5588 63.9834 41.6683 63.9677C41.762 63.9365 41.8558 63.9208 41.9496 63.8896C43.5127 63.5144 45.0289 62.9986 46.4825 62.389C43.9972 65.7809 40.6679 68.5163 36.7758 70.3138C38.5734 70.1888 40.3709 69.8918 42.1059 69.3916C48.4051 67.5315 53.704 63.2956 56.877 57.5903C56.2362 61.2011 54.7981 64.6398 52.6723 67.641C54.1885 66.6406 55.5797 65.4839 56.8458 64.1709C60.3471 60.5133 62.6448 55.871 63.4263 50.8847C63.9578 53.3544 64.1141 55.9022 63.8796 58.4188C75.1651 42.6785 64.8175 26.36 60.4878 22.0615C60.4721 22.0303 60.4565 22.0146 60.4565 21.9833C60.4408 21.999 60.4408 21.999 60.4408 22.0146C60.4408 21.9989 60.4408 21.9989 60.4252 21.9833C60.4252 22.1709 60.4095 22.3585 60.394 22.5461C60.3471 22.9056 60.3002 23.2494 60.2376 23.5933C60.1595 23.9372 60.0657 24.2811 59.9719 24.625C59.8625 24.9532 59.7375 25.2971 59.5968 25.6253C59.4561 25.9379 59.2998 26.2662 59.1279 26.5788C58.9559 26.8758 58.7683 27.1884 58.5651 27.4698C58.3619 27.7667 58.1431 28.0481 57.9243 28.3138C57.6898 28.5952 57.4397 28.8453 57.1896 29.0954C57.0333 29.236 56.8927 29.3611 56.7363 29.4861C56.6113 29.5955 56.5019 29.6893 56.3768 29.7987C56.0955 30.0176 55.8141 30.2208 55.5015 30.4084C55.2045 30.5959 54.8919 30.7835 54.5793 30.9398C54.251 31.0961 53.9228 31.2368 53.5946 31.3775C53.2663 31.5025 52.9224 31.6119 52.5785 31.7057C52.2347 31.7995 51.8752 31.8776 51.5313 31.9402C51.1718 32.0027 50.8123 32.034 50.4684 32.0652C50.2183 32.0809 49.9682 32.0965 49.7181 32.0965C49.3586 32.0965 48.9991 32.0652 48.6552 32.0339C48.2957 32.0027 47.9362 31.9557 47.5923 31.8776C47.2328 31.815 46.8889 31.7213 46.545 31.6119H46.5294C46.8733 31.5806 47.2172 31.5493 47.561 31.4868C47.9205 31.4243 48.2644 31.3462 48.6083 31.2524C48.9522 31.1586 49.2961 31.0492 49.6243 30.9241C49.9682 30.7991 50.2964 30.6428 50.609 30.4865C50.9373 30.3301 51.2343 30.1582 51.5469 29.9706C51.8439 29.7674 52.1409 29.5642 52.4222 29.3454C52.7036 29.1266 52.9693 28.8921 53.2194 28.642C53.4851 28.4076 53.7196 28.1418 53.954 27.8761C54.1885 27.5948 54.4073 27.3134 54.6105 27.032C54.6418 26.9851 54.6731 26.9226 54.7043 26.8757C54.8606 26.6256 55.0169 26.3756 55.1576 26.1255C55.3295 25.8128 55.4859 25.5002 55.6265 25.172C55.7672 24.8437 55.8923 24.5155 56.0017 24.1716C56.1111 23.8434 56.1892 23.4995 56.2674 23.1556C56.33 22.7961 56.3924 22.4522 56.4237 22.1083C56.4549 21.7488 56.4863 21.3893 56.4863 21.0454C56.4863 20.7954 56.4706 20.5453 56.455 20.2952C56.4238 19.9357 56.3769 19.5918 56.33 19.2479C56.2674 18.8884 56.1893 18.5445 56.0955 18.2006C55.9861 17.8724 55.8767 17.5285 55.7516 17.2003C55.6266 16.872 55.4703 16.5438 55.314 16.2312C55.142 15.9185 54.9701 15.6059 54.7825 15.3089C54.5793 15.012 54.3761 14.7306 54.1573 14.4492C53.9228 14.1835 53.6884 13.9178 53.4383 13.6521C53.3132 13.527 53.1725 13.3863 53.0319 13.2613C52.3285 12.7142 51.5938 12.1984 50.8592 11.7295C50.7498 11.6669 50.656 11.6201 50.5466 11.5732C50.0307 11.2449 49.5462 11.0729 49.0616 10.9166Z" fill="#E0234E"/>
</g>
<defs>
<clipPath id="clip0_221_194">
<rect width="64" height="61.824" fill="white" transform="translate(7 9)"/>
</clipPath>
</defs>
</svg>
