<svg width="79" height="79" viewBox="0 0 79 79" fill="none" xmlns="http://www.w3.org/2000/svg">
<g clip-path="url(#clip0_221_198)">
<path d="M36.9064 8.04998C36.769 8.06248 36.3315 8.10623 35.9378 8.13747C26.8574 8.95614 18.352 13.8557 12.965 21.3862C9.96533 25.5733 8.04676 30.3228 7.32183 35.3536C7.06561 37.1096 7.03436 37.6283 7.03436 40.0094C7.03436 42.3904 7.06561 42.9091 7.32183 44.6652C9.05916 56.6702 17.6021 66.7568 29.1884 70.4939C31.2632 71.1626 33.4505 71.6188 35.9378 71.8938C36.9064 72 41.0935 72 42.0622 71.8938C46.3555 71.4188 49.9927 70.3564 53.5798 68.5253C54.1298 68.2441 54.236 68.1691 54.161 68.1066C54.111 68.0691 51.7675 64.9257 48.9553 61.1261L43.8433 54.2205L37.4376 44.7402C33.913 39.5282 31.0133 35.2661 30.9883 35.2661C30.9633 35.2598 30.9383 39.4719 30.9258 44.6152C30.907 53.6205 30.9008 53.983 30.7883 54.1955C30.6258 54.5017 30.5008 54.6267 30.2383 54.7642C30.0384 54.8642 29.8634 54.8829 28.9197 54.8829H27.8386L27.5511 54.7017C27.3636 54.5829 27.2261 54.4267 27.1324 54.2455L27.0012 53.9642L27.0137 41.4342L27.0324 28.8979L27.2261 28.6542C27.3261 28.523 27.5386 28.3543 27.6886 28.273C27.9448 28.148 28.0448 28.1355 29.126 28.1355C30.4008 28.1355 30.6133 28.1855 30.9445 28.548C31.0383 28.648 34.5067 33.8725 38.6563 40.1656C42.8059 46.4587 48.4803 55.0516 51.2675 59.27L56.3295 66.938L56.5858 66.7693C58.8543 65.2944 61.2541 63.1946 63.1539 61.0073C67.1972 56.364 69.8032 50.7021 70.6781 44.6652C70.9344 42.9091 70.9656 42.3904 70.9656 40.0094C70.9656 37.6283 70.9344 37.1096 70.6781 35.3536C68.9408 23.3485 60.3979 13.262 48.8115 9.52484C46.768 8.8624 44.5932 8.4062 42.1559 8.13122C41.556 8.06873 37.4251 7.99999 36.9064 8.04998ZM49.9927 27.3856C50.2926 27.5356 50.5364 27.8231 50.6239 28.123C50.6738 28.2855 50.6863 31.7602 50.6738 39.5907L50.6551 50.8271L48.674 47.7899L46.6867 44.7527V36.5847C46.6867 31.304 46.7117 28.3355 46.7492 28.1918C46.8492 27.8418 47.068 27.5668 47.3679 27.4043C47.6241 27.2731 47.7179 27.2606 48.699 27.2606C49.624 27.2606 49.7864 27.2731 49.9927 27.3856Z" fill="black"/>
<path d="M56.0171 67.0754C55.7983 67.2129 55.7296 67.3067 55.9233 67.2004C56.0608 67.1192 56.2858 66.9505 56.2483 66.9442C56.2296 66.9442 56.1233 67.0067 56.0171 67.0754ZM55.5859 67.3567C55.4734 67.4442 55.4734 67.4504 55.6109 67.3817C55.6859 67.3442 55.7484 67.3004 55.7484 67.2879C55.7484 67.2379 55.7171 67.2504 55.5859 67.3567ZM55.2734 67.5442C55.1609 67.6316 55.1609 67.6379 55.2984 67.5692C55.3734 67.5317 55.4359 67.4879 55.4359 67.4754C55.4359 67.4254 55.4046 67.4379 55.2734 67.5442ZM54.9609 67.7316C54.8484 67.8191 54.8484 67.8254 54.9859 67.7566C55.0609 67.7191 55.1234 67.6754 55.1234 67.6629C55.1234 67.6129 55.0922 67.6254 54.9609 67.7316ZM54.486 67.9816C54.2485 68.1066 54.261 68.1566 54.4985 68.0379C54.6047 67.9816 54.686 67.9254 54.686 67.9129C54.686 67.8691 54.6797 67.8754 54.486 67.9816Z" fill="black"/>
</g>
<defs>
<clipPath id="clip0_221_198">
<rect width="64" height="64" fill="white" transform="translate(7 8)"/>
</clipPath>
</defs>
</svg>
