<svg width="79" height="79" viewBox="0 0 79 79" fill="none" xmlns="http://www.w3.org/2000/svg">
<path d="M42.84 61.6667H66.52C67.2756 61.6667 67.9989 61.4012 68.6533 61.0267C69.3078 60.6522 69.9823 60.182 70.36 59.5333C70.7377 58.8847 71.0003 58.1487 71 57.3998C70.9997 56.6509 70.7383 55.9152 70.36 55.2669L54.36 27.7467C53.9823 27.0981 53.5209 26.6278 52.8667 26.2533C52.2124 25.8789 51.2755 25.6133 50.52 25.6133C49.7645 25.6133 49.0409 25.8789 48.3867 26.2533C47.7324 26.6278 47.2709 27.0981 46.8933 27.7467L42.84 34.7867L34.7333 21.1328C34.3553 20.4844 33.8945 19.8011 33.24 19.4267C32.5855 19.0522 31.8623 19 31.1067 19C30.3511 19 29.6278 19.0522 28.9733 19.4267C28.3189 19.8011 27.6447 20.4844 27.2667 21.1328L7.42667 55.2669C7.04842 55.9152 7.00033 56.6509 7 57.3998C6.99967 58.1487 7.049 58.8845 7.42667 59.5333C7.80435 60.1819 8.47893 60.6522 9.13333 61.0267C9.78775 61.4012 10.511 61.6667 11.2667 61.6667H26.2C32.1171 61.6667 36.424 59.0124 39.4267 53.9867L46.68 41.4L50.52 34.7867L62.2533 54.84H46.68L42.84 61.6667ZM25.9867 54.84H15.5333L31.1067 27.96L39 41.4L33.7715 50.5146C31.7775 53.7754 29.504 54.84 25.9867 54.84Z" fill="#00DC82"/>
</svg>
