<svg width="79" height="79" viewBox="0 0 79 79" fill="none" xmlns="http://www.w3.org/2000/svg">
<g clip-path="url(#clip0_221_196)">
<path d="M39 46.1753C42.1504 46.1753 44.7043 43.6214 44.7043 40.4709C44.7043 37.3205 42.1504 34.7666 39 34.7666C35.8496 34.7666 33.2957 37.3205 33.2957 40.4709C33.2957 43.6214 35.8496 46.1753 39 46.1753Z" fill="#61DAFB"/>
<path d="M39 52.1579C55.9047 52.1579 69.6087 46.9255 69.6087 40.471C69.6087 34.0164 55.9047 28.784 39 28.784C22.0953 28.784 8.3913 34.0164 8.3913 40.471C8.3913 46.9255 22.0953 52.1579 39 52.1579Z" stroke="#61DAFB"/>
<path d="M28.8788 46.3144C37.3311 60.9543 48.7145 70.2061 54.3043 66.9789C59.8941 63.7516 57.5735 49.2674 49.1212 34.6275C40.6688 19.9876 29.2854 10.7358 23.6956 13.963C18.1058 17.1903 20.4264 31.6745 28.8788 46.3144Z" stroke="#61DAFB"/>
<path d="M28.8788 34.6275C20.4264 49.2674 18.1059 63.7516 23.6956 66.9789C29.2854 70.2061 40.6688 60.9543 49.1212 46.3144C57.5735 31.6745 59.8941 17.1903 54.3043 13.963C48.7146 10.7358 37.3311 19.9876 28.8788 34.6275Z" stroke="#61DAFB"/>
</g>
<defs>
<clipPath id="clip0_221_196">
<rect width="64" height="56.9419" fill="white" transform="translate(7 12)"/>
</clipPath>
</defs>
</svg>
