<svg width="79" height="79" viewBox="0 0 79 79" fill="none" xmlns="http://www.w3.org/2000/svg">
<mask id="mask0_221_201" style="mask-type:luminance" maskUnits="userSpaceOnUse" x="7" y="20" width="64" height="39">
<path d="M7 20H71V58.4H7V20Z" fill="white"/>
</mask>
<g mask="url(#mask0_221_201)">
<path fill-rule="evenodd" clip-rule="evenodd" d="M39 20C30.4667 20 25.1333 24.2667 23 32.8C26.2 28.5333 29.9333 26.9333 34.2 28C36.6344 28.608 38.3742 30.3751 40.3001 32.3295C43.4373 35.5141 47.0687 39.2 55 39.2C63.5333 39.2 68.8667 34.9333 71 26.4C67.8 30.6667 64.0667 32.2667 59.8 31.2C57.3656 30.592 55.6258 28.8249 53.6999 26.8705C50.5627 23.6859 46.9313 20 39 20ZM23 39.2C14.4667 39.2 9.13333 43.4667 7 52C10.2 47.7333 13.9333 46.1333 18.2 47.2C20.6344 47.8092 22.3742 49.5751 24.3001 51.5295C27.4373 54.7141 31.0687 58.4 39 58.4C47.5333 58.4 52.8667 54.1333 55 45.6C51.8 49.8667 48.0667 51.4667 43.8 50.4C41.3656 49.792 39.6258 48.0249 37.6999 46.0705C34.5627 42.8859 30.9313 39.2 23 39.2Z" fill="#38BDF8"/>
</g>
</svg>
